<mxfile host="app.diagrams.net" agent="Mozilla/5.0 (Windows NT 10.0; Win64; x64) AppleWebKit/537.36 (KHTML, like Gecko) Chrome/140.0.0.0 Safari/537.36 Edg/140.0.0.0" version="28.2.3">
  <diagram name="ページ1" id="V-IXpBG054USCnARxdyV">
    <mxGraphModel dx="778" dy="507" grid="1" gridSize="9" guides="1" tooltips="1" connect="1" arrows="1" fold="1" page="1" pageScale="1" pageWidth="827" pageHeight="1169" math="0" shadow="0">
      <root>
        <mxCell id="0" />
        <mxCell id="1" parent="0" />
        <mxCell id="4Q9v6v42GUllifusgvBl-6" value="メニュー画面" style="shape=umlLifeline;perimeter=lifelinePerimeter;whiteSpace=wrap;html=1;container=1;dropTarget=0;collapsible=0;recursiveResize=0;outlineConnect=0;portConstraint=eastwest;newEdgeStyle={&quot;curved&quot;:0,&quot;rounded&quot;:0};participant=umlBoundary;fillColor=#f8cecc;strokeColor=#b85450;" vertex="1" parent="1">
          <mxGeometry x="190" y="285" width="60" height="300" as="geometry" />
        </mxCell>
        <mxCell id="4Q9v6v42GUllifusgvBl-40" value="" style="html=1;points=[[0,0,0,0,5],[0,1,0,0,-5],[1,0,0,0,5],[1,1,0,0,-5]];perimeter=orthogonalPerimeter;outlineConnect=0;targetShapes=umlLifeline;portConstraint=eastwest;newEdgeStyle={&quot;curved&quot;:0,&quot;rounded&quot;:0};" vertex="1" parent="4Q9v6v42GUllifusgvBl-6">
          <mxGeometry x="25" y="85" width="10" height="158" as="geometry" />
        </mxCell>
        <mxCell id="4Q9v6v42GUllifusgvBl-7" value="確認ダイアログ" style="shape=umlLifeline;perimeter=lifelinePerimeter;whiteSpace=wrap;html=1;container=1;dropTarget=0;collapsible=0;recursiveResize=0;outlineConnect=0;portConstraint=eastwest;newEdgeStyle={&quot;curved&quot;:0,&quot;rounded&quot;:0};participant=umlBoundary;fillColor=#f8cecc;strokeColor=#b85450;" vertex="1" parent="1">
          <mxGeometry x="280" y="285" width="50" height="300" as="geometry" />
        </mxCell>
        <mxCell id="4Q9v6v42GUllifusgvBl-8" value="ログアウト" style="shape=umlLifeline;perimeter=lifelinePerimeter;whiteSpace=wrap;html=1;container=1;dropTarget=0;collapsible=0;recursiveResize=0;outlineConnect=0;portConstraint=eastwest;newEdgeStyle={&quot;curved&quot;:0,&quot;rounded&quot;:0};participant=umlControl;fillColor=#fff2cc;strokeColor=#d6b656;" vertex="1" parent="1">
          <mxGeometry x="370" y="285" width="40" height="300" as="geometry" />
        </mxCell>
        <mxCell id="4Q9v6v42GUllifusgvBl-41" value="" style="html=1;points=[[0,0,0,0,5],[0,1,0,0,-5],[1,0,0,0,5],[1,1,0,0,-5]];perimeter=orthogonalPerimeter;outlineConnect=0;targetShapes=umlLifeline;portConstraint=eastwest;newEdgeStyle={&quot;curved&quot;:0,&quot;rounded&quot;:0};" vertex="1" parent="4Q9v6v42GUllifusgvBl-8">
          <mxGeometry x="15" y="205" width="10" height="95" as="geometry" />
        </mxCell>
        <mxCell id="4Q9v6v42GUllifusgvBl-9" value="認証情報" style="shape=umlLifeline;perimeter=lifelinePerimeter;whiteSpace=wrap;html=1;container=1;dropTarget=0;collapsible=0;recursiveResize=0;outlineConnect=0;portConstraint=eastwest;newEdgeStyle={&quot;curved&quot;:0,&quot;rounded&quot;:0};participant=umlEntity;fillColor=#d5e8d4;strokeColor=#82b366;" vertex="1" parent="1">
          <mxGeometry x="448.76" y="285" width="40" height="300" as="geometry" />
        </mxCell>
        <mxCell id="4Q9v6v42GUllifusgvBl-10" value="ログイン画面" style="shape=umlLifeline;perimeter=lifelinePerimeter;whiteSpace=wrap;html=1;container=1;dropTarget=0;collapsible=0;recursiveResize=0;outlineConnect=0;portConstraint=eastwest;newEdgeStyle={&quot;curved&quot;:0,&quot;rounded&quot;:0};participant=umlBoundary;fillColor=#f8cecc;strokeColor=#b85450;" vertex="1" parent="1">
          <mxGeometry x="520" y="285" width="50" height="300" as="geometry" />
        </mxCell>
        <mxCell id="4Q9v6v42GUllifusgvBl-11" value="" style="shape=umlLifeline;perimeter=lifelinePerimeter;whiteSpace=wrap;html=1;container=1;dropTarget=0;collapsible=0;recursiveResize=0;outlineConnect=0;portConstraint=eastwest;newEdgeStyle={&quot;curved&quot;:0,&quot;rounded&quot;:0};participant=umlActor;" vertex="1" parent="1">
          <mxGeometry x="120" y="285" width="20" height="300" as="geometry" />
        </mxCell>
        <mxCell id="4Q9v6v42GUllifusgvBl-12" value="ユーザー" style="text;align=center;fontStyle=1;verticalAlign=middle;spacingLeft=3;spacingRight=3;strokeColor=none;rotatable=0;points=[[0,0.5],[1,0.5]];portConstraint=eastwest;html=1;" vertex="1" parent="1">
          <mxGeometry x="90" y="340" width="80" height="26" as="geometry" />
        </mxCell>
        <mxCell id="4Q9v6v42GUllifusgvBl-13" value="" style="endArrow=classic;html=1;rounded=0;" edge="1" parent="1">
          <mxGeometry width="50" height="50" relative="1" as="geometry">
            <mxPoint x="140" y="370" as="sourcePoint" />
            <mxPoint x="218.62" y="370" as="targetPoint" />
          </mxGeometry>
        </mxCell>
        <mxCell id="4Q9v6v42GUllifusgvBl-14" value="ログアウト選択" style="text;html=1;align=center;verticalAlign=middle;whiteSpace=wrap;rounded=0;" vertex="1" parent="1">
          <mxGeometry x="150" y="338" width="60" height="30" as="geometry" />
        </mxCell>
        <mxCell id="4Q9v6v42GUllifusgvBl-15" value="" style="endArrow=classic;html=1;rounded=0;" edge="1" parent="1">
          <mxGeometry width="50" height="50" relative="1" as="geometry">
            <mxPoint x="222.06" y="450" as="sourcePoint" />
            <mxPoint x="306.56" y="450" as="targetPoint" />
          </mxGeometry>
        </mxCell>
        <mxCell id="4Q9v6v42GUllifusgvBl-16" value="確認ダイアログ表示" style="text;html=1;align=center;verticalAlign=middle;whiteSpace=wrap;rounded=0;" vertex="1" parent="1">
          <mxGeometry x="230" y="420" width="70" height="30" as="geometry" />
        </mxCell>
        <mxCell id="4Q9v6v42GUllifusgvBl-18" value="ログアウト要求" style="text;html=1;align=center;verticalAlign=middle;whiteSpace=wrap;rounded=0;" vertex="1" parent="1">
          <mxGeometry x="320" y="440" width="60" height="30" as="geometry" />
        </mxCell>
        <mxCell id="4Q9v6v42GUllifusgvBl-19" value="" style="endArrow=classic;html=1;rounded=0;exitX=0;exitY=1;exitDx=0;exitDy=0;" edge="1" parent="1" source="4Q9v6v42GUllifusgvBl-21" target="4Q9v6v42GUllifusgvBl-9">
          <mxGeometry width="50" height="50" relative="1" as="geometry">
            <mxPoint x="388.5" y="510" as="sourcePoint" />
            <mxPoint x="438.5" y="460" as="targetPoint" />
          </mxGeometry>
        </mxCell>
        <mxCell id="4Q9v6v42GUllifusgvBl-21" value="認証情報削除" style="text;html=1;align=center;verticalAlign=middle;whiteSpace=wrap;rounded=0;" vertex="1" parent="1">
          <mxGeometry x="410" y="475" width="60" height="30" as="geometry" />
        </mxCell>
        <mxCell id="4Q9v6v42GUllifusgvBl-22" value="ログイン画面表示" style="text;html=1;align=center;verticalAlign=middle;whiteSpace=wrap;rounded=0;" vertex="1" parent="1">
          <mxGeometry x="480" y="520" width="60" height="30" as="geometry" />
        </mxCell>
        <mxCell id="4Q9v6v42GUllifusgvBl-24" value="" style="endArrow=classic;html=1;rounded=0;" edge="1" parent="1" target="4Q9v6v42GUllifusgvBl-10">
          <mxGeometry width="50" height="50" relative="1" as="geometry">
            <mxPoint x="400" y="560" as="sourcePoint" />
            <mxPoint x="439" y="510" as="targetPoint" />
          </mxGeometry>
        </mxCell>
        <mxCell id="4Q9v6v42GUllifusgvBl-25" value="" style="endArrow=classic;html=1;rounded=0;" edge="1" parent="1" target="4Q9v6v42GUllifusgvBl-42">
          <mxGeometry width="50" height="50" relative="1" as="geometry">
            <mxPoint x="133.44" y="480" as="sourcePoint" />
            <mxPoint x="290" y="480" as="targetPoint" />
          </mxGeometry>
        </mxCell>
        <mxCell id="4Q9v6v42GUllifusgvBl-26" value="「はい」または「OK」選択" style="text;html=1;align=center;verticalAlign=middle;whiteSpace=wrap;rounded=0;" vertex="1" parent="1">
          <mxGeometry x="120" y="450" width="168.62" height="30" as="geometry" />
        </mxCell>
        <mxCell id="4Q9v6v42GUllifusgvBl-32" value="ユーザー" style="shape=umlActor;verticalLabelPosition=bottom;verticalAlign=top;html=1;" vertex="1" parent="1">
          <mxGeometry x="115" y="585" width="30" height="60" as="geometry" />
        </mxCell>
        <mxCell id="4Q9v6v42GUllifusgvBl-33" value="" style="endArrow=classic;html=1;rounded=0;" edge="1" parent="1">
          <mxGeometry width="50" height="50" relative="1" as="geometry">
            <mxPoint x="539.5" y="584" as="sourcePoint" />
            <mxPoint x="145" y="584" as="targetPoint" />
          </mxGeometry>
        </mxCell>
        <mxCell id="4Q9v6v42GUllifusgvBl-34" value="ログイン画面を表示" style="text;html=1;align=center;verticalAlign=middle;whiteSpace=wrap;rounded=0;" vertex="1" parent="1">
          <mxGeometry x="150" y="550" width="70" height="30" as="geometry" />
        </mxCell>
        <mxCell id="4Q9v6v42GUllifusgvBl-35" value="メニュー画面" style="shape=umlBoundary;whiteSpace=wrap;html=1;fillColor=#f8cecc;strokeColor=#b85450;" vertex="1" parent="1">
          <mxGeometry x="180" y="585" width="70" height="55" as="geometry" />
        </mxCell>
        <mxCell id="4Q9v6v42GUllifusgvBl-36" value="確認ダイアログ" style="shape=umlBoundary;whiteSpace=wrap;html=1;fillColor=#f8cecc;strokeColor=#b85450;" vertex="1" parent="1">
          <mxGeometry x="270" y="585" width="70" height="55" as="geometry" />
        </mxCell>
        <mxCell id="4Q9v6v42GUllifusgvBl-37" value="ログアウト" style="ellipse;shape=umlControl;whiteSpace=wrap;html=1;fillColor=#fff2cc;strokeColor=#d6b656;" vertex="1" parent="1">
          <mxGeometry x="355" y="580" width="65" height="60" as="geometry" />
        </mxCell>
        <mxCell id="4Q9v6v42GUllifusgvBl-38" value="認証情報" style="ellipse;shape=umlEntity;whiteSpace=wrap;html=1;fillColor=#d5e8d4;strokeColor=#82b366;" vertex="1" parent="1">
          <mxGeometry x="440" y="585" width="60" height="55" as="geometry" />
        </mxCell>
        <mxCell id="4Q9v6v42GUllifusgvBl-39" value="ログイン画面" style="shape=umlBoundary;whiteSpace=wrap;html=1;fillColor=#f8cecc;strokeColor=#b85450;" vertex="1" parent="1">
          <mxGeometry x="510.62" y="587.5" width="68.76" height="55" as="geometry" />
        </mxCell>
        <mxCell id="4Q9v6v42GUllifusgvBl-42" value="" style="html=1;points=[[0,0,0,0,5],[0,1,0,0,-5],[1,0,0,0,5],[1,1,0,0,-5]];perimeter=orthogonalPerimeter;outlineConnect=0;targetShapes=umlLifeline;portConstraint=eastwest;newEdgeStyle={&quot;curved&quot;:0,&quot;rounded&quot;:0};" vertex="1" parent="1">
          <mxGeometry x="300" y="450" width="10" height="80" as="geometry" />
        </mxCell>
        <mxCell id="4Q9v6v42GUllifusgvBl-58" value="" style="endArrow=classic;html=1;rounded=0;" edge="1" parent="1" target="4Q9v6v42GUllifusgvBl-57">
          <mxGeometry width="50" height="50" relative="1" as="geometry">
            <mxPoint x="310" y="490" as="sourcePoint" />
            <mxPoint x="390" y="490" as="targetPoint" />
          </mxGeometry>
        </mxCell>
        <mxCell id="4Q9v6v42GUllifusgvBl-57" value="alt" style="shape=umlFrame;whiteSpace=wrap;html=1;pointerEvents=0;" vertex="1" parent="1">
          <mxGeometry x="120" y="490" width="429" height="90" as="geometry" />
        </mxCell>
        <mxCell id="4Q9v6v42GUllifusgvBl-59" value="" style="endArrow=classic;html=1;rounded=0;" edge="1" parent="1">
          <mxGeometry width="50" height="50" relative="1" as="geometry">
            <mxPoint x="300" y="530.5" as="sourcePoint" />
            <mxPoint x="220" y="530" as="targetPoint" />
          </mxGeometry>
        </mxCell>
        <mxCell id="4Q9v6v42GUllifusgvBl-63" value="「ログアウトしますか？」にキャンセル選択で戻る" style="text;html=1;align=center;verticalAlign=middle;whiteSpace=wrap;rounded=0;fontSize=8;" vertex="1" parent="1">
          <mxGeometry x="217" y="500" width="83" height="30" as="geometry" />
        </mxCell>
        <mxCell id="4Q9v6v42GUllifusgvBl-64" value="" style="shape=image;verticalLabelPosition=bottom;labelBackgroundColor=default;verticalAlign=top;aspect=fixed;imageAspect=0;image=data:image/png,iVBORw0KGgoAAAANSUhEUgAAAuAAAAInCAYAAADZM+wFAAAAAXNSR0IArs4c6QAAAARnQU1BAACxjwv8YQUAAAAJcEhZcwAADsMAAA7DAcdvqGQAAPeJSURBVHhe7N13WBRXF8Dh3wpIVRAQxQL23sVeorG3iL0mxmjQqFiIRmOJscXeTTQajTWxK/aCvSJijb0hFhDpve/3h7CfOwuKhabnfZ55hHPvzK7LlLN37tyrsre3V1tbW+Pv748QQgghhBAifeVQBoQQQgghhBDpRxJwIYQQQgghMpAk4EIIIYQQQmQgScCFEEIIIYTIQJKACyGEEEIIkYEkARdCCCGEECIDSQIuhBBCCCFEBpIEXAghhBBCiAwkCbgQQgghhBAZSGVvb6/28vJSxoUQQgghhBAfKDw8nJUrVzJ//nxNTBJwIYQQQggh0lmRIkU0P0sXFCGEEEIIITKQJOBCCCGEEEJkIEnAhRBCCCGEyEAZ2gf82LETnDlzloiICNRqNQYG+hQsWIg2bVpRuHAhZXUhhBBCCCE+Ca/3Ac+QBPzo0eMcPHiY6tVrU6dOQ60yP78XHDq0i/j4WMaMGYWBgYFWuRBCCCGEENldhibgy5atIDY2kQ4duiuLtAQFBbBhw0qcnQdRqFBBZbEQQgghhBDZVoaNgrJ163Zy5Mj51uQbIE8eK4YM+YnFi/9QFgkhhBBCCPHJSLcEPDIyCk/Py7Rq5agseqOOHXswY8YsZVgIIYQQQohPQrol4KtXr8HR8e0t30oFChQmPDySmJgYZZEQQgghhBDZXrol4N7eTyhQ4P1GNmnQoAmHD7spw0IIIYQQQmR76ZaAGxjkVIbSrFy5Sty8eUsZFkIIIYQQIttLlwQ8OjoaExNTZfidSBcUIYQQQgjxKUqXBNzIyIioqEhl+J3kzPn+LehCCCGEEEJkVemSgPOBLdh3796mVKmSyrAQQgghhBDZXrol4HnzWhEUFKAMp8nJk4do0uRLZVgIIYQQQohsL90S8D59vmbLlnXK8FuFhASjr5+D3LlzK4uEEEIIIYTI9tItAc+bNy/FihXhzJljyqI3WrfuT1xchivDQgghhBBCfBLSLQEH6Nu3D48f3+Po0QPKohQtWTKLr7/uhanph42gIoQQQgghRFalsre3V3t5eSnjH9WmTVu4fPkqTZu2pXTpsspi9u/fyePHDxgyZBC2tvmVxUIIIYQQQmRrRYoU0fycIQl4sk2bNvPffzcIDg4hMjKSvHnzYm6emxYtmlOtWlVldSGEEEIIIT4JmZaAJ3v+/DnHjx+nZ8+eyiIhhBBCCCE+Oa8n4OnaB1wIIYQQQgihTRJwIYQQQgghMpAk4EIIIYQQQmQgScCFEEIIIYTIQJKACyGEEEIIkYEkARdCCCGEECIDfZRhCNevX09ERIQynKrQ0FDu379PtWrVlEVv1KhRI0qXLq0MCyGEEEIIkaV99HHAw8LClKE38vHx4fTp03Tp0kVZ9Fa5cuVShoQQQgghhMjSPnoC/q5kIh4hhBBCCPE5kYl4hBBCCCGEyCSSgAshhBBCCJGBJAEXQgghhBAiA0kCLoQQQgghRAaSBFwIIYQQQogMJAm4EEIIIYQQGUgScCGEEEIIITKQJOBCCCGEEEJkIEnAhRBCCCGEyECSgAshhBBCCJGBJAEXQgghhBAiA0kCLoQQQgghRAaSBFwIIYQQQogMJAm4EEIIIYQQGUgScCGEEEIIITKQJOBCCCGEEEJkoExJwL29vbl9+7YyLIQQQgghxCdPZW9vr/by8lLG082LFy/YuHEj5ubm2Nra0qJFC2WVz1JUVBRhYWHKsMgANjY2ylCWFxQURFxcnDIssiiVSkXevHmV4TTx8/NThoTINLIvfzhzc3MMDQ2V4bcKDg4mNjZWGRbp7EP2eaUiRYpofs7QBDw8PJxNmzZRs2ZNKlasyJYtWyhQoAD16tVTVv2szJ49l9DQcPLksVIWiQzw4sVzKlWqQK9ePZVFWU5oaCizZs3B1PT9TuAi8/j6Pqdt25Y0bNhQWZSiI0eOcvCgG/nzF1AWCZGpfH2f0bGjI7Vr11IWpWjPnn2cPHla9uUkL1/6YW2dhx9/HKEsSlFkZCTTp8/E2DgXRkZGymKRztRq8PN7TseOjtSqVVNZ/E4yLQHftGkTdnZ21KlTB5JafTdu3Ei1atWoXLmysvpnYf36fzE3z0uVKjWURSIDbdz4N61aNadChXLKoixl0qSp9OkzCD09PWWRyAYWL57JtGmTMDAwUBZpiYiIYPLk3xgy5CdlkRBZwuLFM5g1a7oyrMPf35+5cxcyaNBIZdFn7cKF0+TIEU+HDu2VRTomT55Gz57fS6NLJlu8eCazZv2mDL+T1xPwDOsDvmfPHiwtLTXJN4CxsTFt27bl5MmT3L9/X6v+5+L+/XuSfGcBLVs64unpqQxnORERkZJ8Z2PVqtXm2rVryrCO69evU6tWA2VYiCyjXLnKaXqW68qVKzRp0koZ/uzVrFmfGzduKMMpCg8Pl+Q7CyhTpmKa9vm0ypAE/Pjx48THx9OsWTNlEXnz5qVt27bs3bsXX19fZfEnT61WK0MiE+jp6ZEjh0oZFuKj0tPTS9Mxn5iYSI4c8kVLZF0qlYrExERlWEdiYiIqVYakGtlOGk4FkPRZi8ynp5cjTft8WqX7UeHh4cGzZ89o27atskijaNGiNG3alN27d8uDiEIIIYQQ4pOWrgn4rVu3uHTpEm3btkVfX19ZrKV8+fJUqlSJPXv2pKmFSAghhBBCiOwo3RJwb29v9u3bR9u2bTE3N1cWp6hWrVrY2NiwZ88eZZEQQgghhBCfhHRJwAMDA9mzZw9t27alYMGCyuI3atKkCYmJiRw7dkxZJIQQQgghRLb30RPw2NhY9uzZQ+3atSldurSyOE3atm3L8+fPuXDhgrJICCGEEEKIbO2jJ+B79uyhSJEiVKtWTVmUZnp6erRt25arV6+meZgeIYQQQgghsoOPmoAfPHgQY2PjNM/09ibm5ua0bduWQ4cO8fjxY2WxEOI9/PnnYvbv360MExMTjZ+fr2YJDQ0hPj4Of38/rXjyEhERodwEJA2rmZCQoBWLjo7m5csXTJs2AW/vjJn0K6PFxESzf/9ujh07rCzKluLiYrl48TxbtvyTLg/Fx8REExDwUmdfEZ8ftVpNUFCg5tzi7+9HfHwcoaEhOucdPz9frf3m9TrJ66XV+vWrWL9+lTLM6dPHmTx5rDKsRbmu8vz5Pu8nq0pISCAsLJRlyxbx7NkTZbH4AB9tJszTp0/j4+NDly5dlEUf5N69exw6dIju3btjZfXpTdU+ceIk+vcfrgy/k6dPvTl58hiOjl0wMTFRFmdpt2/fZOjQ/oSGhiiLUjVnzu9YW9u813r16zdShgEICwvF0/MEX3/dW1mUpfz001icnUcrw5A0XfGoUUPw9HTXxIyNTejVqy8FChQkNjaWP/9cRPPmbShduqymvE6dBjx4cI916/7SrFeligNVqlRn6ND+BAcH8fKlHxYWeTA0NCQ4OIhhw37ihx9099uwsFD69u1G58496d79awCuXPFkxYrf6dSpOydOHGXChKlvHRWJpAvz9u2b8PF5xsCBQ9HXfzV7ZEREBPr6ehgavnlK5vj4ONRqNQYGOZVF702tVjNlyjgsLPIwaNAI9PX1CQsL5eefR9C3rxN//bWUX375DVvblKfcPn/+NEWL5sPBwUFZpOXs2bP4+UVQvfqHTXucFuvXr+Lq1UtMnjwbY2Nj4uPjmDRpLE2atGDXrm306/cD5ctXIiEhgfDwMHLnNn/ruMSRkZEYGxunWs/N7QDLly/m7783Y2pqqizWERDwEienrxkxYkyqx/DHEhUVRc6cOd9rwqvkY7BOnfr07v2dsjhLiI6O5ty5U0RFRSqLANDXN6BmzTpYWORRFmk5evQANWpUpFy5N88efOjQIfT0clOq1KtzjlJMTDR//70cL68HABgaGvP994NYtWoZ+/a5EhERQUREBDY2NsTHJ2BkZMT27QewscnPxo3ruHLloma9Hj2+4ZdfRnH+/BnFq7yyatVGmjZtCcDSpQsA6Nq1F05OX2uSy9dfL1nytePy5Yv4+DzjwIFXA0W0bNkWW9uCBAT44+T0tWadxMREYmNjWbduGxUrVtFsR2n16t+ZMOHNyT7A6NFjGTIk5fP+x+Tv74ez8/cMG/YTtWvXA+Dy5Yts3LiWFi3acPLkMcaPT9v5OzIykpkzJ9OsWUudY/Zdz82nTx9n5MjBynCqcuc2Z9Giv/D393uv9cqUSXmfTus+/yYffSr6K1eucOXKFbp164axsbGy+INdvnyZa9eu0b17909uNqiPkYDv2LGZ1auXs379dnLlyq1V9rYLYVxcLCqVSpPcZLT4+DiCg4N0Brdfu3YlAN98008rDmBuboGenp7OepGRkQwfPoBOnbrTokUbrXVIWi+1pO1TSMDVajXBwUFcuHCONWtWMH36fNRqNaNGDcHCIg8hIcE8ffqEhg0bQ9LndePGdVav3sj9+/e0LsjGxiZUqFCJW7duULBgYcaNc2HJkpVYW9toLlwpJeDbt29izZoVrF69mTx5LCEpoZk37zfq1GlApUpVyJPH6q3JjVqtTvo/TGTOnN9p27aDZh9eunQB06f/qlwlRV9+2YKlS1djbGzM06ferFjxBzExUcpqWgoUKET//oNT/DJ79+5tvvuuO/PmLaVmzf/P6nvq1DFOnz5Bjx7fYGOTP8V1+cgJeGhoCL//Pp+QkCBlkZZcuXIzYIAz1tb/TyiSBQS8pGdPRwYMGErHjt008bt3b7NixRKGDPmR3LnNyZPHEj8/X9q3b8qzZ0+1tpESfX19Vq3aSKNGTZVF8B4JuJ+fL717d2T27CVUrvz27o1p/WzatHGkQYNXxwNAUFAg333XHRubfMycueitSahSREQEfft2pW/fgbRq1U5ZrONj7JPvKigokEWLZqeagBsY5KRv3wEUK1ZCWaQlrcnI2xLw+/fvcPeu9uyCpUqV0Vy7DhzYg5GRMd9/Pxg/P1+GDOnHkiUrCQ0N0VnP1rYgVav+/9gaMWIgpUqVSfFctXTpAk6ePMaAAc5UrFhZ06p+6tRxDh/ez+TJMzV1k68dyQn/9etXAahYsTJVqjhgbZ2XvXt3Mn/+MkjaD4YNe5XIZlQCfuzYYQ4efPsIcg0aNKZNG0dlGJK+jG/Z8o/W+VutVjNjxiQcHGpRsmRpChe2f+v5OywslFGjnLl16z/WrNlCkSLFNGUJCQksXjyHjRvX8uef69J0PMfERBMSEqwM88svo2nWrBUNGmgn+Dly5MDCIg8JCQk66/n7+/PDD32YMGEalSpp/22S10stH0rrPv8mH3Uqeh8fHzw8PGjbtm26JN8AVatWpVixYpw5k/K32s/FjRvX8PF5rhWLjo5m+/ZNdOjQVSf5Bhg3zgV7+zzY2VmkuFSoYM+tW5nZz17FvXt3SUxUk5io5uJFdy5edMfb2wtvby/N74mJanLmNMTb2ws9PX309Q2wtrbBxia/ZsmRIwfx8fF88UUTrXjyklry/alQqVTkyWNJZGQEJUuWxt6+KHnz5sPc3ILvvvsBA4OcTJgwjV69+hIcHMTw4aPfeFdJpVJx48Z12rX7kpiYGPT0XrV6hIWFkT+/bguvl9dDfvttIpcvX6Ry5WKafax0aVvWrv2LvHltsLa2eevJOzo6milTxrFw4Sz+/nsT7dp11PoC+cMPw/H2Dn7jsn//SfLmzUe/fgM156WgoED27t1JZGTKiQdAQIA/7u5nU+x2ER8fx/z5M3j61JshQ76jdu3y1K5dnpo1yzJgwNdUrlyVIkWKfZQkKS2io6PYv38XAQH+yiKNyMhIjh49rPMFl6QL699/L+fWrRv89ttEzf+ndu3ytG3biGLFSmBvX1RzIbaxyc+5c//pfNavLw8f+tO793d88UVTateur3mdESMG4uBQRrP9ESMGcuHCORo3dtDEihe3Yfr0iYp3+X85cuQgR44PvmQBEBcXx4EDe4iJidGK58ljyfLl6wgNDaVDhxbcv39HqzytDAxSvoArfeg++T7y5LFk4sTpzJixMMVlypTZb02+05s6qSvbr7/+zNy5v2FtnRe1Wk10dDS5cuX+4HP5xIljuHLFEzs7e/btc2XOnN/46qsmfPVVE379dQyHDu3T/P7DD98SHv5qgsDu3b9mxoyFtG3rSNu2jsyYsVBzp4+k5DIg4CUvX74gNjb2tVdMf7dv3+DkyTePHnf9+tVUuwF6eT1kwYJZ3Llzk1atGmiOy2rVSnLs2CHKli1PkSLF3nr+fvrUmx492hMSEszWrfu0km+SnvEbMsSFnj2/pUuX1mzbtvGt+7ZaDXfu3CJnTkNCQ0M0eYG/vx93797i4kV3rly5RM6chiQmqnnyxBt9fQMMDY108oCIiHBsbPJRo0ZtnTJra5tUk+/08Pb7CG9ha2tLt27dyJ1bN/n7mBo0aKAMfVZiY2PYvn0T69atZMqUOXTu3AM9PT2uXbvM06dPaNKkhXIVAKZNm8e8eUtTbQGPj49XhjJUTEwM8+dPx8nJGYDff59PxYqVefDgHgAnTx7l+vWrjBgxhnz58rNs2SIWLlyBvr4+S5cuYOHCWVhY5CE4+FVLl4VFHrp2baP1e3BwEK1afaVpnfjUXbniSZUq1QEwNTVlxYoNLFu2iKdPvYmKiuDvv/8kV67c3L59g99+m0fhwkUIDQ3T6YLSuHEzevfuy+nTxzE2NqZ16y9YvXozPj7PqFatxmuv+KrFI7kbxqBBI7T2t+Q7NMoTsZJarebcuVOMHj0Ma+u87N59lEKF7JTVdERGRvLXX7/TpElLypeviI/Pc8aMGU7//oN0bn1aW1szfvwUbGzya8WTXb9+hYULZynDqNVqVqz4g9u3b7Jv30msra01ZTduXGfUKGcKF7bXWicjmJiYMHToqFRb2ZJbDFOyf/9u/v13LRs37qJEiVKauJ/fC/r27UaJEm8fxerixfNcvHiBvn2dyJnTkPXrV+Hp6c6qVRsxMnqVJCXvCz///KtOS1WymJgYRo4c/MYW58TExBS/SKQkd25zfv459bskERERPHmS8rNFefPm4++/NzFp0s90796ef//dScmSZbTqrF+/isqVq6X6ucfFpb3v7/vuk+8jtTuOSkZGxuTOnbb5Oz5U4cL2uLkd1OqCUqlSVUqWLEP37l8TFhbK8uWLuXr1Eu3bd9bcsS1SpDgvX74kKCgAkrrOFC1aHF9fH3x8nmm1hL8uIiKC0NBg8uWzJW9eG8qXr0SJEqUYMeJVC3NKLeA5cujh7+/HgAHf4OX1CAODV6nTn38uxto6L+3adUyql4ODB/dy7dplateup7PfpLdateoyY8ZCZVgj+e6lUvL5u3Hjpri4jEVP7/9fdFeuXMrlyxfJkyf1xhqSGk7+/vtP5s+fTp8+3/Pjj+M05wAlfX0DnJ1HUrx4SUaMGEh0dBS9evXVqnP9+hWuXr1E797fERoazLRpE5g9ewmnTx/n9OkTFC5sx/PnzzA0vEZISDBXr15m1qxFvHjhy969OzV//xEjBuLmdgBTU1P8/PwwNTXF1NSUFi3qaf3u5+fHqFHjUrxbkl4+SnNCeiffAnLmNGTChGmsXbuNBQtmMmRIP3x8nrN06ULatGmfaqJiYmKSavJN0q3i1PpzjRgxUKfF3M7OgooVi3Dz5n/K6h9FcqvC6y0MbdumfLsMYNiwnzh//gbDhv2k+Vn5+7BhPylX+2SFhARz6ZIHkyePpXbt8vzww7ds3ryBuXN/o1SpMpw5c5JTp44RHBzEyZNHefLEG4ASJUri4vKzZmnd+ivCw8OYMGEUxYqVYMmSVSxcuJyYmGi8vb3Il+//yUJwcBA//PAt9vZF6Ndv0Gvv5u13aEhqNfL0dKdDh+b06tWBgAB/Jk+eleo+raRWqzl9+jg+Ps94+tQbJ6feVKxYhe+/H/TGfT+tEhISWLZsEevWrWTJkpWUK1dBq9Xk8eNHlC1bPsMvtu9LrVazd+9Oxo37kdmzF1G3bkOt/4+//0ssLa2oWvXVl7g3CQ4O5ujRg8TGxvL333/yxx/zmT17CQULFlZWxdzcQqfFKXkxNjbGx+c5ZcqUV66mERYWSrt2X9KzpyNubgfS9QE3IyMjJk6czpo1m3W+iFy54smSJXOJikq928iAAV/TqlUDtm/f9MbW7Yx269YN6tWrjINDmTcuX35ZK8MeuMuZ05Bu3Xprzj3Ozi7Y2OTjxIkjzJ8/kxkzFvLXX//i6NiFCxfOYW5u8ca7TP/9d5W1a//fmKD06gHzeMzMcqGvr0++fLb88cd85s2bzrx50/HwOIeFhYXm93nzprNp03py5crNX3/9Q9Wq1dmyZR+nT1/lyy+bM3PmIsqXr8STJ4/Zv38XFhZ5aNjwS4oXL0VoqG63iawm+fxtbm6heX4l+bjMnduCmzf/o3Xr9ql2FYuMjGTjxnXUqVOB2bOnUKVKdYYPH5Nq8p1MpVLRpo0jO3YcpkOH/3d/I+lY/+23ifj6+qTYOt637wBmzFhIrVp1NT/XqFFbWU1j/vxlnD9/g/btO2l+Vv7evn0n5Wrp7qMk4CLj1K5dj/37T5KYmEDt2uV5/vwJffs6fZRE43VqtZo5c37XucW8d+9xChYspNUCmGzp0gU6yXpqy4gRA5WrA7Bnz07GjBnGnj07tX5Oi+T677LOp+b+/bs8f/6MBQv+ZNWqTfj5+fL338uwscnH0KGjmDx5NpUrV2Po0FHMmLGQxo2bJa13T+uCs3v3dhYtmk2ZMuXp23cA58+f5t692/zzz2o6depB2bKvEqVbt27QsWNL8uXLz7hxU5g5cxI9ezpqukqdP3+a58+f0by5dp98tVrN06feLFkyFweH0nz9dWe++qoTR49ewM7u3VqSY2KiiYqKInduc44dO0zr1l8xefLMj3IrMTg4iCFD+vHPP6tZu3YL5ctX1Cr39/dj3bpVdOnS860XnKwgOjqa3377hXHjfmTx4hV8+aX2nbPo6GhWrlxKy5btUuwzrvTihQ+WllaEhARz7dpl/vlnJ5UqVVVWe6vbt2+iUqkoW7aCskgjV67cLF26mrJlyzN8+ADKlSvMlCnjeP78mbLqR2FkZET58pW0zq3Pnj1h2DAnOnfu+cYL/owZC/jqq85Mnz6RcuUKMWLEQO7du51iMvE+UmscSWl5vdWzYsUq3Lnjo3Nef30ZMWIMDg41yZfPVus100tsbAybNq3XnHsWL57HsWNu/P33nyxfvhZf32c8e/aEHTu28Pz5UwYPdkGlUpGQEM/Vq5c4efIoJ08e5cyZk5quIq+bPv1X7JK6wl2/foXw8FCqVKlOrly5AChfviJff91fuZpGlSoODBw4lJw5Xz1/VrBgYS5edOfSJQ/CwkLJn9+WhIQELl26yPTpv3LixBFOnDjCr7+O4erVy8rNZSlXr16iXbsvsbbOy7x5S3UaSc6fP82jRw907rDHx8dx6ZIHI0YMpFy5QqxZs5zff1/F0qVrtOqlRfnyFbW+UMXHxzFt2gTCw8Po1++HFHObv//+kzFjhuHuflbzs4fHeWW1FCXXT14/M0kCng1ZWOShffsu6Onp8/jxIy5duvjRTuzJVCpVin29XrzwxdTUDBMTM2UR33zzPRcv3k7TMmnS/2/vva5x42a4uPxM48bNtH5Oi+LFS9Kw4ZdJrQ8ls02L5McSHx/Ppk3rCA8PxdLSCmtra+zsirB27VYKF7bjm28607ixA0eOHOSbbzpTu3Z5Tp8+Dim0gLdr15GxYyczcOBQbGzy4eq6lVOnjjNmzK/07NlHk9y+un0+mVmzFpMrV25Gj55IhQqV+OKLaixYMJO5c3+jb18nChTQnhE3ISGeRYtmc/bsKWbPXsK1aw/57ruBqbayvElMTAxxcbGYmeXi66/78cMPwz9K8g1gZmZGhw5d2b37qE5LqFqtZtOm9VhZWdGkyauRFbI6Q0NDGjb8kj17jul0zwE4fHgfz58/o1u3//drfZOgoEBy5zanUCE7Fiz4U+czImm/rFKleornE5LKd+3aRsOGX2rdWVGKj0/AxiY/EyZM4+rVhyxbtoYLF87RokU9bt++qaz+0b18+YJhw5ywty/KgAHOKSYGyYyNTfjhh2FcuHCLHTsOERDgT4sWDT7aMJWTJs3UOaemtnzzzffK1VPl7+/HgQO7ad++S6p3Rj+2lFrAmzRpzurVmylevBQGBjkZOXIw9et/wa+/ztD0T09pvfz5db80/Pzzr3h7B3Pnjg8VK1ahZMky9Ov3g1YdH59nBAcHa50DXVx+pkaNOri7v3r2LCoqivHjR3Lw4B5+/nk433zTievXrzB06PcEBPhTp059ypevxKhR4xk1ajxFixbXjDaVVRUoUJBJk2Ywd+4fOncVwsJCWbJkLr16favTvc7X14dx437EyMiYw4fPsm/fSerWbZjqMZ5W8fFxLF48l4MH9zJt2lzN8ydKHTt2w8XlZypVqqr5uWLFyspqKapQoZImTyhdutwbzznpLUsn4AkJCR89sfwUeHq6M2HCKBYvXsGUKXMYMuQ71qxZkSGf1YsXPuTNa5Nia5+pqanOreXUltT6FyZvI7lfVvLPaWFnVwQHh1o4ONTCzu7/Txp/Ll688OXBg3spJkG5cuVm7dqtHDt2kSZNWrB27VbOn7+hScI8PM5rHjr66qsmLFgwk/j4OAICXjJ16ni+/34I9et/weHD+3F3P6t5diBv3nx8+WULzYnXyMiIceOmsHr1ZtasWYG//0u++KKJ1nshqQ/grFmL+eefnTRt2vKDEuY7d161nqZ08f1Q+voGNG/eOsW+yfv372bVqj8ZO3ZymvfRzKZSqWjQoHGK3XuuXPHk119/5scfx+p8YUpJdHQ07u5n3zqKgb6+Pn36fJ/qF+lLlzw4evQwXbv2emNSGxUVoRnRQE9Pjy+/bMGuXUc4ccJTqw97erh16wZdu7bDxMSU339fpdNSqOTr++oOkEqlompVB9au3crFi7c1IxB9qNy5zXXOqaktad03k79QWlvb0LDhl8ridJOc2Cafe3r2dOT+/XuEh4dz8uRRjh07zKZNezh16hgeHuc1DxGm1HLu6+uj3Hyavf7g5esPZCYzMTHh999X6XRx3LbtADY2+bCxyUfp0mXZs2cn//13jXz58lOgQCGt18hqlOfvZMmt0AYGOVMcTrNQITv27z/J9OnzKVmyzBuP27QKDw9j1Chn1q79izVrtrzxTlpydzZjY2PNz0ZGaRsEpFSpspo8IW/evMriDJVpCfiLFy+YOHEirw+BGBwczC+//MKJEydYuXIlM2bMwM3NTWu9z5larebw4f307dsdZ+cfad26PV269GTBguVMnTqBZcsWaZJwtWJyg7ctMTHRypdL0d27tylWrGS6tY4sXDiL2rXLs3DhLK2f0+Kvv37XnDj/+ut3ZfEnr2DBQixa9FeKY1CHhYW+sQU8Ojqazp17smvXEWbOXERcXByXL3syfvwoXrx4QUJCPL17f0fLlm1ZtGg2586dUr6ERmRkJJs3b8DKyhp7+yJ07dqGe/e0hwv7WKKjo1mz5i+aN2+DpeWbHxL6mE6fPs6ECaMYM2biWxPQ7OD+/Ts4O/end+++NG/eSlmcIg+Pc3h5PfygZM3T8wIDBnxNv34/UKFC2lqwXqdSqbC0tEq381FQUCC//PITrVo1oGnTFixf/qov8Pt49T7f/4tmeoqPj2PBgpls3bqRWbMWpTlp/xjUajV6enqsWrWJXbuOUKVKdSIjI/j119GcO3eaoKBAbG0LMHnyLF688GHatAlER0cTH5+Au/tZWrX6CheXn4mKiiAoKFC5+TRr376Tpm9w8qJ8cH/jxnU6XSSXLVtEdPSr5wE6dOjKjh2bmTJlPO3bd063/TI9JbdCnzlzkilTZr33/p5W8fFx7NixmZo1y+Hl9ZDdu4++MfkmqQtW7drlcXXdpvl5715XZbUU/frrGE2ecOTIIWVxhspB0lCCW7duTXW5evXqR29dTUxM5MSJE1rjekdFRbFr1y4MDQ25cuUKxYsX58iRIx/9tbOj8PAwJk4czbBhTsyd+wd9+nyv+dbZqlU7Fi1awblzpzSjf0RGRjJgwNc6D9ektpw69SoR47WhlJRJ+rNnT7h37w4mJib4+fkSFBT4Uf82TZu25Pbt55w/f4Pbt59r/Zw8ecKbKB/C/BxZWOQhKiqKRYtmM3XqBM0FycTEjAUL/mTz5r3Uq/cFCxb8ya5dR7T6sSbfcbC0tEKlUnHjxjVKlSqj9UT8y5d+dOzYjfXrVxEdrful7d6923Tq1IIXL3z5919X1q/fzvTpCyhatLiy6geLjo5m1qzJeHt70b37N8riFHl7P6Z160aaIbaUyzffdCYsLFS5mkZ0dDQLFszku++6M3bsJDp37vFRWn/eV0hIiObLVEpL69aN3thHOiEhgU2b1tO69Rd06dITZ+cf05QkXr16iZ9+GsrXX/fTuT2dFuHhYcyfP4MuXdrg5OSMk9OQj/o5nj59XOezeH1p3NiBCxfOKVeDpGcKLlw4x6BBfalatQSXL19kx45DjB07OcU7fx/qQ/fJD6FWq7l16wYdOrRg167trFixLsUHaNObnp4e1tbWmpbM4OBAAgICtJ4HCQ0NoUSJ0oSHh+Ph8epvp6eXA0tLq3dqAU2Nq+s2nc9e+axS69avkv3Xu0h269ZbMyxikSLFqFixCvr6eqmOkJOeUvo/vL68rTHLx+c5X3/dmV27tvP33xtTvJv6MSQkJPD48SNmz55KjRplGTfuRyZOnM6//+5K8e7c6374YTjXr3tx/vwNHj58qfnZ0/NOmj7z1x/CbNOmvbI4Q+mTNNuki4uLsgyAwMBAypYty6FDh8iTR/c2bHowMDBg9OjRGBkZ0b17d2XxZ+f8+TP079+TokWLs2fPsRTHaG3Vqh0tWrTR3EoyMTFh+fL1mJmZvfWCmjyzYLLg4ECtmcGUHj68x/r1q6hevRazZy/R6Tv2PkaMeHv/35iYGEqV0u7XvWfPTh4/fqSZGOHx40eQNN6phUUe3Nz2c/36VZ31PmX6+vpUq1YjaQxnKwwNjUhMTODmzesEBPgTEODPzZvXiYgI18yEyWufZUCAPzExMdy/f5eRI8dx48Y1zbbXrFlB2bIVCA4O4unTx5QoURq1Ws39+3f4/fcF7Ny5meHDRzNw4DBNspLaZCwf4ty50/z0kzPm5hasWbM5xVb/lOTPX4BFi5ZjY5NPWQRJQ5D9889qnS+WYWGh7N3rysyZk7CwsMTV9YjmQdTMZGpqym+/zdN5ODTZrVs3mDJlHAkJ2sPOxcREc/ToYWbNmkJQUAArV/5L/fqN3poEh4eHMXv2NNatW8n48VPo0yft/YsBHj16wMiRg/HwOE/58hXZvHk3Dg6pP8z4vkqUKM0vv/ymDGtER0ezePEcncT21KljfP31q9EQGjVqyo4dh6hSpfpbP5cP8b775IeIi4tl5cplbNjwN8+ePaVfv4EMG/YTZmavHkzMaEFBgUydOgETExOuXr1MWFgoRYsWI2/e/38mfn6+LFw4iwYNGuPmdoBq1WoSFxfH6dPHefLkMU+eeOPj8xxPT3eePHnMvn2uPHnymISEBPbte9U6WqpUmVSTyuQRMV7n5naAvXv//0B/7tzm5M5trrlW2SQNHZm8f+zfvxsPj3PkzZuPsWNHvNdkTh+iadMWTJkyh9R2119+Ga2ZcCiZWq3m2bMnLFu2iA0b/sbRsQsrVqxPt30hIOAl3bq14+7d2xQvXpLx46fSpo3jW7/cJjc2vG0yxoiICJ0Gu7///hM3t1fdJ/38XuDmth8Ad/ez+Pg8w8rKGnf3sxmeJ7x1JsyZM2dy+PBhXF1d35ogvY2fnx+dOnXi8ePHxMfH8+LFC/Lly6e5TRMfH4+vry/W1tYYGRlhb2/Ptm3btKaE/dSkZSbM5G+L9vZFdfpqZXfJM8d16/Z1qmMEJ7t16warV69gyZKVmJqasnTpAm7dukHLlm2VVbUcOLAHPT09nZPr6z6FmTBJSqz+/XctTZu21LQkRERE4OTUGxMTE6ystEevMTfPw+DBI7hw4Ry7dm3TfJb58xfAzs4eK6u8TJ06nhUrXnXpKViwMJs378HKKq/mi1dwcBA//jgIS0srXFzGpjkZTklwcBAXL7pTuXJVrYuvUnR0NJcueVCtWo23nrg/VEJCAlu2/MOaNcsZMeJnmjTR7TOZVh9zJsz3pVarOXnyKJMnj8PJaQjt23d+p8/w7t3b6OnpUbx4SWXRW6mThowsWLAwRYsWT3NiG500fXrZshU+Sl9/ddKssTlzGmpd19RqNaGhIZiZ5Xqvv3F8fDweHufJmzdvqoleVnHv3m0ePLhPw4ZfvlcjSlpnBXzbTJgRERH8+OMPNGzYBAsLC/T1DahQoTK5c+fmxQtfOnduTUDASwBGjhzHDz8MQ6VSERMTy6BB31K7dj3s7Yuir2+AiYkJe/bsUL6ERosWbTXPIrw+o29yop18jfD19WHQoL48fHiPbt168/PPk7S2o5wN2M3tAGPHjsDCIg/z5/9J8eIlmTVrMqGhIUyfPj/VKdc/5kyY7yt5uNmIiHBGj574Xsd1svv37/Ds2VPq1KmvGTUmJcmNfmmdUMkvaSbcceOmvLXh49Sp45w+fVzztxwxYiA2Nvne2lVw1aplNGnS4o3jgKd1n3+Td5qKvn//V8Pz/PVX6uNqplVUVBRnz56lRIkSBAcHM3DgQJYtW6ZJsP38/OjRowfz58+nfPnyeHl5Ub169XSbYTMrSEsC/ilLvhCamJik+WBMFhERAUmtgG8SERFBQkJ8qg9+8gkl4ClRq9WEhASn6W6ISF9ZIQEX4mNIazLytgT8fX3oee3160dMTDQxMTFvvEa8SfJQqLly5dZ8cVOr1SQmJr7xi1xWSMCzg+Qp5XPnzv3Of+vQ0BAMDQ3fml+Ehoagp6f/xnwirfv8m6R5Kvro6Gh8fHwoWVL3G5GnpyempqaoVKq3Lvb29vj4+GBsbEyTJk2wt7fHxsYGQ0NDbGxssLW1xdbWFhsbG3LmzIm1tTWFChWifv36muT7fV5PZH2qpOnT33ZwpMQ0aaSUtzE1NX3vE+unQKVSYWGR551PXEIIkVV96Hnt9euHoaHRB10jDA2NsLDIo5Vsq1IZyle8Oz09vfd+iDl3bvM05Revdy3KKG9MwKOiovDz80sx269UqRIPHz7k+fPnb108PDw+uBtJRr+eEEIIIYQQ6eGNCXhQUBAREREUKKDbp9PAwIB8+fJpWq/ftNjY2Oh8E0xISMDQ0BB/f39N7MGDByQmJlKokO7YmR/6ekIIIYQQQmQFb0zAnz9/TmJiIvnypf4w1PsqVKgQBw8epGLFV0/vq9VqDh48SPny5bGyyrjxfIUQQgghhMhIOQDy58+v049apVLRoEED7ty5Q+HChdO9b/XevXtZtmwZgwYNypaD1wshhBBCCJEWOQCuXr2q0486pSU9+lYHBATg7OxM165dmTt3LvXr11dW+cSlbRgukf7i47XHSs6K0jhqm8ii0jqWs0qlSnNdITKHGlUaTkivGvSUUSGyn8TExDTt82mVA8i0vtVqtZqLFy/y4MEDLl68yDfffPNR/3PZQeHChbh//44yLDLY8eMHqVChgjKc5eTMmfJ4siJ7uHTpPKVLv3186NKlS+PhcVoZFiLLuHnzWoojpCmVLVuWM2f+P9OyeOXmzasUL15MGU7Ru4zTL9LPrVvX07TPp9VbxwEX6W/y5GnkymWBtfXHvbsg0ubBg7tYW+dhyJBByqIsx9v7CX/8sYwSJcq+dUYwkXUkJCRy69Y16tSpiaNj2qY/3rJlG56elylbtjI53vi0jhAZJzFRzY0bV2jc+AtatWqhLE7RunUb+O+/W1SoUFlZ9Fl68cKX6Ogwxo9/+xjgAM+ePWfx4t8pVqz0Jz0vSlaVkJDIzZtX+fLLRrRs2VxZ/E7eaSKe9BIZGfles299qp48eUJoqPa0yNlFbGws+vr65MimWYKtrS2WlpbKcJZ27949YmNjleFsLzo6+pNs7VGpVBQvXvydvzRFR0fz8OFD6Y7yEXyq+1ZGU6lUlCpV6p2f1QoPD+fx48fKcIZKTEwkPj4+0+8kWlhYULBgQWX4rbLzeT87H3/vu8+nJEsk4HPmzGHkyJHKsMiGtmzZQs2aNbG3t1cWCfFO5Lwg0ovsW8LX1xc3Nzd6987aMx5/iuT4eyXNM2EKIYQQQgghPi5JwIUQQgghhMhAkoALIYQQQgiRgTItAX/Xh5FE1mVgYJBtH8AUWYucF0R6kX1LqFSqTH8A83Mlx5+uTHsIUwghhBBCiM+FPIQphBBCCCFEJpEEXAghhBBCiAwkCbgQQgghhBAZKNMS8Li4OGVIZFPx8fEkJiYqw0K8MzkviPQi+5ZQq9WyH2QS+dx1ZVoCvnDhQmVIZFM7duzgyZMnyrAQ70zOCyK9yL4lXrx4waZNm5RhkQHk+NOVaQm4EEIIIYQQnyNJwIUQQgghhMhAkoALIYQQQgiRgTItAdfT01OGRDaVI0cOVCqVMizEO5Pzgkgvsm8Jkq5XIuPJ8adLZsIUQgghhBAinclMmEIIIYQQQmSST7oFPC4ujhw5cmhufYSGhvL48WNWrlzJkCFDKFGihHKV9+bu7k7u3LkpW7assui93b17l2vXrtGpUyeCgoI4deqUZizNypUrc//+fSIiIgAoXLgwtWrV0qzbp08fOnfuTLt27YiLiyMwMFBnrO6cOXNiaWkp3UeEEEIIIdLZ6y3gn2wCrlarcXZ2hqTxJ/X09PDz82PYsGF88803HDt2jOnTp6NWqzl9+jT+/v7KTWjR19enfv36WFtbK4sgKeEtV64co0ePVhbp8PT0pF+/fuzfvx9bW1tlsUZISAidO3emWbNmDBs2jODgYBITE/njjz+oXr06devWJSEhgWvXrrF7926WLFmiWff1BNzT05OWLVtiaGio6f8WHR1N+fLl2b17N2ZmZq+9qhBCCCGE+NiyRBcUtVqtDGlRq9X06tULlUr1xmXmzJnKVQG4dOkSBw4coEePHvj5+eHj40NsbCzNmzenRIkSTJ8+HT09PWJiYjhz5gyHDh1Kddm6dSvdunVj165dmu0/f/4cHx8fzRIZGUl4eLjm98ePH3/w5DTm5ub89ddfHDhwgJMnT9KgQQNq1KjBmjVrMDMzY/To0VSuXJnvv/+enDlzAmjeQ2RkJEFBQbx48YLY2Fjq1avH7du38fb2xtvbm/3792Nubq58yffytr+lEGkl+5JIL7JvCWQ/yDTyuevKtBbwOXPmMHLkSGVYS58+fWjSpAnNmjVTFgHwxx9/aBLR1yW3HOvr61O4cGFN3MvLi5s3b3Lq1CmKFi2qtU5q1Go1s2fP5syZM2zcuBFjY2NIem9vaj0ODw+nePHiHDp0iDx58miVpbUF/HU+Pj4MGjSIGTNmALB582a8vLzo2rUrlSpVYvv27VStWpWQkBB27NjB4cOHKVmyJGXLlqV+/fps2LCB9evXa96vp6cnU6ZM0Yq9ry1btlCzZk3s7e2VRUK8k7ScF4R4H7JvCV9fX9zc3Ojdu7eySKQzOf5eyRIt4GmVJ08ebG1tU1xSShyjoqL48ccfKVq0KLt27WL58uWapUmTJjRo0EArKU9Jnz59mDlzJmq1mt9//50NGzawaNEiTfKdbM2aNZoWZeUyfvx4SpUqhYWFhdY6yfz8/NiyZQsBAQHKohTlz5+fUaNGcfz4cRYtWkSbNm0YNWoU+/fv58SJExQpUoTKlSvTqlUrli9fTsOGDXF2dmbhwoUUK1ZMuTkhhBBCCJFJsnwC/i58fX3p3r07ISEhzJ49GwMDA02Zn58fmzZtok+fPujr62utlxJbW1t+++03VqxYwa5du96pdTc+Pp6zZ8/SsGHDNz7guG7dOvLmzUvNmjXZvXu35gHLZMuWLcPOzo4GDRrg7e1NSEgIwcHBnDt3TtOS7+npSXx8PKamphgaGmqtT9J7iY+P58yZM5QpUwY7Ozvs7Oxo1aoVISEhyupCCCGEECKdfTIJeGxsLCtWrKBMmTKsXbtWp3/z9u3bMTc3p379+lpxpejoaPz9/cmTJw8//fQTHh4eKSbfVlZWOi3iyZ48ecKDBw+oV6+eskjDxsaGXbt2ERQUxKBBgxgyZAjW1tbs3LlTU6d3797s3r0bgISEhNfWTl1wcDBubm7cvHmTbt26UaZMGU6dOkX79u15+vQpgwcPZty4cfj5+XHs2LEU7yIIIYQQQoj088kk4Dlz5mTChAnMnDlTJzG+cOECs2fPZsaMGW9NOENCQggJCcHOzg4DAwPNw41K8+bNo2nTpsowarWaVatWUaZMGcqUKaMs1mFubs63337Lw4cP2b17N+XLl9eUmZmZYWNjg56eHo8ePdIMOZgSf39/Xrx4waJFi1i/fj0Aq1ev5v79+5QuXVpTr169eri5uREdHf3a2kIIIYQQIqNkWgL+448/KkPp4tatW/Ts2ZMBAwZQs2ZNZbGOw4cPkzt3bkqVKqUseiu1Ws2aNWvYtGkT06ZNS1NXl2R6eno0bNiQkiVLKou0WFhYUKpUKeLj4zEwMKBUqVJaTxf/8ssvrF69mnLlymm+iFy/fp0aNWoAULFiRcLCwrhx44ZmnQ/VuXPnFO8SCPGuMuq8ID4/sm+J/Pnz06tXL2VYZAA5/nRlWgL+pr7Rr1u8eDFOTk4pLlu2bFFW11Cr1ezZs4dGjRoxfPhwRo0a9dbXPHv2LKNGjWLEiBE6rehvExAQwODBg/npp5/4559/PtqDj+Hh4YSEhJA3b15CQ0NZuHAhvXv3pk+fPnz99dc0bdqUOXPmYG5uToECBZSrExISwrFjx6hUqRIktbg7Ojoya9YsnT7n7+ttn6sQaSX7kkgvsm8JZD/INPK568q0BPxtkvtiV61alebNm6e4vN61IllcXBxnzpyhVq1aDB8+nM2bNzNkyJA3/vFDQ0MZNmwYTZs2ZdGiRSl2LUnNuXPnqFWrFjY2NkRFRXHt2jUcHByU1d6Lh4cHnTp1okOHDvTv35+7d++yc+dOWrRogUqlQk9Pjx49erBv3z4SEhIIDQ1VboIDBw6QO3duqlSpoon16NGDwMBARo8eTVRUlFZ9IYQQQgiRvjJtHPD0cuPGDUaMGEHv3r3p0qVLmluyb968qRny8F3ExcXh7u5O2bJlsbKyUhanKDAwEE9PT+rXr//G97d27VqsrKxo06YNAQEBrF+/nn///Zfnz58rq5IrVy7++ecf/Pz8GDRoEHFxcWzYsIG//vqLH374Qaf7ja+vL/369aNcuXIcOnQIZ2dnevXq9cb3I4QQQggh3s9nMRW9SJvIyEg6d+7M5cuXyZ07N40bN2bYsGGULVtWWVUIIYQQQrynLDERz4IFC5QhkQlMTEzYvn07FStWJDo6GldXVzp16qSZPTMto6Vs374db29vZViIdybnBZFeZN8SL1684J9//lGGRQaQ409XprWAT5w4kQEDBijDIpPExMRohkOMj4+HpGEQjY2Nadq0KQMHDqRUqVJcvnxZuSpHjhyhXLlyKXbfqVq1qjIkRKpkumKRXmTfEjIVfeaR4++VLNEFpXbt2sTGxirDIhPFxcXh7++vDJMjRw4SExMZOHAgbm5uKdZJyRdffMGyZcuUYSFSJSdpkV5k3xKSgGceOf5eyRIJuPwxspbHjx/TsmVLwsPDNS3gJiYmGBgY0KNHD7755huKFi1KgwYNGD58OJ06dVJuQouLiwuRkZGSgIt3IucFkV5k3xKSgGceOf5eyRJ9wEXW8eDBA1q2bElYWBgAxsbGNGzYkJUrV3Lz5k0mTpxI0aJFlasJIYQQQoj3kGkt4HFxcRgYGCjDIoPdv3+ftm3bEhISQqFChfj+++/p3r07uXPnVlYFkBZwka7kvCDSi+xbQq1Wa2aRFhlLjr9XskQLuPwhsobAwECaNWvGiRMn8PDwwMnJKdXkW4j0JucFkV5k3xIqlUr2g0win7uuTEvARdZQs2ZNFi9eTKlSpZRFQgghhBAiHUgCLoQQQgghRAaSBFwIIYQQQogMlGkJ+OLFi5UhIcRnTs4LIr3IviX8/PzYvHmzMiwygBx/ujItAY+JiVGGhBCfOTkviPQi+5ZITEyUCQAziRx/ujItARdCCCGEEOJzJAm4EEIIIYQQGUgScCGEEEIIITJQpiXggwYNUoaEEJ85OS+I9CL7lrCxsaFz587KsMgAcvzpyrQE3MTERBkSQnzm5Lwg0ovsWyJHjhwYGRkpwyIDyPGnK9MScCEA4uPj6d+/Px4eHlrx6OhoZs+ejZOTE05OTsyePZvnz5/j6urK1q1btRZXV1cCAwO11k/24sULEhISNL9fvnyZ06dPM2jQIKKiorTqvkl8fLwylCni4uK0/j+hoaFcv36d4cOHc//+fa26r5s5cyYzZ85UhoUQQgiRCVT29vZqLy8vZVyIFDVo0IDhw4fTqVMnZZEWFxcXIiMjWbZsGW5ubnz77bf4+vpiaWmJkZER1apVw8bGhoiICA4dOkTz5s0xNTUFoEOHDrRs2ZLAwEDNkFE5c+YE4PTp0/j5+bF8+XIGDx6Mvr4+K1asYNmyZZQtW1brPQQEBNC+fXtcXFzo2LEjAKdOncLV1ZVixYpRsGBB2rdvr7VOSvbu3cvIkSPZtm0b5cqVAyAqKorjx48TERGhrK7F2NiYRo0aaf5vH0KtVuPs7AzAwoUL0dPTw8/Pj2HDhvHNN99w7Ngxpk+fzs2bN+nVqxfBwcGadZO/oFhaWmpiAKtWraJp06aQlKSPGTNGq1zpm2++Yc2aNcqwEEIIId6iSJEimp8lARfv5H0ScAB/f3/69OnDX3/9ha2tLUOGDKFdu3bs3r2bvHnz0qFDBxITE9m2bRtmZmaYm5vz22+/abZnYWHBhAkTWL9+PeXKlePZs2esWrWK6OhoBg8ezIwZM7C1tX3tHcDcuXP5888/mTBhAsbGxpD0Ph4+fMivv/761ltiarWarVu3MnDgQJYtW0bnzp1RqVSQlNxPnTr1jQm4j48Px44dw9XVlSZNmqBWq+nduzf//POPsqqWGTNmMHr0aGUYT09PunXrxpo1ayhWrBgACQkJHD58mPr161OsWDH09PSUq0FScg2kuF0hhBBCpL8skYAvW7aMgQMHKsMii3vfBPzq1atMnTqV1atXY2pqyj///EPu3LmZO3cu69atY9WqVZQqVQpzc3MAWrVqpdjiK/7+/nTt2hVvb28WLlxIlSpV6NWrF//++69WAn7hwgV69+7NsGHDyJcvnya+efNm4uLi2Lx5MwYGBpq4UmhoKOPGjWPPnj1s3ryZGjVqKKu8UVxcHIMHD8bExIT58+drEvc+ffrQpEkTmjVrplwFgD/++AMzMzOdRDkkJITOnTujr69P4cKFNXEvLy9u3rzJqVOnKFq0qCbu4uLC1q1bNb+n1AJet25dVq5c+VFa5z8WOS+I9CL7lnj58iWnTp3S3BEVGUeOv1deT8AzrQ94eHi4MiQ+YQ8ePCBfvnyEhobi5+dHy5YtWbBgAWfOnKF27dpMnjyZoUOHMnr0aAoVKoSfnx8NGjTAzs4OOzs7unfvTkREBJcuXcLU1JSdO3fy5MkTwsLCsLW1JVeuXJrXun//Pt9//z3Tp09n8ODBdO7cmc6dO9OmTRvCw8Pp1q1bqsl3XFwcGzZsoHDhwpw+fRp3d/c0Jd/h4eE0atSI3bt3ExcXx88//8yjR4+YNGmSJvlOlidPHmxtbVNczMzMtOqS1N3lxx9/pGjRouzatYvly5drliZNmtCgQQOtpBxg3rx5eHt7a5YJEyYwYcIErdjGjRs1ybeLi4vms37bkvy3SA9yXhDpRfYtkZCQQGRkpDIsMoAcf7oyLQEXnw+1Ws3u3bs5f/48Y8eOpX79+tSsWZNz585x7tw5PDw86NWrFw8fPuTatWtUrFgRKysrtm3bhru7O+7u7ixatIjVq1fzyy+/MGfOHAoUKMDBgwc1SXpy4urh4UHr1q0ZMWIEJUqUwNXVVfPQ4unTp/Hx8aFx48aKd/iqS8msWbMoVKgQS5YsYfTo0Zibm7+1m8rrTExMyJkzJwMGDODGjRts3bpV06L/vnx9fenevTshISHMnj1b64uDn58fmzZtok+fPujr62viffr0QaVSaS1jxoxhzJgxOvE+ffoA8Msvv2g+6+SlT58+9OnTRyf++++/v9PnIoQQQghtkoCLdPfgwQMOHjxIly5dWLx4MbVq1WLVqlXUqVOHqVOnMnLkSE6ePImzszNjxowhODiYsLAw5s2bx8SJE5k4cSJr1qyha9euHDt2jPv379OqVSuGDx/Oy5cvNf2bAwICmDt3LsuWLePbb7/FwMCAadOm0aJFC/777z9mzZrFgAEDtLqkxMbG8t1335EvXz5u3LjBsWPHOHv2LBUrVnztf/B20dHRhIaGYm1tzbJly9i1a9cHJ9+xsbGsWLGCMmXKsHbtWp3tbd++HXNzc+rXr68VX7NmDWq1GrVazaNHj2jQoAHTpk2jT58+nDp1CrVaTWxsLDt37mT+/PmQ1Mfe1taWu3fv4u/vr2mNNzMzw9bWlsjISJ49e4atrS1WVlY6rfpCCCGESDtJwEW6++uvvzQPDZI0FqutrS3GxsYMHDiQn376CQcHB8aNG4eLi4tWd5LX5cqVCwMDA6ytrVm9ejVTpkzh7NmzmpFSrKys2LhxI19++SUA5cqV48SJEzRt2pTKlSsTHR1Nr169tLaZM2dOZs6cSXh4OGvWrKFcuXLvlVz6+voSHx9PoUKFyJkzZ6pdXN5Fzpw5mTBhAjNnztQ8RJrswoULzJ49mxkzZqTYbeXJkyf88MMPlClThh9//JGxY8fSvXt3li5dyoMHD+jevTtHjhzB0NBQs46fnx9jxoxJ8VahWq1m4MCB3LhxQ1kkhBBCiHeUaQn4999/rwyJT9TIkSNTnAUrJiaGZcuWMWvWLC5evMi0adOYN28eYWFhREVFcfXqVRo2bEiNGjVwd3fHw8ODoUOH8scff2BhYcHBgwcJCwujf//+xMXFKTcPSUmsWq3GysqKO3fuMHToUJ3+y3nz5v2gyRnUajWbNm3CwcEBGxsbZfFHd+vWLXr27MmAAQOoWbOmVllQUBCOjo44ODhQunRpGjRoQKFChQD44osviIyMpGXLlgwePJiFCxdq+oCr1WpWrlxJ+fLlU+zzXqJECfr378/kyZNT/aw/BjkviPQi+5bImzcvjo6OyrDIAHL86cq0BFx5O118uqytrcmVKxfXrl1j586d+Pn5AWBoaPjGFnAbGxscHR1p27Ytpqam/Pfff1rdR9RqNeXKlSMiIoLjx49r4skCAwPp0aMHGzdu5OzZs3h4eNCyZcuP2n9ZrVazefNm1qxZww8//JCm1vPFixdrJhhSLlu2bFFW11Cr1ezZs4dGjRoxfPhwRo0apfN6efLkYd26dTx//pz+/ftrjXASGxvLoEGDUKlUJCYmaq27fft2Nm7cyIQJE7T6k7+uS5cuPHv2jCNHjiiLPho5L4j0IvuW0NPTS/GOoUh/cvzpyrQEXHyejIyMGDp0KBYWFiQkJHDlyhUuXLiAr68v58+f5+TJk9y9exeA27dv4+zszMiRI7lz5w5btmyhWbNmJCYmkpCQQFRUFOPHj6dZs2bs3btX8xrJD1QWL14ca2trTp06RYkSJbC3t6dbt246Sev78vHxoVOnTjg7O7Np0ybKly+vrKIlOjoaf39/qlatSvPmzVNcSpcurVyNuLg4zpw5Q61atRg+fDibN29myJAhqf4/cuXKhZ6eHsHBwQQFBTFy5EhsbW2pVasWMTExbN68me+//x5nZ2cCAgKIiYnhxo0brFy5Ent7e+XmNKysrBg+fDg+Pj7KIiGEEEK8g0wbB1xkT+87DvizZ88IDQ3VzFYZHh5O165d+eKLLyhevLjWuuXLl8fCwoIRI0YwdepUTE1NMTAwIC4uDmtrawYMGMDff/8NwODBg5kzZw76+vro6+uTkJDAggULOH/+PFOnTk0xoU2LW7du8eLFC+rXr59qi7BarebSpUuULFmS3LlzK4s/mhs3bjBixAh69+5Nly5ddPqDp+S3335j+fLltG/fnm7dulGtWjWtbjahoaGMHz+ee/fusX79eqysrCDp/zRmzBhmzZpFjhw5WLVqlWaklLfZtm0bPj4+9OzZU2fGTSGEEOJzlyUm4hHZ0/sm4OLTN2/ePGbPnk2OHDlo2bIl33//PbVr11ZWE0IIIT5LWWIinr/++ksZEkJkYy4uLgwZMgSA/fv306NHD6pVq8bSpUsJDQ1VVk+RnBdEepF9S7x8+RJXV1dlWGQAOf50ZVoCHhwcrAwJIbK5cePG4eTkhJGREdHR0fj4+DBr1iwqVKhAv379OH/+vHIVLXJeEOlF9i2RkJBAWFiYMiwygBx/ujKtC8qcOXMYOXKkMiyyuAYNGlCqVCmtWFRUlObBydepVCqdYfLE5+HGjRvcv39fMwspSfuDkZERVlZWjB07VjMJ0OvCw8NTHKXAxcVFhg8TH0SuOcLX1xc3Nzd69+6tLBLpTI6/V7JEH3D5Y2RPP//8szLEzZs3IWmEE6Vu3bopQ+ITFx8fz7x583j27Bnx8fGQNOSkpaUl+fPnZ8CAAbRu3ZoKFSowffp05eo6Zs+ezejRoyUBFx9ErjlCEvDMI8ffK5KAi49qy5Yt1KxZ841D2InPQ3R0NO3bt+fmzZvEx8drxm3/6quv6Nevn9Y+Urp0aQ4ePKh1QkpJnTp1JAEXH0yuOUIS8Mwjx98rWSIBDwgI0Ax9JrK30NBQTExMUh2uT3weoqKiaN++PTdu3MDGxgZbW1ucnJxo06YNBgYGyuqSgIsMJdccER8fT2RkZLoOGytSJsffK1liFBT5Q3w6cufOLcm34Ndff+X+/fv06dOHrVu3sm/fPhwdHVNMvoXIaHLNEfr6+pJ8ZxI5/nRlWgIuhPi0jB49mjt37vDbb7/pTK4khBBCiP+TBFwI8VFYWlpKa7cQQgiRBpKACyGEEEIIkYEyLQFfs2aNMiSyqUOHDuHj46MMCyFEliHXHOHv78+ePXuUYZEB5PjTlWkJ+MuXL5UhkU2FhIQQGxurDAshRJYh1xwRHx8vMzJmEjn+dGVaAi6EEEIIIcTnSBJwIYQQQgghMpAk4EIIIYQQQmSgTEvAv/76a2VIZFNNmzbF1tZWGRZCiCxDrjnCysqK1q1bK8MiA8jxpyvTEvB8+fIpQyKbypMnDzlz5lSGhRAiy5BrjjAwMMDS0lIZFhlAjj9dKnt7e3VsbCwvXrxQlmU7Mh26ENmHWq3Gzs7urZP3eHl5kZCQgEqlUhYJIYQQWY65uTl+fn7KMEWKFNH8rLK3t1ebmJhk6yFioqOjCQ8Px9bWVpJwIbKJoKAgvvjiC0xNTZVFWtzc3NDT08PIyEhZJIQQQmQpgYGBmJiYpC0Bv3r1KomJiVqVspMNGzbg7OzMw4cPKVq0qLJYCJEFlS5dmoMHD2qdkFJSp04dRo8ejaOjo7JICCGEyFLMzMzSlIBnWh9w8ek4cuQIvr6+yrAQQmQZGzZsUIbEZyYgIIADBw4owyIDyPGn650TcE9PT3bt2iVTj7+jO3fucPfuXWU4S3F3d8fd3V0Z1hIQEEBERIRWLDAwkJiYGK2YEEJkJXLNEnFxcfj7+yvDIgPI8afrnRPwlStX8u2333L16lUAIiIiePnyJQkJCcqq2Yqbmxt2dnZUqlSJ69evK4vfydatW/nhhx94+vQpkZGRfP3112zcuJEhQ4YQEBBAdHQ0Pj4+b1yio6OVmwVg5syZWFlZcevWLWWRlmPHjlGkSBHc3NyURRru7u5s3bpVs4waNYpRo0ZpxY4fP058fDwAV65coWrVqjg7O+Ph4UGlSpWws7Pjhx9+oE6dOprP7vr165qyN72+EEIIIcTn6J0TcKVRo0bRpEmTbP+tMioqimLFinH27FkqVqwIwNy5c7Gzs0t1cXFxUW4GPz8/fv31Vzw9PYmKiiIkJISWLVsSFRXF2rVrsbS05PDhwxQoUOCNS6NGjQgMDCQhIQE/Pz9NYh4eHo6RkRGxsbH4+Pjw4sUL4uLilG+D3Llz8/LlS6KiopRFGn/88Qc9e/bExcUFFxcXvLy88PLy0vzes2dPfv31V6Kjozl69CjNmjWjefPm/P777+TNm5fGjRvTsmVLqlSpQqNGjWjcuDG5cuWiYsWKnD17lmLFir3x9YUQQgghPkcpJuAJCQncvXuXXbt2sXfv3hSHKFSr1bx8+ZKgoCDCwsI4ePAgp0+f1rSWfgri4+OJioqiSZMmtGzZUrM0adKEqKgoAgICtOrHxcUxfvx4bty4gYeHB6VKlaJAgQL07t2bixcvYmpqikqlolmzZjx//jzFZcmSJejr6zNixAgsLS2JjIykU6dOmsR86tSpPH/+nCpVqlCgQAHy589Phw4diIyM1HovaVW7dm3mzZvHvHnzKFKkCEWKFNH8Xrt2bUj6W3t6evLtt9/Ss2dPmjdvTkxMDAsXLmT58uUMGDCA6dOns3Dhwrc+UCeEEEII8bnTScCDgoJo164dtWvX5ttvv+Xrr7+mdu3aXLp0SateTEwM3333HQcPHiQkJIThw4czc+bMTOkLnDw+cHqME1y+fHkWL17M8uXLNcvixYspX768Vr2EhATmzJnDX3/9xcyZM0lMTEStVnPq1Cn09fVxdHQkV65cABgZGWFra6uZPbJ27dqsXbuWGzduMH78ePr27UvHjh0h6f+kp6fH+PHjdZJ1T09P8ufPT7FixTAxMdF6P8lmz57Nli1bdPptA6xZswYHBwdNi/f58+c5f/685vcCBQqwd+9ecuXKxahRoxgyZAgDBw6kbNmyHDlyBCcnJ5ycnNi9ezeTJ0/GycmJ/fv3K19GCCEyXY8ePZQh8ZmxsrKiefPmyrDIAHL86dJJwPPkycN3333H/v378fHxYcWKFYSGhrJ69WqteoaGhixduhQHBwfy58/PyZMnWbNmTaqJYHoJCAhgyZIl5MqVC3Nzc2VxhoiIiKB///6MGzeO2bNnM2rUKFQqFWq1mo0bN5IvXz7atGmjXE3Ly5cvWbp0KW3btmX+/Pk6k5OYmZlpkvbkJTAwED8/P5o2bapV93WnT5+ma9eumJmZ0apVK9zd3VGr1ZryZs2aaVr2CxYsSMGCBTW/N2vWTDNG8+PHj2nTpg3Pnj1jwIABGBoaarZx8+ZN1q9fn2KSL4QQWUHBggWVIfGZMTAwwMbGRhkWGUCOP106CThAp06dsLW15d9//2Xnzp0APHr0SCvBUqlU5MmTB0NDQ/T19cmbNy+Wlpbp0gqdmoCAAFq3bs3z5885efIkefLkUVbJECYmJrRs2ZItW7bg4uKi+QxOnz7NihUr6Nu3b6pdM6KiooiNjaVkyZJs3ryZtWvXak1MkpiYSIMGDahUqZLWevHx8WzcuBFbW1tNn/WU7Ny5kxs3bvDNN99w6NAh5s6dq9VNqEiRIjRv3pxmzZpha2tL0aJFad68Oc2bN6dChQoAREZGMnjwYG7evImenh4A/fr109wR6NKlC/nz52fOnDm0atVKs20hhBBCCKFLJwGPi4tj5MiRVK1alT/++CPFB/yygoCAAFq1asWLFy84ceIEVapUUVbJMCqVim7dutGpUydN8n3r1i2+/fZbSpYsibOzc6pfTM6ePUtISAiVKlVCT09Pp17u3LmZMmWKVmKrVqtZv349f//9N87Ozm+cfEilUlGuXDnWrFmDn58fCxcuxMDAgIiICLp3706LFi1wcXFhxIgRuLu7c+HCBU0XlC5dutC9e3fUajUrVqxg7969WFhYKF9CCCGEEEK8A50E/OzZs6xevRpnZ2fc3d0ZM2bMW6eATkhIyNBhCJOTbz8/v3RPvk+dOkWZMmW0Rj8pU6YMp06dUlaFpOT48OHDNGzYEIAtW7akesvrypUrjB07liZNmqT5/xAQEMDQoUPp27cvzZs3Z+DAgcoqqbKystL0OzcxMeH333/H3d2dI0eOUKFCBYyNjYmNjaVTp06cPXsWd3d3fv/9d0xMTLC1tU31/yGEEEIIIdJOJwFPdu7cObZu3cr06dO1hpLLnTs3JCXqarUaS0tLfHx8WLRoUYaMgvLy5Utat26dIcn3zZs3sbS01Oonndw32tLSUqtuVFQUW7dupVq1ajRv3pzKlStz5swZypYtq1WPpC8sCxYsoGbNmhgZGbFkyRKMjY2V1bRERkbSs2dPrK2tWbJkCc7OzmzduvW9+70nJiYSHBzM33//jYODA48fP8bDw4MDBw6wfv16WrZsyb59+4iKiiIxMVG5OgC+vr5s374dNzc3VCoVOXKkujsJIUSm2rRpkzIkPjOBgYEcPnxYGRYZQI4/XToZk4ODA02aNMHDw4MBAwZgbW2t1ce4VatWGBgYsHnzZvz9/Rk+fDhWVlYsX76cwYMH8/LlS63tfUwvX76kRYsWGdbtZOHChdy+fZtVq1ZpjYKyatUqbt++zcKFCzV1jYyMUKvVqNVqNm3axMGDB8mfP7/W9pLp6ekxYMAA/vnnHy5evIi9vb2yig4TExNmzZrFsmXLeP78OYsWLdLqK66UP39+1qxZQ7Vq1ZRFAOTIkYPt27ezfv16/vzzT65du0bZsmX58ssvuXbtGi1atGDs2LH8+eefqSbW+vr6TJgwgVOnTtG+fXusrKyUVYQQIkt48uSJMiQ+M7GxsSkOqyzSnxx/ulT29vbqq1evarVyqtVqgoKCMDQ0TDHJi4iIICYmhjx58qBSqYiLiyM4OJjcuXNrjY7xMSUn34GBgemSfLu5ufHdd99hYWHBhg0b3vhgo9C2ZcsWatasqfkicf36dXr16kVwcDCrVq164ygt4vNVunRpDh48mOoDysnq1KnD6NGjcXR0VBYJkWZz5sxh5MiRyrD4jPj6+uLm5kbv3r2VRSKdfU7Hn5mZGSYmJvj5+SmLtK53KTZtqlQqLC0tU0y+AUxNTbVGPDEwMCBv3rzZNvkGaNq0Kd7e3ly7dk2S7w9UsWJFrl27hre3tyTfQgghhBAKKSbgWUlGJN9CCCGEEEJkFJW9vb26f//+hIeHK8uyhC1bthAYGMjRo0epWrWqslhkAb6+vlhYWLx1tBwhXiddUERG8vLyeuu+Jj5tsbGxBAQEaEYDExnnczr+0toFRWVvb6+Ojo7Osg8m5MqVixMnTkjyLcQnRhJwIYQQn5q0JuA5SGrBTB7BI6stoaGhknwLIYQQQohPRpbvAy6EEEIIIcSnRBJwIYQQQgghMlCmJeDbt29XhkQ2derUqRT7OgkhRFYh1xwRFBTEsWPHlGGRAeT405VpCfjDhw+VIZFN+fr6EhUVpQwLIUSWIdccERMTw7Nnz5RhkQHk+NOVaQm4EEIIIYQQn6NsmYB7enqSN29eChUqhJ2dHQ0aNMi2XSDc3d25deuWMpyiW7ducffuXdRqtbIoXWXFz9vX15d169YRFxdHVFQU+/fvZ+vWrWzdupVr165x/Phxze/Hjx8nPj5es+7MmTOZOXMmAAkJCfj5+eHj46O1+Pn5kZCQ8NorCiGEEEJ8HNkyAQeoV68et2/fxtvbm1OnTmFjYwPA7t276dy5s1bCBRAeHk67du3w8PDQiqvVagICAoiOjtaKZ5Tjx49z6dIlZThFu3btYsmSJahUKmWRjpkzZzJu3DhlGB8fHxo2bMjTp0+VRW+U2uetVqu5d+8eP/74Iw4ODkycOBEfHx+tda9cucLs2bO1PuNr164xZsyYd34fyaysrDh16hSDBw9GpVJRvXp16tWrR2RkJPv27aNixYrUq1ePkiVLsmLFilT/vn5+ftSpU4fq1atTq1YtatWqRfXq1alTp06mf8kQQgghxKcp0xLw9JpU4+bNm9SoUQN9fX1lEXp6euTIof1fjoiIoFOnThw+fFgrTlLr6Lp169i/f7+y6L0tWLCAQoUK0bRpU5ycnFi2bBkzZ87Ezs6OAgUKULx4ca0ENjg4mPDwcIKDg7l69SoWFhasXLmSGTNmEBERobXt1928eZPatWsrwwDkyJEDPT09ZfidqdVqZs+ezcyZM3FwcGDMmDE8f/6cSpUqceHCBU29J0+esHfvXs2XosePH/P1119To0YNChUq9NoW087AwIDZs2fj5+fHnj176NmzJ9WrV2f8+PFYWFjw119/Ub58edq1a0dCQgIqlYro6Gh8fHwIDw8nPDwcHx8foqOjKVy4MJ6ennh7e+Pt7Y2npyeFCxdWvqQQIhtLr2uOyD7y5MnDF198oQyLDCDHn65MS8BLlCihDH0UN2/epFy5cpDUvaNfv344OTnh7OyMh4cHHTt2pECBAsydO1e5qg49PT1KlSrFxIkTefLkibIYkrqFvMtDHcOHD+e///5j3bp1TJo0CQcHB0aOHMnFixd58uQJDx480Jomd/LkyZQrV45y5cqxceNGjh07xp07d3BwcMDQ0FBr28nCw8MJCQmhQIECAGzduhUnJyecnJwYOXIkly9fpkGDBtjY2LB3717l6ml2/vx5FixYwKFDhxgzZgydO3dm+fLluLi4MHToUEJCQpSrEBISQv/+/enVqxcdO3ZUFr/T52lubs7OnTtp2bIlVlZW7Ny5kzNnzuDr68vLly9ZsGAB7u7udO3ald27d3P79m0mTpzI/v372b9/PxMnTkxz9x8hRPaWXtcckX0YGhpK40omkeNPV6Yl4OkhIiKC8PBwTeJZoUIFunXrRvPmzWnSpAmFChVi+fLlXL9+HRcXFwCMjIywtrZWbOn/qlevTvHixXF1dVUWQVK3kLR2IQGIjIwkV65c2NraYmtri4mJCXny5MHGxoawsDCePn1KXFycpv68efPw9vbm9OnT1K9fn61btzJt2jRUKhU7d+7U9HO+fv26Zh3l59C4cWPatWtH8+bNadSoEcWKFWPbtm3cvXuXNm3aaNZ7V3v27KFu3bpUr15dE1OpVHTr1g0fHx+d7j4xMTGMGjWKokWLMmLEiBS70rzr50nStK/jx4/nzp07TJkyhQYNGjBixAiuXr2Km5sbOXLkoGnTplSpUoXly5fTpUsXunTpwvLly2WWVSGEEEJkuE8qAY+NjUWtVpMvXz4ATE1Nad68OZ07d8bR0RFbW1usra2xsrLSJH/6+vqYmpoqtvR/+vr69OjRg23bthEeHq4sfmdr167F3NwclUqFSqVi7dq1fPXVV+TMmZNKlSrRt29fQkNDlavx33//kT9/fqysrIiIiODw4cMcOnRIs7w+tmlERASWlpaYmZlBUn/pdu3a0blzZ9q2bYu5uTk2NjZYWFi89grv7unTpyl297GxsaFo0aK8ePFCE0tMTGT+/PmsWLGC4sWLY2BgoLXOu3Jzc8POzo5KlSpx+fJlTT/+kydP8vDhQ44dO8aFCxeIjo7G0NAwxb9xQkICcXFxPHnyhOrVq2NnZ4ednR3Vq1dP9Y6HEEIIIcSH+qQS8OjoaAIDA1Ps36yvr4+xsTGJiYnKIgwMDHj+/LkyrFG9enWioqI+SlI2cOBAwsPDUavVqNVqZsyYwbJly4iNjcXb25vDhw9jZWWltY5arebQoUM0adIEfX19LCwsmDFjBsuXL9csQ4cO1dQPCgoiNjY2xRZmAwMDjI2NP3iEj4SEhFQfbEz2egJ++vRp/vjjD837vnHjhlbdd1W/fn2OHj1KwYIFiYmJURanKDw8nAsXLnD27Fl++eUXrK2t2bZtG9WqVePu3bssWbKEjh078vz5c52uQEIIIYQQH0umJeC7du1Shj6abdu2cebMGQACAgLYvXs3e/bs4dmzZ/j6+iqrU65cOa2E8Pr16zx+/Fjzu5WVFVZWVty/f18T+xBxcXF4e3tz4sQJgoKCCA4OVlbR4ufnh6enJw4ODpD0YObbkl+AJUuWaN7zkydP2LlzJwcOHCAoKEgrOX4fenp65MqVi3v37nHu3DlevnypKYuOjsbf35+yZctqYubm5uzZs4cff/yR5s2bM3/+fJ2Rat6FkZER+fPnx9DQkBcvXuDv76+sohEREYGXlxc7duxg1qxZxMXFMX78eAIDA2nYsCGJiYmoVCoqVKjAzZs337gtIUT2lJ7XHJE9BAcHc/LkSWVYZAA5/nRlWgJ+9+5dZSjNihYtyqhRozAyMlIWERsby9mzZylSpAhubm60adMGPz8/YmJiCAgIoF+/fvz7779aLcCVKlXiypUrhISEoFar+fPPP9m9e7em3MjIiJIlS/Lo0SNN7H1dvHiRUqVK8eOPP7Jhwwbc3NwYO3YsnTt35s6dO8rqAFy+fJlcuXJRunRpIiIi6Nev31tbkP39/Xn48CH58+dnxYoV9OvXT9M33Nvbm969e3P06NE0jSme2ufdtGlTzp07x40bN4iMjNTEL168SFRUFGXKlNHEKleuTKVKldDX1+fHH3/k2LFjH31KYCMjI6pUqUJcXJzmAdrXR735+uuv2bp1K1988QU5c+ZEpVLx+PFjChYsiKmpKXZ2dtja2soJWohP0Idcc8SnITo6Gm9vb2VYZAA5/nRlWgL+ISwtLalXr55O32MzMzP09PQwNDSkQIECbN26lZ9++ol+/frRrVs3ypYtyy+//MKqVasYNmyYpgW2Ro0axMfHs2TJEo4cOcLJkyd1Hk6cM2eOVjeP97Vs2TLmzp3Lli1bNA8ETpo0iQ4dOlC3bl1GjRqlNa17fHw8a9as4auvvsLMzAy1Wk1UVFSK/cST5cuXDy8vL4oXL06OHDk4dOgQ06ZNo1evXnTr1o3y5cszcuRIhg4dysKFC5Wr60jt827VqhW2trasWbNG0z/+2rVrDBkyhAEDBlCkSBGt+slKlCiBk5MT06ZN+6B+9clfqkxNTTEwMGDRokXUrVuXAQMG0L17d3r16sXvv/9OeHg4pUqVUq5OfHw8W7dupW7dupDUTal3794sWLCAgIAAZXUhhBBCiI8iWybgqTE2NiZfvnw0bdoUlUpF69at+eGHH+jTpw/du3fnv//+o127dmzdupUBAwZoEkpzc3MWLVrEggULaNGiBRMnTqRo0aJa21Ymn+/LwcGBqVOnsmHDBjZs2MCmTZuwtbWlV69e3Lt3TzMzY7Lbt29z+fJlGjVqBElfMtq3b0+bNm0oUKCA5sHB1q1ba5JZU1NTihcvTr169TAxMaF27dp06dKFfv360bNnT2JjY+ncuTNubm60a9dO81rvytzcnPXr1xMbG0vFihXR19fHwcGBAQMGpDrKSbL+/fsTHR3N+vXrlUVp4uXlhaOjI7Vq1WLq1KkcOHCAP//8EycnJ/T09FCpVHz55ZccP34cKyurFBNqT09Pnjx5wpdffqmJNWrUiDJlyuDk5ERgYKBWfSGEEEKIj0Flb2+v9vLyUsbT3Zw5cxg5cqQy/MGuX7+OpaUlBQsWhKQ+4GfPngWgbt26Og84vi4uLo7Y2NgUR8x4nYuLC1u3bgUgMDCQf//9N82JrFqt5tKlS2zatInw8HDatGlDy5YtU3xwlKRxs+/fv0/lypW1vgTExcURGBioeag0V65cmlFP1Go1Fy9epHjx4lhaWkJSH3BPT09MTEyoV6/eW/+P72LLli2UL18eKysrLC0t33mEk/f5PI8dO8bdu3dxcnIiMjKSHTt2sHr16lRvcy1fvhw7Ozt69uyJn58fv//+O+fOnaN27do645FHRETg7OxMqVKlGDVqVKp/G6FtzZo1hIWF0bNnT81+9yalS5fm4MGDqd4pSVanTh1Gjx4tEzmID5Je1xyRffj6+uLm5kbv3r2VRSKdfU7Hn5mZGSYmJinOpv369S7TEvBbt25pPaSXnQQHB2t1E8mTJ49O/+jPibe3N1ZWVu+d1Mvn+Wk4fvw4vXr1AqBly5Z8//33qc7GiiTgIoNl52uO+Diio6Px9fV96zlHfHyf0/GX1gQ807qgZOc/hIWFhWYiHVtb288+WbSzs3vv5Bv5PD8ZjRo1Ys2aNeTIkYP9+/fTo0cPqlWrxtKlS9/4zIIQGSE7X3PEx2FkZCTJdyaR409XpiXgQohPT9OmTVm7di0mJiZER0fj4+PDrFmzqFChAv369eP8+fPKVYQQQojPTqZ1QenevXuahsATQmQ/AQEB3Lp1S2viK5VKhZGRETY2NowePZoxY8ZIFxQhhBCflLR2Qcm0BFzGWhbi0xQfH88vv/yCl5eXZrz95Adzy5cvz8CBA2ndujUVKlSQBFwIIcQnJcsn4Pv376dVq1bKsMiGLly4QLFixbC2tlYWic9MdHQ07du35+bNm8THx2NiYoJKpaJnz57069cPe3t7TV15CFNkJLnmiJCQEP777z/q1aunLBLp7HM6/tKagGdaH/C3zeQoso/Hjx8TERGhDIvPTFRUFF999RXXrl0DoGrVqsydO5dbt24xefJkreRbiIwm1xwRFRX1UWa0Fu9Ojj9dmZaACyE+LdOmTeP+/fv07duX48ePs2/fPhwdHd95XHghhBDiUycJuBDio3BxceHOnTv89ttvFC9eXFkshBBCiCSSgAshPor3mQVVCCGE+BxlWgLesmVLZUhkUw4ODlhZWSnDQgiRZcg1R5ibm1OnTh1lWGQAOf50ZVoCXqFCBWVIZFNFixbFzMxMGRZCiCxDrjnC2NhYusdlEjn+dGVaAi6EEEIIIcTnSBJwIYQQQgghMpAk4EIIIYQQQmSgTEvADx8+rAyJbMrT05PAwEBlWAghsgy55oiQkBDc3d2VYZEB5PjTlWkJ+NWrV5UhkU09fPiQsLAwZVgIIbIMueaIqKgo7t27pwyLDCDHn65MS8CFEEIIIYT4HEkCLoT47KnVamJjY7V+v3v3Lrt27WLmzJmo1Wqt+h8iMDCQw4cPExUVpSx6b4GBgbi6urJ169a3Lq6urm/sMtanTx92796Nh4cH7dq14+bNm8oqQgghPpAk4EKIz96NGzeoUKEC169fB0ClUnHs2DG8vb15+fIl165dA+DWrVs6CW1KS/J2UvLo0SNGjRpFcHCwsihFffr0YebMmcrwG+3YsQMPDw/Nzzt27FBWeasaNWowbdo0unbtyp9//qksFkII8QEyLQFv0qSJMiSyqapVq2JpaakMC5FhPDw8MDExQaVSpbrY29vj4+OjXJX4+HgWLFhAkyZNsLKywsfHBx8fH6pVq4alpSVTpkyhcuXKkJSoHzp0KNXl4MGDuLi4MHHiRGJiYgCIiIjg2bNnmu36+/sTGxuLn5+fJnbnzp0PahG3tLSkVKlSynCK8ufPj6WlJREREXTv3h07Ozut5d9//6VPnz7Y2dnRtm1bAgIC+PXXX3FxcVFuKluRa47InTs3NWrUUIZFBpDjT5fK3t5e7eXlpYwLIUS6Kl26NAcPHqRIkSLKIi116tRh9OjRODo6Kos0PD09GT9+PIsXL8bU1FRZjJ+fH0OGDGHz5s3Y2tpqlW3bto2RI0fy5ZdfoqenB0BcXBx79uxh8ODB/Prrr1r13+TChQt8++23bNmyhfLly0PSe2vZsiWGhobkyKHb5pGYmIiPjw9r166lV69eymL69OlDuXLlGD16tLJIy8yZM7l27RodOnRgx44dFCpUiBo1amhavzt06ICHhwe+vr6sWbMGtVpNYGCgVtcbgKFDh9KgQQO6dOkCQEJCAjExMVhZWWFhYaFVVwghhDYzMzNMTEzw8/NTFmld73SvBkIIkQ0ZGhqSP39+bG1tdRYbGxtNcv26s2fP8vPPP7Np0yZWrlzJ8uXLWb58OVOnTsXW1pYWLVooV9Gye/duGjVqRHh4OFeuXKF3795MmTJFk3wnq1evHrdv38bb21tn8fT0pHLlym9swT5y5Aju7u4kJCQoi7RUqlSJzp07U6lSJerXr6/5OTlev359TV2VSoVarcbJyYkbN25oPisTExP27duHhYUF+fPn559//sHFxYWcOXNqvZYQQoj3Jwm4EOKzo1ar2bhxI127dmX+/PnUrFlTq3z37t0UKlSIKlWqaMVTYm1tjYeHB23btmXGjBl06tRJWeWN7t27h76+PkWLFlUWaTx79ox27dqRK1cufvzxR548eaKsAsCUKVOws7NjypQpmm4kU6ZM0cT79OmjVd/a2popU6bw008/ceHCBU380qVLnDx5ks2bN7N7925+//13TExMtNYVQgjx/iQBF0J8dv777z/Wrl3Ljh07aNOmjVaZn58fy5cvp3///hgbG2uVKT1//hxTU1MaNWrEnTt36Nixo7IKOXPmxMbGBpVKpSwCwM3NjZo1a2JlZaUs0vjmm2/w8fHB3d2dly9fYm9vT4cOHbQe5Bw9ejTh4eF4e3vzzz//ULduXW7evEl4eLgmHhgYyJo1a7S2XaVKFWbOnMnp06c1LexOTk58//33rFy5ki1btlCoUCGtdYQQQnyYTEvAjx07pgyJbOrKlSsEBQUpw0JkWRUrVmTfvn06D2TFxcUxfvx4KleuTLt27bTKlNRqNdevX6dy5cqoVKoU+56T9FrLly9Psfz+/fts3LiRXr16pZqgJ9PT06NixYqsXbuWly9f0qdPH8zMzCApiX/9QcrOnTtz9uxZypUrp/OQpZ2dHcuWLdPadrNmzejatStPnz4FoGbNmvTp04fGjRuTL18+rbrZlVxzRGhoKBcvXlSGRQaQ409XpiXgnp6eypDIpu7du0doaKgyLES2EhcXx7Rp0zh16hS//vorBgYGyipaHjx4wOnTp2nevLmyKE18fX3p168f3bt3p3bt2sriN7KyssLR0RF9fX0AmjZtire3Nw8ePKBZs2ZMnz6dwMBAvL29efz4MT/88AMdO3bk8ePHeHt7M3DgQM22QkNDGTp0KNWrV+fu3buQ1D985MiRHD9+nHnz5n3UcdAzi1xzRGRkJLdv31aGRQaQ409XpiXgQgjxMd28eRNnZ2ecnJx0lpEjR/Ly5UvlKhqBgYH06tWLffv2cfjwYezt7ZVVtAQGBuLk5ESjRo10Hrh8m4SEBA4fPkzt2rUpV64c48aNe2vrd1otWrSIdevW8ffff+Pi4sLBgweZPHkyx48fZ9KkSVqvExUVxeLFiylatChqtZp79+7RrFkzTbm5uTnLly9n7dq1DB48WL5kCyHERyQJuBAi2wsKCsLIyIgmTZrQvHlznaVRo0YpPkT44sULJk+eTKFChcifPz/Hjh17Y3/nhIQENm/eTPHixSlVqhTTp09Pc/IcGRnJmDFjsLa2pn///sydO5c//vjjrS3t72Lo0KH4+Pjwxx9/cPv2bVq3bs2yZcu4c+cOv/zyi85IKrGxsZw9e5bFixeTO3durW0B2Nvbc+rUKSIiIhg1apTOkIVCCCHek729vTozzJ49WxkS2dTmzZvVXl5eyrAQb1SqVCn1o0ePlGEdtWvXVu/YsUMZ/mCxsbHqKVOmqL/55hv17du3lcWpevnypfratWvqxMREZdFbeXl5qS9evKiOj49XFqXq/Pnz6ps3byrDWp4+fap2cHBQ58yZU126dGm1k5OTev/+/eqoqCi1Wq1WR0VFqXfu3Klu2rSpunHjxuqwsDCt9SMjI9UtWrRQA2pra2v1lStXtMoz2/3799/r836dXHOEj4+Pet26dcqwyACf0/Fnamqqzps3rzKsVqvVant7e82SaRPxeHh46DwAJbKnO3fukD9/fszNzZVFQqTqY07EIz5t7dq14/Hjx/Tr149evXphbW2trPJWcs0REREReHl5vXO3MfHhPqfjL8tPxPO5/CE+B6VLl5bkWwiRbpYvX45arWbmzJlUqVKFPn36cPLkyXd6OFSuOcLU1FSS70wix5+uTEvAhRBCiLSwtbXl8OHD5MmTR/MQa9++falSpQqLFy8mMDBQuYoQQmRpmdYFRQjxeUtrF5QqVarQrVs36tatqywSn5nAwEDGjBmjNSKLoaEh8fHxNGrUiIEDB1K4cGF27dqltd6bODs7K0NCCPHe0toFRRJwIUSmSGsCXqlSJaytrbGxsVEWic9Q8ljmiYmJmpienh56enpUqlQJJycnhg4dSoUKFbTWS8mlS5d49uyZMiyEEO8tyyfgp06dokGDBsqwyIb+++8/ChUqhIWFhbJIiFSlNQGXhzBFsgULFrB48WIiIyMBMDExQa1W061bN5ycnChatCiPHz+mUaNGPHr0SLm6lvj4eOzt7SUB/4yEhYXx4MEDqlSpoiwS6exzyvnSmoBnWh9wd3d3ZUhkU7du3SIkJEQZFkKIj2bWrFnMnTuX2NhYDAwMKFeuHDNmzOD27dtMnz6dokWLKlcRQktERAT//fefMiwygOR8ujItARdCCCHSYv78+cyfPx99fX169OjBkSNHOHLkCF26dCFnzpzK6kIIkeVJAi6EECJLi4qKYuHChdy5c4dZs2ZRsmRJZRUhhMhWJAEXQgiRpY0dO5auXbtKa7cQ4pORaQm4DCn26ShXrpw8gCmEECJLMzMzo1KlSsqwyACS8+mSBFx8sPLly8tMmEIIIbI0ScAzj+R8ujItARdCCCGEEOJzJAm4EEIIIYQQGUgScCGEEEIIITJQpiXg58+fV4ZENnXz5k2ZiEcIIUSWFh4eLhPxZBLJ+XRlWgJ++vRpZUhkUzdu3CA4OFgZFkIIIbKM8PBwrly5ogyLDCA5n65MS8CFEEIIIYT4HEkCLoQQQgghRAaSBFwIIYRIwZUrV3ByctIsV65cwd3dna1bt+os7u7uADx79kwT27hxI/fv3ycgIAAfHx+dJSAgALVaDYCnpyfOzs6KdwAzZ85k5syZyrCGp6cnjo6OhIeHg+L1le8tNDSUu3fvEh4ejqOjI56engQEBLBjxw6ioqI027x+/TpOTk5EREQQGBiIq6srW7duZefOnfj4+GjqzZ07l7Jly/L48WNNTAiRNpmWgNesWVMZEtlUmTJlZCIeIcQnp0yZMkyaNEmzlClTRlO2Y8cOjh07BoCHhwcbNmwAwMrKinr16lGvXj2++OIL8uTJw+DBg6lVqxY1atSgcOHCVK5cmVq1ajF48GAiIyM12wSIiIige/fu2NnZYWdnx5QpU5gyZYrm9wYNGuDn54eXlxfDhg1j6tSpeHh44OzszMqVK7l06RIzZszg0KFDHDp0iA0bNrBixQoAvL29cXFx0Xpmx8PDg507dxIWFsaZM2eIj48nNjYWPz8/1Go1jx49Yvr06URHR/PPP/+wbds2AC5cuMCRI0cYPnw4gwYNyhYP4puamlK+fHllWGQAyfl0ZVoC3rBhQ2VIZFMVK1aUqeiFEJ8UPz8/mjVrRq1atTTLzz//zKFDhzh9+jQBAQH06NGDzp07U79+fQoWLJjiOoMHD2blypV4e3tz+/Zt2rZty/79+/H29mbjxo2YmpoSGBjIvXv3ePjwIVOnTmXs2LHMmzePefPm0b59e9q3b6/5fc6cOdjY2FCwYEHGjh3LwIEDqVChAuPGjaNTp04AdOnSheXLl7N8+XLGjx+PsbExJH2hyJUrFx4eHgDExcWxdetW+vfvz5MnT5g9ezbR0dFanwNA/vz5adKkCXp6erRu3ZqzZ8/i7OzM3LlzcXJy4ssvv6RHjx4EBgYqV81ScuXKRdWqVZVhkQEk59OVaQm4EEIIkVXZ2Nhw6tQpvL29Ncv8+fMZO3YstWvX5tixY2zYsAF/f39u3ryZ6jrJSfabnDlzhm3btlG0aFESEhJ48OCBsoqOS5cucerUKa5cucLLly85f/48J06cICAgAIAXL14watQopk6dSnx8PCQl3C1atCAoKAhvb2+OHj1KhQoVyJ07t2Lruq5du4aJiQlHjx7FycmJ6dOnY2Fhga+vLz169KBx48bUrVuXCxcuKFcVQqRAEnAhhBAiBcuWLdN0/bCzs8PNzY3o6Gj27dvH6tWradasGV5eXoSGhlKuXDkA3NzcdNZxc3PDxcVFuXmNe/fuUbp0aVQqFT169GDixIm4uLjg4uKCq6srrq6umt+7dOmCm5sbAFu3biUhIYGxY8eyf/9+Tpw4odmmjY0NY8aMYdmyZSxatAiA4OBgZs+ezZEjR3BwcMDLy4v169dz4MABzXqpuXv3LnXr1qV69eps2LABV1dXBg0ahIODA+PGjQNg06ZNFC1aVLmqECIFkoALIYQQKejduzfu7u6axd7enlatWlGhQgW++uor9PX1cXR0ZOPGjZQuXRqA+vXra61Tv359oqKiNC3TkZGRTJ06FScnJ2bPnk1UVBRPnjzB3t4egKpVq3LhwgXN+vfu3ePevXua3+/evUvTpk2pVasWPXv2xMDAgDZt2mBsbIyzszNWVlb8/PPPmu4WVatWpXr16vj7+wNgaWnJTz/9pOnX3qpVq9f+x6nr0KEDBw4cIGfOnFSuXJmFCxcyfvx4atSoweLFixk1ahSVK1cmb968ylWFECnItAT84sWLypDIpu7evUtoaKgyLIQQ2dqpU6eYOHGiZgkODsbV1ZX+/fvj5OTE0aNHuXPnDg8ePKBUqVIA3L59W2ud27dva23T0NCQgQMHMmnSJL777juMjIyYM2eOVt/kw4cPU7duXa3tTJw4kbp163L48GFIap3v378/48ePp3jx4qxdu5ZevXrh6+tL8+bN+fbbb3n8+DGbN2+mSpUqmud0nj9/TqtWrTR91OfPn6953TexsLCgTp06rF69mmHDhuHk5KT1AGjyF4qU+pBnFREREZruQiJjSc6nK9MS8OPHjytDIpu6evUqQUFByrAQQnxSDAwMyJMnD1FRUfz8888ULVqUH3/8kdDQUM1wgnnz5qV58+aaRdkirKenh7W1Nba2tlhZWaFSqdDT00OlUmnVK1y4sNZ2mjdvTuHChTXlAwcOxM/Pj7Nnz1KzZk0CAwM5e/Ys+fPnp3bt2oSFhXHz5k3c3NyoV68e+vr6mu16enpq+qhPmDDhtVd9s3z58mFubs5PP/3Er7/+qvUA6IQJE/juu+8wNDRUrpZlhIWFcenSJWVYZADJ+XRlWgIuhBBCZGXXrl0jT548NG/enIiICJ48ecLo0aP566+/2Lt3L0OHDmXOnDkMGDBAM9X2pUuX2LFjByQNVfi+CV++fPk0wxkmL/ny5dOUJ4/37ebmhre3Nzt37uT48ePExcVhbGxM+/bt+emnnzh69CjNmzfXrPfo0SMKFCiASqVCpVIxZswYAHLmzImNjY3OFwGSHt4cMmQIv/zyC+3atWPHjh1s374da2trjI2NCQsL47vvviMqKirF9YUQuiQBF0IIIVJRv359OnfuTKVKlQgMDMTLywtbW1sAVCoViYmJdO3alUWLFmkms6lUqZJmnffl6uqqNZxhrVq1cHV1VVZLVYsWLYiNjaVWrVpaD0YWLVqU58+fo1arUavVzJgxA5KGk12+fHmKI7YYGBiwZMkSHjx4gLm5OQcPHsTR0VFTXrJkSfr06cO8efM0dwKEEG8mCbgQQgiRisWLF+Pk5MSWLVvYvXs3BQoUIH/+/CQkJEDSqCfXrl0DwMvLC5Jazrdu3cq1a9d48uQJp0+f5tGjR+zcuRNvb2/c3NzYunUrrq6uqY6d3aNHD63hDL29venRo4emvGDBgnTu3JmmTZtiZ2eHo6MjjRo1wsDAALVazd9//63ps7569eqPkhhHRkYycuRIvv32WwoVKqRV5ujoyIMHD967xV+Iz02mJeDVqlVThkQ2VaJECXLlyqUMCyFEtte7d28mTZrE7t27+fPPP5k0aRL58+dn5syZqFQqBgwYgKOjI+vWraNs2bJa63bo0IHChQsTFBREmTJlOHnyJA4ODjx48IBDhw5x9uzZNCXGV65coXz58pw4cQI7OztlsY5t27Zx4MABdu/ezaFDh1i/fj0HDx7UqvPw4UNsbW2ZN28eNWrUAGDXrl2oVCocHBwoXry4Tmu4iYkJmzZtomPHjsydO5e2bdtSpkwZzMzMMDMzY9u2bVSvXl1rnY8lLCyML774gvPnzyuL0szExEQzWo3IWJLz6VLZ29urk7+1CyFERildujQHDx6kSJEiyiItderUYfTo0Vq3vIVIzePHj2nUqBGPHj1SFmmJj4/H3t6eZ8+eKYtEFhQZGUmnTp24cuUKtra2DBw4kO7du6dpEiEhMpKZmRkmJib4+fkpi7Sud5nWAi6EEEIIkRYmJiZs376d8uXL8+LFC2bMmEH58uX5/vvvP6hVXIjMIgm4EEIIIbI8Y2Nj9uzZQ5kyZYiLiyM+Pp59+/bRo0cPqlevzvLly2VOCpFtSBcUIUSmkC4oIj28SxcUOzs7KlSooCwSWVxiYiJ37twhPj5eK25kZER8fDwdO3YkLi6OU6dOaZWnJleuXJw9e1YZFuK9pLULSqYl4FeuXKFKlSrKsMiGHjx4gI2NjTyIKd6JJOAiPbxLAm5vb8+BAweURSKLW7ZsGXv37iUmJkYTMzExQa1W06dPH7799lvmz59PTEwMgwYN0lpX6fHjx/z222+SgKezzynny/IJ+Jw5cxg5cqQyLLKhLVu2ULNmTezt7ZVFQqRKEnCRHt41AZeHMLOXn3/+mc2bNxMZGYmBgQEqlYoKFSowYMAAWrVqhYGBAQDDhw8nJiaGpUuXKjehZc+ePZKAZ4DPKedLawIufcCFEEIIkeX98ssvrF69mvj4eMzMzOjbty/Hjx9n7969fPXVV5rkW4jsQBJwIYQQQmRpT5484a+//qJq1aosXLiQmzdvMmnSJK1ZPoXITiQBF0IIIUSWVrhwYa5cucK+fftwdHSU1m6R7WVaAl6xYkVlSGRTRYsWxczMTBkWQgghPhobGxtlSGQTkvPpyrQEvEWLFsqQyKYcHBywsrJShoUQQgghJOdLQaYl4EIIIYQQQnyOJAEXQgghhBAiA0kCLoQQQgghRAbKtAT8v//+U4ZENuXl5UV4eLgyLIQQQgghOV8KMi0Bl+l/Px0eHh4EBAQow0IIIYQQkvOlINMScCGEEEIIIT5HkoALIYQQQgiRgSQBF0IIIT6Al5cX/v7+eHp64ujoSHh4ONeuXePkyZNa9ZYtW8ayZcsACAwMxNXVla1bt7Jz5058fHw09ebOnUvZsmV5/Pjxa2un7PXXFEJkH5mWgJctW1YZEtmUnZ0dpqamyrAQQnwW9uzZw5IlSzS/JyYmsmLFCp4/f86tW7e4desWACEhIYSEhADw6NEjpk+fTnR0NP/88w/btm0D4MKFCxw5coThw4czaNAgTX2SEv1hw4bh5OSkWaZOnYqHhwfOzs5a8dmzZxMdHU14eDiNGjVCpVK9cTEyMuLQoUOa1xLiY5KcT1emJeBt2rRRhkQ2VatWLaytrZVhIYT4LLRu3ZqzZ8/y8uVLSEqUfXx8aNasGbt27WLXrl3KVQDInz8/TZo0QU9PT7MNZ2dn5s6di5OTE19++SU9evQgMDAQgICAANzd3WnYsCHNmzenefPm9OrVi4ULF9KmTRtNrHjx4hw7doz4+HjMzMw4fvw4arU6xcXHx4eGDRsyZswYGjdurHyLQnwUkvPpyrQEXAghhPgU5MiRA0dHRy5fvoy3tzfu7u40btwYlUqlrKrj2rVrmJiYcPToUZycnJg+fToWFhb4+vrSo0cPGjduTN26dblw4QIkJe2tW7emQYMG1KtXT2dp3LgxTZo0IWfOnMqX0nHt2jWaNm1KmzZtmDBhAgYGBsoqQoh0Igm4EEII8QGuX7/O7NmzefToEQ4ODpw9e5aFCxfy6NEjZVUdd+/epW7dulSvXp0NGzbg6urKoEGDcHBwYNy4cQBs2rSJokWLUqlSJVatWsWTJ09o1qwZtWrV0lkGDx5M8eLFWbVqVapdA728vOjTpw/du3fn999/56effkJPT09ZTQiRjiQBF0IIIT6Qg4MDkyZNYtKkSYwbN47ixYsrq6SoQ4cOHDhwgJw5c1K5cmUWLlzI+PHjqVGjBosXL2bUqFFUrlyZvHnzYmBggKWlJZUrV+batWt4e3vrLBs3biRPnjxYWlqm2gIfEBCAt7c3x48f54svvlAWCyEyQKYl4Hfu3FGGRDb19OlTIiMjlWEhhPhsuLq6alqhGzVqxMWLF5VVUmRhYUGdOnVYvXq15gFL5YOVyQ9ULlu2DDs7uzQtlSpV4vr168qX0zA3N8fExEQZFiJdSM6nK9MS8N27dytDIps6d+6c5uEjIYT4HPXo0UPTCn379m3q1aunrJKqfPnyYW5uzk8//cSvv/7KwIEDqVChAuPGjWPChAl89913GBoa0rt3b9zd3XF3d2fTpk3Y2tqyZ88e3N3dqVWrFlOnTtWUHz58mDJlyihfSohMITmfrkxLwIUQQohPxdq1azVD+uXKlYvDhw9DUkuzubm5sjoAcXFxDBkyhF9++YV27dqxY8cOtm/fjrW1NcbGxoSFhfHdd98RFRWFSqXCzMwMW1tbbG1tCQkJoUCBApQqVQpbW1tMTEzIkyePpjxfvnzyUKUQWZgk4EIIIcQH+uabbzRD+4WFhdGsWTMABg4cyMCBA5XVATAwMGDJkiU8ePAAc3NzDh48iKOjo6a8ZMmS9OnTh3nz5qFWqzXxkJAQ5s6dS7du3TAyMtLEXzd//nwePnyoDAshsghJwIUQQohMFBkZyciRI/n2228pVKiQVpmjoyMPHjzg0qVLkDSBzzfffEPRokXp1KmTVt2oqCjNv5cvXyYoKEirXAiRdWRaAl6iRAllSGRTBQsWlId5hBCfrISEhDS3Jm/YsIFcuXIRFBRE4cKFUavV9O3bF5VKxYQJE6hevbpyFUxMTNi0aRMdO3Zk7ty5tG3bljJlymBmZoaZmRnbtm2jevXq/PnnnzRu3Jju3buzdOlSrS4mzZs35+eff8bOzo7SpUujp6dH6dKlNeXx8fH06NEDlUqFg4MDxsbG6Ovra8qFSE+S8+lS2dvbq728vJRxIYRIV6VLl+bgwYMUKVJEWaSlTp06jB49WuvWvBCpefz4MY0aNXrrGNzx8fHY29vz7NkzZZGGj48Pa9asYc2aNTg4OLBu3TplFZFFDR8+nJiYGJYuXaos0rJnzx5+++03zp49qywS4r2YmZlhYmKCn5+fskjrepdpLeBCCCFEVpOQkMDevXvp2LEjjRs3ZsmSJeTOnZvFixcrqwohxHuTBFwIIcRnz8/Pj1mzZlGxYkVGjRrF+fPnCQ8Px9bWlkOHDmFhYaFcRQgh3psk4EIIIT5bR44coXPnztSoUYM//viDoKAggoKCUKlUFC5cmOXLl3P8+HH+++8/AB4+fIirq6vO79euXYOkad5dXV25cuUKAN7e3ri6umoeonz69Cmurq6aiXqeP3+Oq6srHh4eAPj6+uLq6sqFCxcAePHiBa6urpw/fx6Svii4urpqukz4+/vj6urK6dOnAQgMDMTV1ZWTJ08CEBwcjKurKydOnAAgNDQUV1dXjh8/DkBYWBiurq4cPXoUgPDwcFxdXXFzc4OkB0RdXV05dOgQANHR0bi6unLgwAEAYmNjcXV1Zf/+/ZA0tKKrqyv79u2DpDsKrq6u7NmzB4DExERcXV3ZtWsXyVxdXXF1ddWM9LJ7925cXV1JSEgAYO/evbi6uhIXFwf8r737jorqeBs4/oWlKCCCIogF7A3FXoglsURjxGhiN5YYS4yJ5meLiTWW2GOsEXuNGk1iB43Y1opdsaAYC9KLUgWEdd8/lH3du4BEkaLP55x7DvvM3N11nXvvs7NzZ8DLy4udO3fy5MkTAPbt28fOnTtJSkoC4J9//iEgIED32tOmTWPChAls3bpV91ppW9prCJHTci0Bz+oNLSLvCwkJ0d19L4QQ+cmMGTM4ceIEqampJCcn6+IqlYoGDRoQFhaGp6enbiW/O3fu4OnpybVr1+B5gu3p6alLyB88eICnp6duFcrAwEA8PT25fPkyPE+4PT09dQl62uO0BD00NBRPT09dgh4eHo6np6cuIY+MjNR7/PDhQzw9PXUJ+qNHj/D09NQl6NHR0Xh6enLixAl4PoWhp6enLkGPj4/H09NTl6AnJCTg6empS9ATExPx9PTk8OHDACQnJ+Pp6cnBgwf1HqfNe56amoqnpyf79++H5wm4p6enLkHXarV6j3meUHt6euoS8LTHT58+BWD//v14enrqkuUDBw7g6empS8C9vb3x9PTU/f8dOnSIwMBAfH19mTNnDhs3bmTLli3MmzePWbNmMWfOHL3N2DjXUqF3huR8hnLtJsy5c+cyatQoZVjkQ9u2baNBgwY4Ozsri4TIkNyEKd6EV7kJ88aNG3h4eLBz505UKhWPHz+G57OTtGrVCg8PD4yMjJRPIfKZ0NBQvL296dWrl7JIvGHvUs4nN2EKIYQQWVC1alUWLFjAtWvX+OmnnyhTpgzm5uYkJSWxd+9ehg0bprcQjhBCvC5JwIUQQgjA0tKS3r17c+rUKbZv306nTp0wMjLizz//fGd674QQOUMScCGEEEKhdu3aLFy4ED8/P2bNmkW1atWUVYQQ4pXlWgJetmxZZUjkUw4ODhQoUEAZFkKIfM/S0pI+ffrQv39/ZZHIZ8zNzSlRooQyLHKA5HyGci0B79SpkzIk8qlmzZrh4OCgDAshhBB5hq2tLS1atFCGRQ6QnM9QriXgQgghhBBCvIskARdCCCGEECIHSQIuhBBCCCFEDsq1BDwgIEAZEvlUeHi4bglgIYQQIi968uQJISEhyrDIAZLzGcq1BHzr1q3KkMinjh49SlhYmDIshBBC5BkPHz7k4MGDyrDIAZLzGcq1BFwIIYQQQoh3kSTgQgghhBBC5CBJwIUQQgghhMhBuZaAlypVShkS+VSxYsUwNzdXhoUQ4p2SmppKamqq7nFiYiJXr15l2rRpHD9+XK9uZrRaLRqNRhl+LVqtlqioKEJCQgy2sLAwUlJSlLu8spCQED744IM8d8OjmZkZ9vb2yrDIAZLzGcq1BLx79+7KkMinPvjgA4oXL64MCyHEO8XDw4N27drx+PFjXWz+/PnUrVuXjRs3kpCQoFc/PVqtliVLlvD+++8TGhqqV3bx4kUCAwP1Yhnx8PDAyclJtzk7O1O1alVKly5N/fr1adiwoW778MMP8fPzY9++fXr7ODk5UaRIEVQqFaVKldKLu7q64uvrC8CIESP0yurWrcuxY8eoW7euXrx79+66zyAkJARnZ2eMjIwy3CwtLTl//rziX/bqihQpQuvWrZVhkQMk50uHs7OzVgghclqlSpW0d+/eVYYNNGrUSLt9+3ZlWIh03bt3T1umTBll2EBKSoq2RIkSerGff/5ZC2S69enTR2+fNAEBAdoaNWpot27dqg0ODtZtW7du1Z46dUqbmpqq3MVAamqqdtasWdrixYtrT548qVeWlJSknTRpkrZ48eLagwcP6pVl1blz57QdOnTQxsXFKYsyNHPmTO3YsWOV4UwFBwdr33//fW1wcLCySIi3nqWlpbZYsWLKsFar1WqdnZ11m5Gzs7P23r17yrxcCCHeqMqVK7N//37KlCmjLNLj5ubGmDFj6Nixo7JICAP379/ngw8+4O7du8oiPampqTg7OxMUFKSLzZo1i/j4eIYMGaJXN82BAwc4ePAg69at04unpKTwzTff4OvrS40aNXTxiIgIDh48yP79+3Fzc9PbRykwMJBhw4YRGBjI1q1b0z0utFotu3fvpl+/fkyePJlvvvkGIyMjXXliYiKxsbE4ODgQHh7OsGHDmD59OmPHjuXkyZMkJSXx8OFDihcvjrGxMWPHjqVx48YsWrSIX3/9FZVKxaJFi/D399c954EDB6hYsaLB+/n0009p27YtAL6+vnz++edER0fD8882LCwMBwcHTExMdPusXr2aVq1a6R4L8TaysrLCwsKC8PBwZZHecZRrQ1CEEEKIvMbKygpHR8d0N1tbW2V1NBoNc+fO5e7du+zbt4/ly5frtn79+lG9enWqVaum3E0nISGBmTNnUq5cOTQaDUePHjVIdtMYGRnxySefsHv3bnx9fYmNjdUr9/T0ZOjQoTx58gSNRkNoaCgajQZzc3N8fHzw8vLC3d0dPz8/lixZQkxMDE+ePCE8PBytVktqaiqHDx+mfPny1K9fnxs3bjB16lQGDRqEra0tCQkJtG7dmoSEBK5cuaJ73Ro1anDlyhUCAgIICAjg/PnzNG3alPPnz+tiAQEBuuTb19cXV1dXg+EuGW3e3t4v/CuFeDvkWgIeHBysDIl8KioqiuTkZGVYCCHeagkJCQwbNozt27ezZs0aChcurCtLTExkxYoV9OzZUy+e5sGDB4wcORJHR0cuXLjAgAEDsLGxoWDBgsqqBt577z2WLVum97z3799nypQpdOvWDTMzM736qamphIeHExkZibm5OY8ePeLRo0d6ddKYmZnRqlUr3N3dKVmyJI0aNaJx48a4uLjg6upK586dcXV11dU/f/48lpaWemO3S5QowdGjRylRokS6Y7qrVKnCgQMH8PHx0W27d++mZMmS7N69Wy/u4+NDkyZN9N7jq0pJSSEiIkIZFjlAcj5DuZaAb9q0SRkS+dShQ4cMbhYSQoi3mUaj4a+//iIuLo59+/YZzPJw/Phx7t69S4cOHfTi0dHRNG/enMqVKwNw7do1tm7dirOzs169/yI0NJQ+ffrw+eef89lnnymLiY6OZvbs2Xh4eHD58mWmTp3Kxo0bldUM3L17l59//plJkyZlWL9u3bokJCToetAXLFhAw4YNWbduHX379iUlJQWtVsvNmzfx8vKiTp06mJqa4uDggJmZGadPn8bGxgZ7e3vMzc2xt7fHzs6O69evY2FhgaOjIwUKFFC+7CuJiopi//79yrDIAZLzGcq1BFwIIYTIr1QqFX369GH9+vUUKVJEr+z+/fsMHz6cCRMmULp0ab0yGxsbNm3aRExMDL/88otB+X9148YNWrRoQbVq1Rg+fLjemPA0dnZ2zJ07l/Hjx/Phhx+yfPlyhg4dqqxmoEqVKixatOil9VNSUtixYweVK1dm7969HDx4kC5duhAfH8/x48fZtGkTPXv2RKvV6r2/bdu2sW3bNkxNTfWez8TEhCNHjjBp0iS0Wq1emRBvC0nAhRBCiGwSGhpK7969ee+999LtjQZwdHQ0SDr/q8TERGbPnk3dunXp2bMnCxcuzPA5IyMjGTVqFNOmTePAgQMMGjSIRYsWKasZOHXqFFWqVMHJyYm+ffsqiwHYvn079vb2rF+/ngEDBlC8eHEsLS0pWLAgX331FZ988gknTpzg0KFDvP/++7r97t27x8qVKxk5cqTejZo8H+s+dOhQfHx8/tP86ULkJ5KACyGEEM9t27aNQYMGpbu9LGk9e/YsTZs2pUGDBixZsiTDhPhVabVa7t27x8iRIylatCh//vkn586dY/z48Rm+loWFBevXr2fu3Ln89ttvHD58mMmTJ7Nu3Tq++eYbZXU9bm5u+Pn5ERAQYDDzSxp3d3cCAwP5+++/cXFx0cU1Gg2VK1emS5cuxMbGolKpdGUxMTEMHDiQrl27UqdOHV38Rfb29nzzzTfMmDGDxMREZbEQ+V6uJeCycMvbw9bWVlbCFELke0FBQVSuXJnWrVunu9WuXVu5CxqNBl9fXzp06EDr1q2ZNm0ac+bMyTAhflXXr1+nRIkSlC9fHj8/Pw4fPoyPj0+mM6w8ePCA+vXrU7t2bb2Fd9K2atWq0bZtW2JiYnT7PH78mGnTpjFq1CjUajVDhw7VfflI+3Kybds2XX1TU1MsLS1JSUkhOjoatVpNw4YNsbW1ZfLkycycORMHBwdq1arFgQMH0Gg03Lx5k2bNmmU4ZCZN27ZtqVy5MnFxccqiV2JqakrRokWVYZEDJOczJPOACyFyhcwDLt6E15kH/FWEhoby9ddf4+bmxuDBg7G2tlZWyRIfHx8AGjZsqCzSiYuLw8LCQq83OSMhISF07dqVxYsXZ7r8+pUrV1i8eDGbN28GoGvXrrz//vuUL19eWVVn+/btuLq6MmbMGAACAgL46KOPKFGiBD169KBt27Y4OjrqkmutVsvhw4cZOXIkY8aM0VsV0d/fn8aNGxMREYGbmxu7d++WJDmPWbhwIbGxsQwcOBAHBwdlsVDI6jzgkoALIXKFJODiTcjpBFyIt52XlxcDBgxAq9VSvXp1vvnmGz7++ONs/5XnbZHVBDzXhqAIIYQQQoi8rW3btqxbtw4zMzN8fX357rvvdLPuXLt2TVldZJEk4EIIIYQQIkOtWrVi5cqVmJmZkZycTHx8PH/88QeffPIJ9evXZ9myZURHRyt3E5nItSEo4eHhmY5LE/lHTEwMFhYW8nOU+E9kCIp4E9KGoFhaWurFHz9+bLBi79OnT197Hm6Rf2i1WrRaLcbG0vf4quLj49NdRdXExAQjIyMWLlzI999/ryzO0Lx583B3d1eG87WsDkHJtQR87ty5jBo1ShkW+dC2bdto0KDBa63kJt49koCLN+H+/fuEhYUpw6xcuZJPPvlEGaZmzZrKkHhLRUREcOLECTmXvKKgoCD69OmjNytNkSJFMDc3p2fPnnzxxRfY2dlRqVIlDh48qLdvejp16sTEiRMlAc9pkoC/PSQBF69CEnCRk+SaI0JDQ/H29qZXr17KIvES9+/f56OPPiImJgaVSkWhQoWoVKkSQ4cOpXnz5nq/KqQl4C/7dalBgwbvdAIuv8MIIYQQQoh03blzh48++ojY2FhsbW0ZNGgQhw4dYseOHbRs2VKG9Lwi+dSEEEIIIUS6li9fTtmyZVm9ejW+vr5MmDBBFtbJBrmWgMtE+28Pa2trzMzMlGEhhMgz5JojTExMKFy4sDIsXmLmzJl4enrSpk0b6e3ORrn2Sfbr108ZEvlUmzZtcHR0VIaFECLPkGuOsLOzo3379sqwELki1xJwIYQQQggh3kWSgAshhBBCCJGDJAEXQgghhBAiB+VaAp7eSkoif4qLiyMlJUUZFkKIPEOuOSI1NZXY2FhlWIhckWsJ+KpVq5QhkU/t27eP4OBgZVgIIfIMueaIyMhIdu3apQwLkStyLQEXQgghhBDiXSQJuBBCCCGEEDlIEnAhhBBCCCFyUK4l4NbW1spQrklNTSU1NVX3ODExkatXrzJt2jSOHz+uVzczGo0GrVarDL8WrVZLVFQUISEhBltYWFi23fwYGRnJsWPH9D6HrDh//jzz5s0jOTlZWSSEEHlGXrrmiNyhUqmwtLRUhoXIFbmWgA8aNEgZyjUeHh60a9eOx48f62Lz58+nbt26bNy4kYSEBL366YmJiaFHjx6MHj0ajUaji6ekpHDkyBESExP16mfEw8MDJycn3ebs7EzVqlUpXbo09evXp2HDhrrtww8/xM/Pj3379unt4+TkRJEiRVCpVJQqVUov7urqiq+vr/JlUavVrF69GpVKBc/ft/LfnZCQQPfu3fWer23btpw9e5YWLVroxUeMGKHbLyQkBGdnZ4yMjDLcLC0tOX/+vN7rCSFEdslL1xyRO4oVK8ann36qDAuRO5ydnbX52dOnT7U9e/bUApluM2fOVO6q1Wq12oCAAG2NGjW0W7du1QYHB+u2rVu3ak+dOqVNTU1V7mIgKipK27p1a23r1q21UVFRemUPHjzQfvDBB9qWLVtqQ0JC9Mqy6ty5c9oOHTpo4+LilEUZmjlzpnbs2LHKsJ6hQ4dqS5curS1durTW0tJSa2lpqS1WrJgW0Nra2mqXLl2q3MXAq7w3IbRarbZSpUrau3fvKsMGGjVqpN2+fbsyLIQQIg+qWLGiNiAgQBk2UL9+fe3u3buV4XwvLZdKj7Ozs27LtR7w7GJkZISJiQnr1q0jODg43W38+PHK3eB5L+/UqVOxtLTkwIEDTJo0iUmTJjFkyBD69++PVqvV9QinR6vVcujQIRo2bIiLiws7duygSJEienVKlSqFp6cnrq6uNGrUiEuXLumV83z4R3x8PADh4eF0796dO3fu6Hqb27Zty549e6hSpQpOTk54eHjg6+vLoEGDSEhIICkpiTlz5jBo0CDd5uHhwdmzZ/VigwYNwsvLS/e6v/zyC2fPnmXNmjXUrl0bX19fwsPD0Wq1PHz4kMGDB7/wLp/x9vY26AF/8b1l1ssuhBBCCCFycQhKdrO1tcXR0THdzcrKSlkdjUbD3LlzuXv3Lvv27WP58uW6rV+/flSvXp1q1aopd9O5e/cunTp1omXLlvzwww/88ssvFCxYUFkNgIIFCzJnzhyGDh3KyZMn9caJp6SkMHbsWLZu3QrP31doaCgajQZzc3N8fHzw8vLC3d0dPz8/lixZQkxMDE+ePNEly6mpqRw+fJjy5ctTv359bty4wdSpUxk0aBC2trYkJCTQunVrEhISuHLliu61TU1NKVKkCH/88Qe9evXizp07PHjwQFceGxvL0qVLCQwM1MVatWpFQECAbnvxvaXFrly5Qo0aNQDw9fXF1dVVL2nPbPP29ta9lhBCCCHE2yjXEvC4uDhlKMckJCQwbNgwtm/fzpo1ayhcuLCuLDExkRUrVtCzZ0+9OM+T45MnT9K2bVtq1qxJ9erVqVevHvb29hgZGenVVVKpVIwcOZIhQ4bo1d21axc+Pj60bNlSrz7Pbw4NDw8nMjISc3NzHj16lOFqbmZmZrRq1Qp3d3dKlixJo0aNaNy4MS4uLri6utK5c2dcXV2Vu/HHH3+wevVq/vnnH06ePEnLli1ZuHAh/fv3p2zZsty+fZsCBQoAsHv3boOx2/Xq1WPnzp0UKlRIL+7s7ExISAhVqlThwIED+Pj46Lbdu3dTsmRJdu/erRf38fGhSZMmyrcohBCvLTevOSJv0Gg0evd6CZGbci0BX7ZsmTKUIzQaDX/99RdxcXHs27ePUqVK6ZUfP36cu3fv0qFDB7346dOnsbW1pU+fPnTr1o2QkBC+//7717qj2tvbmx9//JEVK1bg7OysLCY6OprZs2fj4eHB5cuXmTp1Khs3blRWM3D37l1+/vlnJk2alGn9v/76i+nTp+Pr68tff/1Fv379qFChAsuXL6djx46Ehobyyy+/YGdnB0D79u3RarVotVoeP37MqFGjaNu2LV9++SVDhw7VlZ06dYrdu3fj6OiIqakpDg4OmJmZcfr0aWxsbLC3t8fc3Bx7e3vs7Oy4fv06FhYWODo66pJ9IYTITrl1zRF5R0REBH///bcyLESuyLUEPLeoVCr69OnD+vXrDcZr379/n+HDhzNhwgRKly6tV1a3bl38/f3x9/fniy++eK3EW6vVsn79erp168bMmTNp0KCBsgoAdnZ2zJ07l/Hjx/Phhx+yfPlyhg4dqqxmoEqVKixatCjT+qmpqTx8+JBNmzZRpUoVtm3bhru7OxUqVKB37960b98eU1NT5W4kJCSwatUqihcvTlJSEjt37sTNzY1Lly7h6+vLzJkz+f777w0S6W3btrFt2zaD5zQxMeHIkSNMmjQp26dwFEIIIYTIi965BDwjoaGh9O7dm/fee4/PPvtMWazryX3ZUJOXCQwMpFOnTowaNYpt27al+1ppIiMjGTVqFNOmTePAgQMMGjSIRYsWKasZOHXqlO6myL59+yqL4XniO3DgQGrVqsXp06eZNWsWO3fu5MMPP1RWhecJ+8KFCylWrBgXLlygb9++lCpVClNTUwoXLsxHH31Es2bNANi/fz+VKlXS7Xvv3j1WrlzJyJEjMTExeeFZn91EO3ToUHx8fP7TnOtCCCGEEPnVW5OAL1q0yGDGj7Rt27Ztyup6zp49S9OmTWnQoAFLliwx6KV9XSkpKZw4cYK2bdvi7OxMyZIluX37Ni1atFBW1bGwsGD9+vXMnTuX3377jcOHDzN58mTWrVvHN998o6yux83NTXdT5Lp165TFBtRqNe3bt8fZ2ZnmzZvz5ZdfKqtgYmLCoEGDePjwIUuWLKFkyZK6Mo1GQ6NGjahXrx5JSUl6SXZMTAwDBw6ka9eu1KlTRxd/kb29Pd988w0zZszI8nzpQgghhBD5Va4l4K8zhONFSUlJREZGUrt2bVq3bp3uVrlyZeVuaDQafH196dChA61bt2batGnMmTMn25PvZcuWYWZmhru7O9WqVSMwMJBFixZluirbgwcPqF+/PrVr19ZbeCdtq1atGm3btiUmJka3z+PHj5k2bRqjRo1CrVYzdOhQXY/5tm3bMv0iUqdOHRYuXMiUKVPYt28fR48e5ffff2fYsGF60xYWKFCAAgUKkJSURHx8PJs3b6Z69ep89dVX7Nq1i40bN3Lt2jUaN27MlStX0Gq13Lx5k2bNmjF8+PBMfz1o27YtlStXlhulhBBvRHZdc0T+ZWxsbDA8UojcYuTs7Ky9d++eMp5nnD59muLFi1OmTBll0WsJDQ3l66+/xs3NjcGDB2eaEGckMTGRI0eO4Orqqtcj/KK0u64LFSqkLEpXSEgIXbt2ZfHixdjb2yuLda5cucLixYvZvHkzAF27duX999+nfPnyyqo627dvx9XVlTFjxiiLePDgAZ6enrrVKG1sbKhTpw41a9akatWqunpnzpzhs88+o1GjRnTr1o0WLVpQtGhRXblGo2Hr1q1MmzaNFStW8N577+nK/P39ady4MREREbi5ubF79269fcW7pXLlyuzfv/+lx7abmxtjxoyhY8eOyiIhhBB5TKVKlTh48KDBvXRKDRo0YOLEibi7uyuL8jUrKyssLCwIDw9XFuld7/JkAh4bG8uWLVv47bffCAsLY/To0XpLmwsh8j9JwIUQ4u0jCXjWEvBcG4KSHh8fHwYOHIiLiwszZswgPDycjz/+mO+++05ZVQghhBBCiHwp1xPw2NhYli9fTr169ejevTuenp6kpqaiUql0U+9lthy8EEIIIYQQ+UmuDUE5fvw4v//+O3v27MHU1FRv9gtTU1MqV65Mjx49MDbO9e8I4iVSU1MxNjaW/yvxn0yePJlvv/32pfcBzJ07lw8//JCaNWsqi4TIspSUlGy/yV7kL1qtFo1GYzAdrshekydPpk2bNnoxNzc3vccAS5YseaeHoORaAj58+HCSkpI4ceIECQkJesvDmpiYULt2bapVq6a3j8ib/v33X+zt7bN8o6kQAJs3b8bd3f2l7ebvv/+mdu3alC1bVlkkRJZdunSJWrVqKcPiHfL48WMCAwP11qkQ2W/37t3KEAUKFDBY/BDgu+++kwQ8p82dO5dRo0bpbrhcvnw58fHxxMfHo9FoKFCgABMmTEh3TmqRt2zbto0GDRrg7OysLBIiQ3ITpshJadcc8e4KDQ3F29ubXr16KYvEG/YuHX9ZTcBzfcyAtbU1gwYN4ty5c6xdu5aPPvoIKysrTExMGD9+PB4eHspdhBBCCCGEyLdyPQF/UaNGjVi5ciXnz59n9OjRODo6MnnyZN1c10IIIYQQQuR3uZaAm5mZKUM6ab3i58+fZ/v27dSrV09ZReQhJiYmcgOmECJPy+yaI94NRkZGciNuLpHjz1CujQEXQrzbZAy4EEKIt02+GQMuhBBCCCHEu0QScCGEEEIIIXKQysbG5qfy5ctz8uRJKlasiJmZGX/99Rc+Pj6UK1eOAgUKsH37dk6fPk2ZMmUoWLAgO3fu5NSpUzg5OWFhYcHu3bs5efIkpUqVwtLSkr1793LixAlKlCiBlZUVXl5eHD9+nOLFi1OoUCH279/PsWPHsLe3x9ramgMHDqBWq7Gzs6Nw4cIcPHiQo0ePUqRIEWxsbDh8+DBHjhzBxsYGW1tbjh49yuHDh7G2tqZIkSIcP36cgwcPYmVlRdGiRTl58iTe3t5YWFhgZ2fH6dOnOXDgAAUKFKBYsWKcOXOGf/75BzMzM+zt7Tl37hz79+/HxMQEBwcHLly4wL59+zA2NqZ48eJcunQJLy8vtFotjo6OXLlyBU9PTzQaDSVKlODq1avs3buXlJQUSpYsyfXr19mzZw/JycmUKlUKPz8/du/eTWJiIqVLl+bWrVvs2rWLhIQEnJycuH37Njt37iQuLg5nZ2fu3LnDjh07iImJoUyZMty7d4/t27fz6NEjypYtS0BAAH///TdRUVGUK1eOwMBA/vrrLyIiIihfvjzBwcH8+eefhIWFUaFCBcLCwti2bRshISFUrFiRiIgItm7dSlBQEJUqVSIqKoo//viDBw8eULlyZR49esSWLVu4f/8+VapUISYmhs2bN3P37l2qVq1KXFwcmzZt4t9//6VatWokJCTw+++/c+vWLapXr05iYiIbN27Ez8+PGjVqkJyczIYNG7h+/Tqurq6kpKSwfv16rl69Ss2aNdFoNKxbt44rV65Qq1YttFota9eu5dKlS9SuXRuAdevWcfHiRWrWrImRkREbNmzgwoUL1KhRA2NjY37//XfOnz+Pi4sLKpWKzZs3c+7cOapWrYqJiQl//PEHZ8+epXLlypiamrJt2zbOnDlDhQoVMDc3z/NtXq1Wc+jQobeqzXt4eODq6oqLi0umbf7QoUNUrlyZK1euZNjmQ0JCcqTN3759GxcXl3zV5itVqoSZmVmeb/NHjhzh8OHDOd7mjYyMcqzNv855PigoKEfa/J07d6hWrVq+avNVqlTB1NQ0z7f5Q4cOceTIkRxv8yqVKl+0+QcPHuRIm7937x5Vq1Z9Y21+9+7dmJubM3r0aL2EG2D+/Pm6v40BLly4gFqt1q1GeebMGb3HZ8+eRa1W6xbLOX/+PGq1mvj4eF7cPy4uDoCLFy+iVquJiYkB4PLly6jVaqKjowG4cuUKR44c4dGjRwBcvXoVtVpNVFQUANeuXUOtVhMZGQnA9evXUavVuvE0fn5+qNVqwsLC9B6HhoYCcOvWLdRqNcHBwQD4+/ujVqsJCgoC4Pbt26jVagIDAwG4c+cOarWagIAAAO7evYtareb+/fsA3L9/H7VaTdpY+YCAANRqNXfv3gXgwYMHqNVq7ty5A0BQUBBqtZrbt28DEBwcjFqtxt/fH57PRapWq7l58yYAYWFhqNVq/Pz8AAgPD0etVnPjxg0AIiMjUavVXLt2DYCoqCjUajVXr14F4NGjR6jVaq5cuQJAdHQ0arWay5cv6z2+dOkSALGxsajVai5cuABAXFwcarWa8+fPAxAfH49arebs2bPwfPECtVrNmTNnAEhMTEStVuPj46NXfvr0aQCePHmCWq3m1KlT8HwFOrVazcmTJwHQaDSo1WqOHz8OwNOnT1Gr1Rw7dow0arUatVpt8Pjp06cAHDt2DLVajUajgecrq6rValJTUwE4efIkarWaJ0+eAHDq1CnUajXJyckA+Pj4oFarSUpKgmxo85cuXUL9kjavVquz3OZv3LiB+oU2n/b4Vdv8v//+i1qt5sGDB5CNbf7ff/+FV2zzjx8/1u3/sjaf1kYzavNpj1+1zSckJKDOQptPe5ycnIw6kzafmpqKWq3mxIkT8Iba/IkTJ1Cr1aSkpEAmbT7tcVbbfEJCAmRjm3/48CFkoc0rz/PZ3ebTypVtPu3xy9p8YGAg6tds8+oXzvMRERGo1WquX78O6bR55Xn+4cOHqLPQ5i9evAiv0ebTHuenNp/2OCtt/siRI7o2f+7cOdTZ2OZ9fX1RZ9Lm0x7/1zYfEhICr9Dm087zaY//63k+O9t8SkrKS9t82uOstvmYmBjUr9Dmz507B+m0+aSkJNQv5Dav2ubT2uvL5NpNmO/SpOxvO1mIR7wKuQlT5CS55ghZiCf3vEvHn9yEKYQQQgghRB6kS8CnTp3Khx9+qPuJPDs8ePBA99NQVkydOpWmTZum+61B6cKFC3h5eZGYmKj394s8PDxwcnLK8nMKIYQQQgjxpukS8HLlynHu3DmuXr3KkSNHmD17NuoXxmb9V5cvX6ZmzZq0bdtWN2bvZczMzEhKStKbKF+r1aY7nubAgQMMHjyY6Ohovb9fNHjwYLZv305cXFy6zyGEEEIIIUROMwb44osvGDp0KNHR0TRr1ozmzZszZcoUjh49qqzPgwcPqF27Njt27FAW6XF1dWX+/Pmo1WoaN26su7mK50m1v7+/7oa5F5mYmHDz5k1+++03OnbsSNGiRSlevLhu0P2L7O3tKVCggDIscpisgimEyOvkPCV4vhqmyHly/Bky5vmdoZ999hkWFhaMHz+exMRE4uPjmTBhgrI+dnZ2ODg4sHfvXvz9/Vm3bh2ff/45lSpV4sCBA7p6RkZG9OnTB09PTxwdHbGwsNCVnTlzht27d3P27FliYmKYPn06rVq1YurUqZw+fRo3Nze+//57Hj58qJs+x9HRUbd/GktLS1lWNg/o1KmT3IAphMjTRowYoQyJd0zx4sX5/PPPlWGRA+T4M2TM81ksFixYgJubGwEBASQlJXHmzBlmz56tm8YLYNWqVfTo0YNDhw6xcuVKqlSpwi+//MLFixd59OgRJUqUePG5AWjZsiVHjx7VJWj379+nd+/eFClShPLly5OUlMSWLVuIj4+nSpUqNGrUiNDQUOLj4/nuu+94/Pgx06dPx97eXu9506axEUIIIYQQIj8xBli7di1ffvklJ0+eZP369dja2tKwYUPGjx+vm/+Q51OrODg4MHLkSGxtbXU92Vqtlh9++AEXF5cXnxue94SrVCp4PsdlixYtiIiIYPXq1djb2+Pg4MCVK1c4ffo0Xbp0wdzcHEtLS86cOcOAAQPo06cPH3/8sd5zpqamkpCQgJ2dncEQlMTERCZOnKibp1IIIYQQQoi8xBhgypQp3L9/nyZNmmBtbc2RI0eIi4vjyZMnDB48WFe5W7duLFu2jG+//RZra2uOHj3K6NGjqVChAkOGDHnxefUkJiYye/ZsatasSWxsLJ6enjRo0EBZTU/dunXZvXs3M2fOxMTERK/s3r17nDx5kurVq+uVPXz4kF69ejFz5ky9MedCCCGEEELkFcY8Xy3p9OnTfP/996SmpqJSqbCyslLW1XFwcKBevXqcPHmS33//nR07dlCwYEG9OklJSVy9epX//e9/FC1alDFjxuDu7s7Fixdxc3PTq/uie/fuERMTg0qlokmTJpibmxMVFYVWq4XnqyrOnj2bxMREOnfurNsvICAAV1dX9u3bx/bt22nfvv0LzyqEEEIIIUTeoHdbarly5bC2ttYtC5oRExMTPvzwQ86dO0d4eLhuiMmL/vzzT2rUqMGCBQuoXr06R48e5a+//qJUqVLwfFUkJWdnZ+7fv0+pUqUwMjLCyMiIggUL0qlTJ91SscuXL2flypX8+OOPuiEvafN/N2zYkGvXrtGuXTu95xVv1rZt23RL2wohRF6U3jVHvFtCQ0PZuHGjMixygBx/hvQS8CJFijBgwADKli37YjhdderUISEhAT8/P2URPB+u4uPjQ3R0NGfOnKFZs2Yvnf6nW7du3Lx5k23btum2Xbt2sWnTJiwtLeH53N6XL19m+PDhuucbPnw4x44d49ixYy9d1loIIYQQQojcpJeA29jYMHXqVFq3bv1iOF116tQhPDycli1bKosAMDU1pUGDBhQuXFhZlCEjIyMqVapE586ddVv79u0pUaKELtlWqVTUqFFDb/rBwoUL06RJE4OeeA8PDz799FMKFSpkUCaEEEIIIURueOWZ0VUq1Ut7tHPb4MGDCQgI4NixYwbTGAohhBBCCJEbXjkBF0IIIYQQQvx3Rs7Oztp79+4p42+cRqORYSFviadPn+pumhUiqypXrsz+/ftfet+Gm5sbY8aMoWPHjsoiIbJMrjlCq9Wi1WplWfRc8C4df1ZWVlhYWBAeHq4s0rve5VorfFf+I94FxsbGknwLIfI0ueYIIyMjSb5ziRx/hqQlCiGEEEIIkYMkARdCCCGEECIHSQIuhBBCCCFEDsq1BHzBggXKkMintm/fTkBAgDIshBB5hlxzRFhYGJs3b1aGRQ6Q489QriXgKSkpylCWnT9/nmLFilGqVCmcnJxo2rSpwd2mWq2W8PBwYmNj9eLC0K1bt/jzzz/RarU8fPiQnTt38ueff/Lnn3/i7++Pl5eX7rGPj4/evn379sXHxwetVktKSgphYWGEhITobVFRUWi1Wr39hBAiJ73ONUe8HbRaLRqNRhkWOUCOP0O5loC/rsaNG+Pn55fhQjtGRkZMmzaNpUuX6sWzS0pKCkeOHCExMVFZ9FLTp09n3LhxynCmRowYwapVqwA4fPgwPXv2JCEhQVntlTg4OLBs2TLmzJmDpaUljRo1onHjxly+fJlr165Rt25dGjduTKFChdiwYYNyd50rV65QvXp16tevT8OGDWnYsCE1a9akc+fO2fZehRBCCCHyu3ybgGdFw4YNuXLlCg8fPuTMmTP89ttvTJ48maSkJGXV/ywsLIzJkyfTvn17QkNDlcWZUqlUWFtbK8OZfjuPiorSfcmwtrbm8ePH2darXLhwYVauXMm+fftQq9U0bdqU+vXrs27dOqysrBgzZgw1a9Zk4MCBmJmZARAfH09ISAiPHz8mPj6eyMhInjx5ovfFKCAgAC8vLwoXLqx8SSGEEEKId9ZblYCnDZ+YNGkS3bp1Y8SIEWzatIkKFSowbNgw7t27R/369TOcs3rFihUMGTJEGU5XqVKl8PT0xNXVlUaNGnHp0iVlFSIjI4mPj1eGdVJSUvD392fdunV8/vnnFC9enMaNG/Pw4UNl1Vdy48YNgoKClOF0OTs7c+jQIapXr46LiwsHDx7kwIEDnDp1CmNjYzZs2ICPjw/ly5fn5MmTHDt2jEmTJnHu3DmOHTvGkiVLCAwMVD6tEEIIIYRQyLUEfNiwYcrQa4uLi2PLli0A9O/fH09PTxo0aMC5c+c4ffo0s2fP5uOPP8bc3Fy5KwB16tTB39+fR48eAZCUlMTVq1f57bff2LFjh0GPc8GCBZkzZw5Dhw7l5MmTeuUpKSmMHTuWrVu3AhAdHa17rm3btjFu3DgKFixIp06duHz5Ml26dKFGjRp06dKFIkWKvPAqr27Xrl1cuHBBGc5U8eLFGT16NEeOHGHhwoW0a9eO0aNH4+XlxdGjRylTpgw1a9akbdu2LF++nGbNmjF58mRWrlxJuXLllE8nhBB5wpu45oj8xcHBgW7duinDIgfI8Wco1xLwtKEM2cnZ2ZnNmzczefJkWrduTZUqVShSpAh37tzRq5eQkGCQTEdHRxMcHMzdu3dp3rw5xYoVo3z58vz0009Mnz6d0NDQdHvOVSoVI0eOZMiQIXrlu3btwsfHh5YtWwIwZcoUOnbsyM2bNylfvjyTJk0iJSWFK1euMG/ePDQaDcbGxgwYMOCFZ39Gq9WSmpqqDGcbDw8P3c2sAQEBxMTEEB0dzalTp7h+/TrHjh3j/PnzpKamYmlpafAFRqVS8fTpU1JTUzlx4gRVqlTByckJJycn2rZtS0xMjF59IYTIaW/imiPyFyMjI0xNTZVhkQPk+DOUawl4TlCpVBQvXpyVK1fyzTffUKtWLczMzKhduzYRERG6eps3b8bFxYUtW7bg6OhI9+7dCQ4OJigoiB49euDm5kbfvn31njsz3t7e/Pjjj6xYsQJnZ2cA5s2bx+3bt1mwYAF16tTBzMxMl7CfOXOGH3/8kWnTpqU7XjohIYHY2FiKFy+uLNLx8/N75buMe/Xqxe7duwEyHIOuFB0djbe3N9evX6dbt25UqVKFY8eO0aFDBwIDA/nmm28YN24c4eHhHD58GCsrK+VTCCGEEEK8k96qBPzmzZsMGDCAKlWqYGZmhp2dHTt37sTX15f33nuPjRs38vDhQ27duqU3a0qPHj0ICgri999/Z/To0Vy4cAEjIyO8vb359ddfmTt3LgULFtR7rfRotVrWr19Pt27dmDlzJg0aNFBWMaDRaDh//jy//PJLhvXDw8MJDQ2laNGiyiJ4nsB/+umn3Lx5U1mUJVZWVtjb26NSqbh7926mM5ZERkYSFhbGwoUL2bhxIwBr167l9u3bVK5cWVevcePGeHt7Z8sNr0IIIYQQb5N8mYCXLVuW0aNHU6BAAb14kSJF+PDDD/nzzz+JjY0lPj6eXbt2UapUKT755BOqV6/+0p7Y6tWrExISQmhoKFqtluXLl+t6sTMTGBhIp06dGDVqFNu2beOzzz5TVkmXSqXi66+/pn379soiHU9PTypUqICTk5Ne/OnTp+zfv5/PPvuMn3/+merVq+uVvw4bGxsqVapEamoqpqamVKpUSW/YzsSJE1m7di3VqlXTfTnx9fWlfv36ANSoUYO4uDiuXbum20cIIYQQQuRiAr5kyRJlKMuKFClC48aNMTEx0YsXK1aMbt26Ub16dV1yXqZMGWJiYvSGnGSmRIkS2NnZ4efnx4cffki1atWUVXRSUlI4ceIEbdu2xdnZmZIlS3L79m1atGihrGrgwYMHBuPQAYOx3mfOnGH27NkMGTJE798bFBTEl19+yRdffMH69euznPBnJD4+npiYGIoVK0ZsbCwLFiygV69e9O3bl969e9OqVSvmzp1L4cKFKVGihN6+Pj4+XL9+ncOHD+Pq6grPpzbs2LEjs2fPfuWhMUIIkV1e55oj3g7h4eFs27ZNGRY5QI4/Q7mWgL/KAjavwsbGBmtra4MbMTNSoEABGjVqxOHDh5VFepYtW4aZmRnu7u5Uq1aNwMBAFi1alO783kqtW7dm06ZNODg46G5WLFGiBEZGRvzyyy+6erdu3aJnz558++23NGnSRBePiIjgwoULODo6cvPmzSwl/Jk5e/YsnTp14tNPP2XAgAHcunWLHTt20KZNG4yMjFCpVPTo0QNPT080Go3B6qKpqakcPnwYa2tratWqpYv36NGDhw8fMmbMmBz7/xZCiPTIOUg8ffqU5ORkZVjkADn+DOVaAp5TrKysGDhwIA4ODsqiDDVu3JhTp05lOnvHgAEDiI2N5dGjR/zyyy84Ojoqq2Sodu3ahIWF4evri4+PDz4+Ppw/f57ExETGjBmjq1epUiVOnDjByJEj9WZYadOmDbGxsekm/CNGjNAl9VOnTtUry8iNGzeYMWMGEydOxMvLC0dHR/r06UP58uV1z+Xk5ISbmxsjR47k3r17HDhwgIoVK3L06FGsrKw4cuQIY8aM0RsrX7hwYTZs2MDNmzfZuXOn3muKt0+/fv1o1aoV+/bty/LNvEIIIcS7yMjZ2Vl77949ZfyNmzt3LqNGjVKG84S0YSDKIS75QXR0tN43TVtbW4Ox8tlt27ZtNGjQIEtj5cXbKzQ0lPfff5/Y2FhsbW358ssv6dWrV4az91SuXJn9+/dTpkwZZZEeNzc3xowZQ8eOHZVFQmRZXr7miJwRGhqKt7c3vXr1UhaJN+xdOv6srKywsLAgPDxcWaR3vXvre8BfhYmJSb5Mvnk+5MbR0VG3venkW4g0xYsX5+DBg9jY2PDo0SMWL15MgwYN6Nq1K97e3jx9+lS5ixBCCPFOyrUe8PDwcCwsLJRhkQ8lJSVhamqKSqVSFol3UFBQEB06dNAbwmVhYYG5uTn9+vWjb9++2NvbSw+4yFEJCQlYWloqw+IdkjYGPCvTCovs9S4df1ntAc+1BLx79+6cO3dOGRZCvAVSU1PTvdkp7ZelefPmMX78eEnAhRBCvFXyfAIuhHg7eXt78+WXX+pNPyk94EIIId4FWU3AZQy4ECLbeHt7M2DAAFJSUjA3N8fU1JSmTZuybNkyrl69yujRo/VWoRVCCCHeRZKACyGyxf79++nbty/JycnY2Njw7bffcubMGbZu3UqrVq0wNpbTjRBCCEFuJuDLli1ThkQ+tXfvXoKCgpRh8Y7x8fGhYcOGrFmzhqtXrzJq1KgMpyAUIqfJNUdERESwfft2ZVjkADn+DOVaAh4XF6cMiXzq8ePHurnTxbtr4sSJ/P3333z00UcyI47Ic+SaIzQaDQkJCcqwyAFy/BnKtQRcCCGEEEKId5Ek4EIIIYQQQuQgScCFEEIIIYTIQbmWgA8cOFAZEvnUxx9/TIkSJZRhIYTIM+SaI4oVKybrCeQSOf4M5VoCXrhwYWVI5FOWlpaYmpoqw0IIkWfINUeoVCqsrKyUYZED5PgzlGsJuBBCCCGEEO8iScCFEEIIIYTIQZKACyGEEEIIkYNyLQFftWqVMiTyqX379hEcHKwMCyFEniHXHBEZGcnOnTuVYZED5PgzlGsJ+KNHj5QhkU/FxcWRkpKiDOcr0dHRhISEpLslJSUpq79Rmb0X5ZbT702I/EquOSI1NVVWZMwlcvwZyrUEXIj0hISE4OzsjJGRUYabpaUl58+fV+4Kz5ca/vfff9mxYwf//PMPUVFRyip4e3vj5OSkt1WrVo1SpUpRt25dGjZsqLcdP36c+Ph4unTpordPqVKlUKlUFClSxOD5RowYoXu9vXv3MmTIEDQajd77yMhff/3FpEmTsrT5+fnp7Xvp0iUGDRqkt7Vq1YqmTZty//59vbpCCCGEyB1Gzs7O2nv37injb9zcuXMZNWqUMizyoW3bttGgQQOcnZ2VRTlGq9Vy+PBhhgwZgrm5OcHBwVStWpWbN2/SuHFjfvvtN4oXL67cTSckJIQePXqwefNmHB0dlcXpCgoKonv37qxbt45y5copi3WmT59OgQIFdEn5iBEjuHPnDvb29gDcuXMHV1dX5s2bp9vHx8eHBw8e6B6np3Tp0jRs2FAvFhQUxKlTpzAxMcHFxYUnT57wxRdf0KFDB8aMGZOnpousXLky+/fvp0yZMsoiPW5ubowZM0bm7xWvRa45IjQ0FG9vb3r16qUsEm/Yu3T8WVlZYWFhQXh4uLJI73onPeAi39NqtcybN49hw4axdetWjhw5Qq1atfj1118JDg6mUaNG9O3bl5iYGAASEhIYNGgQvr6+jBgxAicnJ+rWrcuxY8eoW7eurgc7PDyc7t276w4iZe/yt99+y507d5g6dape/IcffiA6Olr33vz8/Khataru/Y4ZM4b+/fvTunVrWrduzXfffceYMWN05QC//fYbZ8+e1Yu96N9//2XNmjXKMCVLlqRz58507NiR1NRU+vfvz4QJExg3blyeSr6FEEKId1muJeBffPGFMiTyqdatW2fLSpgpKSmEhYUZjHPOaEsb/3zhwgU2b97Mnj17cHV1JTQ0lPj4eN0QkREjRlC6dGk2bNgAz5Pi8PBwnjx5QkpKCtu3b+f8+fM0bdqU8+fPs337dlJSUtBoNISGhuqGjjx48AA/Pz9at25NQkIClSpVYsGCBbRs2ZIbN25Qv3596tevz8GDB0lMTITnyX5sbKyutxvAwcGB9u3b07lzZzp37kz79u1xcHDQladp0qSJro5ya9WqVaYJ9aFDh/jiiy9YtGgRn3zyCUZGRsoqQrxT5Joj7OzsaN++vTIscoAcf4ZyLQG3s7NThkQ+Vbhw4UyTwawKCgpi+vTpTJo0iR9//JFatWoxZMgQJk2aRN++fXnvvffSHf+8bt06vvjiC91PO/7+/tjZ2elW3jIxMaFTp07s37/f4KZFrVZLZGQk4eHhWFhYEBMTQ2RkJFqtVq9emrJly9K5c2dcXV1xcXGhcePGNGrUiJIlS+Lu7o67uzuWlpa6+gkJCcTHx//nLyjGxsb0799fN6a8RIkSqFQqSpQogZOTE59++mm6n7lWq2Xt2rV8+OGH3L17ly5dumBtbc3777/P9evXldWFeGfINUeYmJjIioy5RI4/Q7mWgAuhVKZMGRYsWMDy5cuZMWMGlStXZtGiRSxfvpyhQ4fSrFkzli9frttq1apFfHw8d+/e1Y2F1mq1/PPPPzRp0oQCBQrontve3h6VSkVqauoLrwhJSUl4eHgwe/Zsbty4waxZs/Dw8DBI1NOzceNGJk2axM8//8zdu3eVxQA8ffoUnifUWZWamoqxsTFeXl4EBAQQEBDA8ePHadmyJVeuXNHFXhwzDpCYmMjIkSNZuHAhx44dIyQkhHv37hETE8PYsWPp2LEjZ86c0dtHCCGEEDkv61mBEDkoODgYc3Nzvd7krAgPD+fKlSu0a9dOL37//n1SUlIwMTHRixcsWJDx48czd+5cmjVrxqJFixg/fjwFCxbUq5eeoUOHsnz5chYtWkSVKlWUxTrm5uasXbsWHx8f7t27x9KlS3ny5Imymk5SUhJ37tyhbdu2uh7wRo0acejQIWrVqqU324qHhwc872n/8ssviYiI4NixY7z33nuoVCoAjIyMaNOmDcOGDWPjxo2KVxNCCCFETpMEXORJp06donLlytjY2CiLAAgMDCQhIQErKyvKli3Lrl270Gg0rF69mpIlS+olxDExMSxdupT27dvr9YrzvNd42rRpjBo1CrVazdChQ5k2bZpuDHdm+vbti5OTE1WqVOHUqVPKYp2wsDDOnDlD+fLl8fX15fTp05iZmSmr6URHR6PRaPD29sbHxwcfHx+GDh2KkZERX331lS7m4+Oju5vf0tKS2bNns3r1avz9/alduzYlS5akefPmBAYGAmBra6u7EVUIIYQQuSfXEvD169crQyKfOnDgACEhIcrwK7t//z5r167l888/z/Dmwd9//53FixcD0K9fP5YsWYKtrS3r169n5syZup7uwMBA+vTpg1arpUePHopneTY10m+//cbcuXM5efIk06dP1z1+mXXr1hEQEICfnx9ubm7KYgBMTU1JTEykZMmS2NnZUbBgQc6cOcORI0d0N5MGBgZy/PhxXdJ/9epVSpYsSbVq1XB0dCQ+Pp79+/ezY8cO9u/fz4MHD3B0dMTR0RErKyvda5UuXRpTU1MWL17MhAkTCAoKYvDgwYwYMYKwsDDWrl1L27ZtX3h3Qrw75JojoqKi2Lt3rzIscoAcf4ZyLQFPb35EkT9FR0dnOqTiv/D396dLly507dqVRo0a6ZU9fvxYl7SGhoZSsWJFAGrXrs21a9fYtGkThw4dwtnZmR07dlC/fn3KlStH2bJl2blzp97NNzExMbRt2xZXV1eDhXcaNmyIq6srdevWNZiLW61WM2jQILZt28aiRYsYNGgQQ4cORa1WM2rUKEaNGkVERISuvpWVFWXKlOGDDz4AoHnz5kyePJn//e9/VKxYERcXF9577z3Gjx/Po0ePSExMZOnSpXTo0AGtVsvvv/9O8+bNGTFiBO3atWP+/Pl069aNKVOmEBYW9sI7+3/16tVj2rRp/P7778TGxnL48GHKlStHnTp16NSpk7K6EO8EueaIlJQUWZExl8jxZyjXEnDx7klMTGT8+PEZzjBy7do1evXqxZgxYxg9erRe73e1atWIiIjQJcjXr1/X63V2dHTE3d1dt4hOs2bNmD9/PrGxscyfP99gLLmVlRUbNmzQG86h3Ly8vAxmLyldujStW7fmhx9+YNCgQbRu3Zp27doxZ84cPv30Uz744AMsLCx09QsUKMDEiRN1N4mqVCq6du3KpUuXiI+P5+HDhwQEBHDkyBFKlChBVFQUjRo1wtTUlBIlSnDkyBFOnz7NZ599Bs+T68uXL1OgQAHq1KnDwIEDDb78fPXVV6xZs4Zbt25x8eJF5s6di5+fH7NmzUp35hQhhBBC5CxZCVO8tpethHnt2jVWrFjB9u3bsbS0RK1Wy5REQlbCFDlKrjlCVsLMPe/S8ScrYYpclZiYyIYNG2jWrBldu3blzz//xMzMjL1790ryLYQQQoh3Wq4l4PIN9O3RqlUr3dCPGzduMHz4cKpXr860adPw9/fn4cOHFCpUCG9vb8qWLavcXQgh3ji55gg7Ozu5ET2XyPFnKNeGoIi3R1JSEjt27GDJkiUEBQXx5MkT3fLtPJ8H293dnUKFCuntJ95tf//9twxBEUII8VbJ6hAUScDFa3sxAX/w4AGpqal6CbhKpeLzzz/PdLEa8e6ZOXOmJOBCCCHeKpKAi1xx48YNli9fzvbt21GpVDx+/Bie94KvXLmSVq1aKXcR7yi5CVMIIcTbJqsJeK6NARdvp6pVq/Lrr79y48YNpkyZQsWKFTE3NyclJYU+ffqwf/9+5S5CCCGEEO+UXEvAN23apAyJfOrQoUMGK2EWLFiQzz//HLVazd69e+nSpQumpqZ8+eWXBAcH69UVQog3Ta454uHDh+zbt08ZFjlAjj9DuZaASxL29oiKijJYDOZFLi4uzJ8/Hz8/P5YuXWqwuI0QQrxpcs0RT548ITIyUhkWOUCOP0O5loCLd0/BggX55JNPlGEhhBBCiHeKJOBCCCGEEELkICNnZ2ctkO7dmm/S06dPMTaW/P9toNVqMTIyUoaFyNTTp0+pUKECZmZmyiI9N2/eRKPRyPlCvBa55gikHeSad+1zt7KySjevNpiG0NramoiICL1Kb9q79p/xNpP/S/Eq4uLicHNzw8LCQlmkR61WY2xs/NJEXYjMyHlKIO0g17yLn7tycgrSS8BlHnAhRE6TecCFEEK8S2QecCGEEEIIIXKJJOBCCCGEEELkIEnAhRBCCCGEyEG5loBv3bpVGRL5lFqtJiwsTBkWQog8Q6454tGjR3h7eyvDIgfI8Wco1xLwgIAAZUjkU2FhYSQlJSnDQrzUxo0bmTZtmm6bOnWq3uNp06YpdxHilcg1RyQnJxMaGqoMixwgx5+hXEvAhRDvttq1a3P16lW9be/evQYxZ2dn5a5CCCFEviYJuBAiV2zZssVg69y5s0Fsy5YtMgWhEEKIt4ok4EIIIYQQQuSgXFuI5+7du5QtW1YZFvlQaGgohQsXpmDBgsoiIf4TOS+IN0Xalnjy5AmRkZGUKFFCWSTeMDn+npGVMIUQQgghhMhBshKmEEIIIYQQuUQScCGEEEIIIXKQJOBCCCGEEELkoFwbAz537lxGjRqlDL+zfH19iYmJUYbzhaNHj1KlShUcHByURflCyZIl893NIWfOnOHJkyfKcL63detWunbtqgzne0ZGRlSoUOE/HyOhoaH8+++/aLVaZZH4j97WtpXTjIyMqFKlCkWLFlUWZSooKIi7d+8qwznq4cOHXLhwgVatWimLcpStrS0uLi7K8EudPXuW5ORkZThfyM/H36u2+fTkiZswJQH/f+PGTaRSpWoUKWKvLBI54N9//UhJSWT06JHKojzn2rUbrFu3ATe3ppiYmCuLRR6lUhlx5sxJypVzpk+fXsridK1atZbg4FDq1m2IRiMJuMgbjI3h5MmjuLpWp1u3LsridC1ZspSYmHhq1KirLHonRUSEcO/ebaZMmaQsStetW/6sWrWGhg0bY2oqs43lNGNjOHVKjatrdbp27aws/k/yRAL+9OlTjI1lBMzSpcuoXbsxJUuWVhaJHLRv3y6qV6+Im1sjZVGeMm7cRAYPzvtfFET6li2bz4gRQylSpIiySE9oaCgeHqvo3/9bZZEQecKSJXP46afxFChQQFmk586dO/z11y66d++nLHqn/fvvLQIC/OjTp7eyyMD48ZP46qsRyrDIYYsXz2by5AkvbfOZyROzoEjy/UxISKgk33lA48YfcPOmvzKc56SkpCpDIh9xda3LnTt3lGEDd+7coVatBsqwEHmGi4trltqyv/9t6tTJ2x0buaF8+Urcv/9AGU6XnPfzhipVamSpzWdVns6CNRrNWz/20chIGRG5RaWS/wzxZhnJAS/eEk+fZu3aLE0+O2TtsxZvlrFx9jbmXEvAw8LCmDRpEi8Of4mOjmbixIkcPXqUVatWMXPmTLy9vfX2E0IIIYQQIj8zBggJCeHPP//McLt8+XK290Q/ffqUo0ePYm7+/zeSJSYmsmvXLszNzbl06RLly5fn4MGD2f7aQgghhBBC5BZjAH9/f0aMGJHu9sUXXzBgwACio6OV+74xpqamjBkzhlatWjFz5kz52VYIIYQQQrw1jAGaNWtGQEBAutuECRMoXLgwZmZmyn3/s/DwcJo2bYqTkxN169bl2LFj1K1bFycnJ13sypUrtG3blvfee49PP/2U8PBw5dMIIYQQQgiRb710DLi/vz9lypTB0tJSWfSfFSpUiJ9++oljx47h5eVFgwYN8PLywsfHBx8fH7y8vKhSpQobNmzg5MmTzJgxg0KFCimfRgghhBBCiHwr0wQ8KSmJkJAQKlasqCzi/PnzWFpaYmRk9NLN2dmZkJAQChYsSMuWLXF2dsbe3h5zc3Ps7e1xdHTE0dERe3t7zMzMsLOzo1SpUjRp0oSCBZ9NOv8qryeEEEIIIURek2kCnpiYSHh4ONWqVVMW4er6bA7Q4ODgl25nz57F3v71VnnM6dcT4m20bNkivLx2K8MkJycRHh6q22JjY0hNTSEyMlwvnrYlJCQonwIArVaLRqPRiyUlJREREcbPP08gICDnF/3KCcnJSXh57ebw4QPKonwpJeUJ586dZtu2TW/kJvjk5CSioiIM2op492i1Wh49eqg7t0RGhpOamkJsbIzBeSc8PFSv3bxYJ22/rNq4cTUbN65Whjl+/AhTpoxVhvUo91WeP1/l/eRVGo2GuLhYPDwWEhSUtXnLRdZkuhLmnTt3cHd3Z8OGDdStm71LyAYGBtK/f3/mzp1LjRo1ADh+/DhDhgzhwIEDODg4KHd5K02aNJkBA/6nDP8ngYEBqNWH6dixCxYWFsriPM3P7zrDhg0gNjZGWZShuXOXYGdn/0r7NWnygTIMQFxcLOfPH6V376wtE55bvv9+LEOHjlGGAXj8+DGjR3/L+fM+uljBghZ8/nk/SpQoyZMnT1i2bCGtW7ejcuWqunI3t6b8+68/Gzas1O1Xq1Y9atWqy7BhA4iOfkRERDg2NraYm5sTHf2I7777nq+/Nmy3cXGx9OvXjc6de9K9+7MV3i5dOs+KFUvo1Kk7R48eYsKEaZiYmCh3NaDVavn77z8ICQli8OBhmJiYApCQkICJiQpz88xXI0tNTUGr1WJq+vr3r6TRarVMnToOGxtbhgwZjomJCXFxsfz443D69RvEypVLmThxOo6OJZS7AnD69HHKlnWgXr16yiI9J0+eJDw8gbp13/xiPBs3ruby5QtMmTKHggULkpqawuTJY2nZsg27dv1F//5f4+LiikajIT4+Dmvrwhi95Mb4x48fU7BgwQzreXvvY/nyRaxZszVLwxujoiIYNKg3w4f/kOExnF0SExMxMzNDpVIpi14q7Rh0c2tCr15fKovzhKSkJE6dOkZi4mNlEQAmJqY0aOCGjY2tskjPoUP7qF+/RroddC/6559/UKmsqVTp2TlHKTk5iTVrlnPv3r8AmJsXZODAIaxe7YGn504SEhJISEjA3t6e1FQNBQoU4O+/92FvX5wtWzZw6dI53X49evRh4sTRnD59QvEqz6xevYVWrT4CYOnS+QB07fo5gwb11iWXL75emrRrx8WL5wgJCWLfvj0AfPSRO46OJYmKimTQoN66fZ4+fcqTJ0/YsOEvatSopXsepbVrlzBhQubJPsCYMWP59tv0z/vZKTIynKFDB/Ldd9/TqFFjAC5ePMeWLetp06YdavVhxo/P2vn78ePHzJo1hQ8//MjgmP2v5+bjx48watQ3ynCGrK0Ls3DhSiIjw19pvypV0m/TWW3zmcnyUvTHjx9nwIABeHt7U6pUKWVxttJqtUycOJHbt2+zYcOGLP0Hvw2yIwHfvn0ra9cuZ+PGvylUyFqv7GUXwpSUJxgZGemSm5yWmppCdPQjnj59qhdfv34VAH369NeLAxQubINKpTLY7/Hjx/zvf1/RqVN32rRpp7cPz/fLKGl7GxJwrVZLdPQjzpw5xbp1K5gx41e0Wi2jR3+LjY0tMTHRBAY+oFmz5vD887p2zZe1a7dw+7a/3gW5YEELqld35caNa5QsWZpx40awePEq7OzsdReu9BLwv//+g3XrVrB27VZsbZ8tt56YmMi8edNxc2uKq2stbG2LvjS50Wq1z/8Nk5g7dwnu7p/q2vDSpfOZMeMn5S7patGiDUuXrqVgwYIEBgawYsVvJCcnKqvpKVGiFAMGfJPul9lbt/z48svuzJu3lAYN3HTxY8cOc/z4UXr06IO9ffF09yWbE/DY2BiWLPmVmJhHyiI9hQpZ89VXQ7GzM/xVMCoqgp49O/LVV8P47LNuuvitW36sWLGYb78dibV1YWxtixAeHkqHDq0ICgrUe470mJiYsHr1Fj74oJWyCF4hAQ8PD6VXr8+YM2cxNWvWURYbyOpn065dR5o2fXY8ADx69JAvv+yOvb0Ds2YtfGkSqpSQkEC/fl3p128wbdu2VxYbyI42+V89evSQhQvnZJiAm5qa0a/fV5QrV0FZpCerycjLEvDbt29y65afXqxSpSq6a9e+fXsoUKAgAwd+Q3h4KN9+25/Fi1cRGxtjsJ+jY0lq1/7/Y2v48MFUqlQl3XPV0qXzUasP89VXQ6lRo6auV/3YsSMcOODFlCmzdHXTrh1pCb+v72UAatSoSa1a9bCzK8bevTv49VcPeN4OvvvuWSKbUwn44cMH2L//2ReDzDRt2px27Toqw/D8y/i2bZv0zt9arZaZMydTr15DKlasTOnSzi89f8fFxTJ69FBu3LjKunXbKFOmnK5Mo9GwaNFctmxZz7JlG7J0PCcnJxETYzgT38SJY/jww7Y0baqf4BsbG2NjY4tGozHYLzIykq+/7suECT/j6qr/f5O2X0b5UFbbfGYMlqIvXry4wThqIyMjmjZtys2bNylduvQbH1u9d+9ePDw8GDJkyDuTfP9X165dISQkWC+WlJTE33//waefdjVIvgHGjRuBs7MtTk426W7Vqztz48Y15W45yAh//1s8farl6VMt5875cO6cDwEB9wgIuKd7/PSpFjMzcwIC7qFSmWBiYoqdnT329sV1m7GxMampqbz/fku9eNqWUfL9tjAyMsLWtgiPHydQsWJlnJ3LUqyYA4UL2/Dll19jamrGhAk/8/nn/YiOfsT//jeGokWLKp9Gx8jIiGvXfGnfvgXJycmoVM+Oy7i4OIoXN+zhvXfvDtOnT+LixXPUrFlO18YqV3Zk/fqVFCtmj52d/UtP3klJSUydOo4FC2azZs0ftG//md4XyK+//h8BAdGZbl5eaooVc6B//8G6+0gePXrI3r07ePw4/cQDICoqEh+fk+kOu0hNTeHXX2cSGBjAt99+SaNGLjRq5EKDBlX56qve1KxZmzJlymVLkpQVSUmJeHntIioqUlmk8/jxYw4dOmDwBZfnF9Y1a5Zz48Y1pk+fpPv3NGrkgrv7B5QrVwFn57K6C7G9fXFOnbpq8Fm/uN25E0mvXl/y/vutaNSoie51hg8fTL16VXTPP3z4YM6cOUXz5vV0sfLl7ZkxY5LiXf4/Y2NjjI0zHTWZZSkpKezbt4fk5GS9uK1tEZYv30BsbCyfftqG27dv6pVnlalp+hdwpddtk6/C1rYIkybNYObMBeluU6fOeWny/aZpnw9l++mnH/nll+nY2RVDq9WSlJREoULWr30unzTpBy5dOo+TkzOenjuZO3c6n3zSkk8+aclPP/3AP/946h5//fUXxMfHAdC9e29mzlyAu3tH3N07MnPmAt0vfTxPLqOiIoiICOPJkycvvOKb5+d3DbX6sDKsx9f3cobDAO/du8P8+bO5efM6bds21R2XdepU5PDhf6ha1YUyZcq99PwdGBhAjx4diImJ5s8/PfWSbwCVSsW3346gZ88v6NLlY/76a8tL27ZWCzdv3sDMzJzY2BhdXhAZGc6tWzc4d86HS5cuYGZmztOnWh48CMDExBRz8wIGeUBCQjz29g7Ur9/IoMzOzj7D5PtNMAG4fPlyuidoJZVKlekF+1VERUXx008/sWrVKjw8PGjS5NlJW+h78iSZv//+gw0bVjF16lw6d+6BSqXiypWLBAY+oGXLNspdAPj553nMm7c0wx7w1NRUZShHJScn8+uvMxg0aCgAS5b8So0aNfn3X38A1OpD+PpeZvjwH3BwKI6Hx0IWLFiBiYkJS5fOZ8GC2djY2BId/ayny8bGlq5d2+k9jo5+RNu2n+h6J952ly6dp1atZ0PGLC0tWbHidzw8FhIYGEBiYgJr1iyjUCFr/PyuMX36PEqXLkNsbJzBEJTmzT+kV69+HD9+hIIFC/Lxx++zdu1WQkKCqFOn/guv+KzHI20YxpAhw/XaW9ovNMoTsZJWq+XUqWOMGfMddnbF2L37EKVKOSmrGXj8+DErVy6hZcuPcHGpQUhIMD/88D8GDBhi8NOnnZ0d48dPxd6+uF48ja/vJRYsmK0Mo9VqWbHiN/z8ruPpqcbOzk5Xdu2aL6NHD6V0aWe9fXKChYUFw4aNzrCXLa3HMD1eXrvZvHk9W7bsokKFSrp4eHgY/fp1o0KFynr103Pu3GnOnTtDv36DMDMzZ+PG1Zw/78Pq1VsoUOBZkpTWFn788SeDnqo0ycnJjBr1TaY9zk+fPs3SdYrnPyX/+GPGv5IkJCTw4MF9ZRiAYsUcWLPmDyZP/pHu3TuwefMOKlasoldn48bV1KxZJ8PPPSUl62N/X7VNvoqMfnFUKlCgINbWhZXhN6J0aWe8vffrDUFxda1NxYpV6N69N3FxsSxfvojLly/QoUNn3S+2ZcqUJyIigkePouD50JmyZcsTGhpCSEiQXk/4ixISEoiNjcbBwZFixexxcXGlQoVKDB/+rIc5vR5wY2MVkZHhfPVVH+7du4up6bPOiGXLFmFnV4z27T97Xs+Y/fv3cuXKRRo1amzQbt60hg3fY+bMBcqwTtqvl0pp5+/mzVsxYsRYVKr//6K7atVSLl48h61t5rlfUlISa9Ys49dfZ9C370BGjhynOwcomZiYMnToKMqXr8jw4YNJSkrk88/76dXx9b3E5csX6NXrS2Jjo/n55wnMmbOY48ePcPz4UUqXdiI4OAhz8yvExERz+fJFZs9eSFhYKHv37tD9/w8fPhhv731YWloSHh6OpaUllpaWtGnTWO9xeHg4o0ePS/fXkjfFGMDBwUE3E0lmm739y3uv/gutVsu5c+f4999/OXfuHH369MkwUXzXmZmZM2HCz6xf/xfz58/i22/7ExISzNKlC2jXrkOGiYqFhUWmn6mJiUmGvzgMHz7YoMfcycmGGjXKcP36VWX1bJHWq/BiD4O7e/o/lwF89933nD59je+++173t/Lxd999r9ztrRUTE82FC2eZMmUsjRq58PXXX7B16+/88st0KlWqwokTao4dO0x09CPU6kM8eBAAQIUKFRkx4kfd9vHHnxAfH8eECaMpV64CixevZsGC5SQnJxEQcA8Hh/9PFqKjH/H111/g7FyG/v2HvPBuXv4LDc97jc6f9+HTT1vz+eefEhUVyZQpszNs00parZbjx48QEhJEYGAAgwb1okaNWgwcOCTTtp9VGo0GD4+FbNiwisWLV1GtWnW9XpP79+9StapLjl9sX5VWq2Xv3h2MGzeSOXMW8t57zfT+PZGRERQpUpTatV9+3090dDSHDu3nyZMnrFmzjN9++5U5cxZTsmRpZVUKF7Yx6HFK2woWLEhISDBVqrgod9OJi4ulffsW9OzZEW/vfW/0BrcCBQowadIM1q3bavBF5NKl8yxe/AuJiRkPG/nqq960bduUv//+I9Pe7Zx248Y1GjeuSb16VTLdWrRomGM33JmZmdOtWy/duWfo0BHY2ztw9OhBfv11FjNnLmDlys107NiFM2dOUbiwTaa/Ml29epn16/+/M0Hp2Q3mqVhZFcLExAQHB0d+++1X5s2bwbx5Mzh79hQ2Nja6x/PmzeCPPzZSqJA1K1duonbtumzb5snx45dp0aI1s2YtxMXFlQcP7uPltQsbG1uaNWtB+fKViI01HDaR16SdvwsXttHdv5J2XFpb23D9+lU+/rhDhkPFHj9+zJYtG3Bzq86cOVOpVasu//vfDxkm32mMjIxo164j27cf4NNP/3/4G8+P9enTJxEaGpJu73i/fl8xc+YCGjZ8T/d3/fqNlNV0fv3Vg9Onr9GhQyfd38rHHTp0Uu72xmXP73mvyMjIiDZt2uDp6flaY2reJY0aNcbLS83TpxoaNXIhOPgB/foNypZE40VarZa5c5cY/MS8d+8RSpYspdcDmGbp0vkGyXpG2/Dhg5W7A7Bnzw5++OE79uzZofd3VqTV/y/7vG1u375FcHAQ8+cvY/XqPwgPD2XNGg/s7R0YNmw0U6bMoWbNOgwbNpqZMxfQvPmHz/fz17vg7N79NwsXzqFKFRf69fuK06eP4+/vx6ZNa+nUqQdVqz5LlG7cuMZnn32Eg0Nxxo2byqxZk+nZs6NuqNTp08cJDg6idWv9MflarZbAwAAWL/6FevUq07t3Zz75pBOHDp3Byem/9SQnJyeRmJiItXVhDh8+wMcff8KUKbOy5afE6OhHfPttfzZtWsv69dtwcXl2w3iayMhwNmxYTZcuPV96wckLkpKSmD59IuPGjWTRohW0aKH/y1lSUhKrVi3lo4/apztmXCksLIQiRYoSExPNlSsX2bRpB66utZXVXsrP7zpGRkZUrVpdWaRTqJA1S5eupWpVF/73v6+oVq00U6eOIzg4SFk1WxQoUAAXF1e9c2tQ0AO++24QnTv3zPSCP3PmfD75pDMzZkyiWrVSDB8+GH9/v3STiVeRUedIetuLvZ41atTi5s0Qg/P6i9vw4T9Qr14DHBwc9V7zTXnyJJk//tioO/csWjSPw4e9WbNmGcuXryc0NIigoAds376N4OBAvvlmBEZGRmg0qVy+fAG1+hBq9SFOnFDrhoq8aMaMn3B6PhTO1/cS8fGx1KpVV7fGiItLDXr3HqDcTadWrXoMHjwMMzNzAEqWLM25cz5cuHCWuLhYihd3RKPRcOHCOWbM+ImjRw9y9OhBfvrpBy5fvqh8ujzl8uULtG/fAju7Ysybt9Sgk+T06ePcvfuvwS/sqakpXLhwluHDB1OtWinWrVvOkiWrWbp0nV69rHBxqaH3hSo1NYWff55AfHwc/ft/nW5us2bNMn744Tt8fE7q/j579rSyWrrS6qftn5tyJQFPSEjg4cOHyrDIIhsbWzp06IJKZcL9+3e5cOFctp3Y0xgZGaX7a0dYWCiWllZYWFgpi+jTZyDnzvllaZs8+f9/3ntR8+YfMmLEjzRv/qHe31lRvnxFmjVr8bz3oWK+6ZHMLqmpqfzxxwbi42MpUqQodnZ2ODmVYf36Pyld2ok+fTrTvHk9Dh7cT58+nWnUyIXjx49AOj3g7dt/xtixUxg8eBj29g7s3Pknx44d4YcffqJnz7665PbZz+dTmD17EYUKWTNmzCSqV3fl/ffrMH/+LH75ZTr9+g2iRImSeu9Vo0ll4cI5nDx5jDlzFnPlyh2+/HJwhr0smUlOTiYl5QlWVoXo3bs/X3/9v2xJvgGsrKz49NOu7N59yKAnVKvV8scfGylatCgtWz6bWSGvMzc3p1mzFuzZc9hgeA7AgQOeBAcH0a3b/49rzcyjRw+xti5MqVJOzJ+/zOAz4nm7rFWrbrrnE56X79r1F82atdD7ZUUpNVWDvX1xJkz4mcuX7+DhsY4zZ07Rpk1j/PyuK6tnu4iIML77bhDOzmX56quh6SYGaQoWtODrr7/jzJkbbN/+D1FRkbRp0zTbpqmcPHmWwTk1o61Pn4HK3TMUGRnOvn276dChS4a/jGa39HrAW7Zszdq1WylfvhKmpmaMGvUNTZq8z08/zdSNT09vv+LFDb80/PjjTwQERHPzZgg1atSiYsUq9O//tV6dkJAgoqOj9c6BI0b8SP36bvj4PJtRJTExkfHjR7F//x5+/PF/9OnTCV/fSwwbNpCoqEjc3Jrg4uLK6NHjGT16PGXLltfNNpVXlShRksmTZ/LLL78Z/KoQFxfL4sW/8PnnXxgMrwsNDWHcuJEUKFCQAwdO4ump5r33mmV4jGdVamoKixb9wv79e/n55190958offZZN0aM+BFX19q6v2vUqKmslq7q1V11eULlytUyPee8aTmWgF+4cJGffprKDz+MZ+FCD9au3cTEiVMZM2Ycy5atzPYE8m12/rwPEyaMZtGiFUydOpdvv/2SdetW5MhnGBYWQrFi9un29llaWhr8tJzRltH4wrTnSBuXlfZ3Vjg5laFevYbUq9cQJ6f/v9P4XREWFsq///qnmwQVKmTN+vV/cvjwOVq2bMP69X9y+vQ1XRJ29uxp3U1Hn3zSkvnzZ5GamkJUVATTpo1n4MBvadLkfQ4c8MLH56Tu3oFixRxo0aKN7sRboEABxo2bytq1W1m3bgWRkRG8/35LvffC8zGAs2cvYtOmHbRq9dFrJcw3bz7rPU3v4vu6TExMad3643THJnt57Wb16mWMHTsly200txkZGdG0afN0h/dcunSen376kZEjxxp8YUpPUlISPj4nXzqLgYmJCX37Dszwi/SFC2c5dOgAXbt+nmlSm5iYoJvRQKVS0aJFG3btOsjRo+f1xrC/CTduXKNr1/ZYWFiyZMlqg55CpdDQZ78AGRkZUbt2Pdav/5Nz5/x0MxC9Lmvrwgbn1Iy2rLbNtC+Udnb2NGvWQln8xqQltmnnnp49O3L7tj/x8fGo1Yc4fPgAf/yxh2PHDnP27GndTYTp9ZyHhr76JBEv3nj54g2ZaSwsLFiyZLXBEMe//tqHvb0D9vYOVK5clT17dnD16hUcHIpTosSbnT3udSnP32nSeqFNTc3SnU6zVCknvLzUzJjxKxUrVsn0uM2q+Pg4Ro8eyvr1K1m3blumv6SlDWcrWLCg7u8CBZ7dbP8ylSpV1eUJxYoVUxbnqBxJwKdOnc6JE2fo338Y33wzml69BtClS28GDhzGt99+j4tLPX74YTwHDhxS7ipeoNVqOXDAi379ujN06Eg+/rgDXbr0ZP785UybNgEPj4W6JFyrWNzgZVtycpLy5dJ165Yf5cpVfGO9IwsWzKZRIxcWLJit93dWrFy5RHfiXLlyibL4rVeyZCkWLlyZ7hzUcXGxmfaAJyUl0blzT3btOsisWQtJSUnh4sXzjB8/mrCwMDSaVHr1+pKPPnJn4cI5nDp1TPkSOo8fP2br1t8pWtQOZ+cydO3aDn9//enCsktSUhLr1q2kdet2FCmS+U1C2en48SNMmDCaH36Y9NIEND+4ffsmQ4cOoFevfrRu3VZZnK6zZ09x796d10rWzp8/w1df9aZ//6+pXj1rPVgvMjIyokiRom/sfPTo0UMmTvyetm2b0qpVG5YvfzYW+FU8e5+v/kXzTUpNTWH+/Fn8+ecWZs9emOWkPTtotVpUKhWrV//Brl0HqVWrLo8fJ/DTT2M4deo4jx49xNGxBFOmzCYsLISff55AUlISqakafHxO0rbtJ4wY8SOJiQk8evTqv6x36NBJNzY4bVPeuL9lywaDIZIeHgtJSnp2P8Cnn3Zl+/atTJ06ng4dOr+xdvkmpfVCnzihZurU2a/c3rMqNTWF7du30qBBNe7du8Pu3YcyTb55PgSrUSMXdu78S/f33r07ldXS9dNPP+jyhIMH/1EW56g3noCPHTuBli3b0bFjd2WRjrNzWb799nsuXfLlzz+3K4vF82+HkyaN4bvvBvHLL7/Rt+9A3bfOtm3bs3DhCk6dOqab/ePx48d89VVvg5trMtqOHXuWiPHCVErKJD0o6AH+/jexsLAgPDyUR48eZmuve6tWH+HnF8zp09fw8wvW+ztt8YTMKG/CfBfZ2NiSmJjIwoVzmDZtgu6CZGFhxfz5y9i6dS+NG7/P/PnL2LXroN441rRfHIoUKYqRkRHXrl2hUqUqenfER0SE89ln3di4cTVJSYZf2vz9/ejUqQ1hYaFs3ryTjRv/ZsaM+ZQtW15Z9bUlJSUxe/YUAgLu0b17H2VxugIC7vPxxx/opthSbn36dCYuLla5m05SUhLz58/iyy+7M3bsZDp37pEtvT+vKiYmRvdlKr3t448/yHSMtEaj4Y8/NvLxx+/TpUtPhg4dmaUk8fLlC3z//TB69+5v8PN0VsTHx/HrrzPp0qUdgwYNZdCgb7P1czx+/IjBZ/Hi1rx5Pc6cOaXcDZ7fU3DmzCmGDOlH7doVuHjxHNu3/8PYsVPS/eXvdb1um3wdWq2WGzeu8emnbdi1629WrNiQ7g20b5pKpcLOzk7Xkxkd/ZCoqCi9+0FiY2OoUKEy8fHxnD377P9OpTKmSJGi/6kHNCM7d/5l8Nkr71X6+ONnyf6LQyS7deulmxaxTJly1KhRCxMTVYYz5LxJ6f0bXtxe1pkVEhJM796d2bXrb9as2ZLur6nZQaPRcP/+XebMmUb9+lUZN24kkybNYPPmXen+Oveir7/+H76+9zh9+hp37kTo/j5//maWPvMXb8Js166DsjhHvdGvZ9OmzaBdu06ULp214QDdu3/BihULcXGpQtWqeXvsVE46ffoEAwb0pGzZ8uzZczjdOVrbtm1PmzbtdD8lWVhYsHz5RqysrF56QU1bWTBNdPRDvZXBlO7c8WfjxtXUrduQOXMWG4wdexXDh798/G9ycjKVKumP696zZwf379/VLYxw//5deD7fqY2NLd7eXvj6XjbY721mYmJCnTr1n8/hXBRz8wI8farh+nVfoqIiiYqK5Pp1XxIS4nUrYfLCZxkVFUlycjK3b99i1KhxXLt2Rffc69atoGrV6kRHPyIw8D4VKlRGq9Vy+/ZNliyZz44dW/nf/8YwePB3umQlo8VYXsepU8f5/vuhFC5sw7p1W9Pt9U9P8eIlWLhwOfb26a+0e+zYETZtWmvwxTIuLpa9e3cya9ZkbGyKsHPnQd2NqLnJ0tKS6dPnGdwcmubGjWtMnToOjUZ/2rnk5CQOHTrA7NlTefQoilWrNtOkyQcvTYLj4+OYM+dnNmxYxfjxU+nbN+vjiwHu3v2XUaO+4ezZ07i41GDr1t3Uq5fxzYyvqkKFykycOF0Z1klKSmLRorkGie2xY4fp3fvZbAgffNCK7dv/oVatui/9XF7Hq7bJ15GS8oRVqzz4/fc1BAUF0r//YL777nusrJ7dmJjTHj16yLRpE7CwsODy5YvExcVStmw5ihX7/88kPDyUBQtm07Rpc7y991GnTgNSUlI4fvwIDx7c58GDAEJCgjl/3ocHD+7j6bmTBw/uo9Fo8PR81jtaqVKVDJPKtBkxXuTtvY+9e///hn5r68JYWxfWXavsn08dmdY+vLx2c/bsKYoVc2Ds2OGvtJjT62jVqg1Tp84lo+Y6ceIY3YJDabRaLUFBD/DwWMjvv6+hY8curFix8Y21haioCLp1a8+tW36UL1+R8eOn0a5dx5d+uU3rbDA3f3YzbEYSEhIMOuzWrFmGt/ez4ZPh4WF4e3sB4ONzkpCQIIoWtcPH52SO5wmZroT5Oq5c8eXQoWN06vS5suilli6dy/TpU5Xht1JWVsJM+7bo7FzWYKxWfpe2cly3br0znCM4zY0b11i7dgWLF6/C0tKSpUvnc+PGNT76yF1ZVc++fXtQqVQGJ9cXvQ0rYfI8sdq8eT2tWn2k60lISEhg0KBeWFhYULSo/uw1hQvb8s03wzlz5hS7dv2l+yyLFy+Bk5MzRYsWY9q08axY8WxIT8mSpdm6dQ9FixbTffGKjn7EyJFDKFKkKCNGjM1yMpye6OhHnDvnQ82atfUuvkpJSUlcuHCWOnXqv/TE/bo0Gg3btm1i3brlDB/+Iy1bGo6ZzKrsXAnzVWm1WtTqQ0yZMo5Bg76lQ4fO/+kzvHXLD5VKRfnyFZVFL6V9PmVkyZKlKVu2fJYT26Tny6dXrVo9W8b6a5+vGmtmZq73xV+r1RIbG4OVVaFX+j9OTU3l7NnTFCtWLMNEL6/w9/fj339v06xZi1fqRMnqqoAvWwkzISGBkSO/plmzltjY2GBiYkr16jWxtrYmLCyUzp0/JioqAoBRo8bx9dffYWRkRHLyE4YM+YJGjRrj7FwWExNTLCws2LMn41/R27Rx192L8OKKvmmJdto1IjQ0hCFD+nHnjj/duvXixx8n6z2PcjVgb+99jB07HBsbW379dRnly1dk9uwpxMbGMGPGrxkuuZ6dK2G+qrTpZhMS4hkzZtIrHddpbt++SVBQIG5uTXSzxqQnrdMvqwsqhT9fCXfcuKkv7fg4duwIx48f0f1fDh8+GHt7h5cOFVy92oOWLdtkOg94Vtt8ZrK8FP3rmDp1Ol988Y0ynCV//bWJjh3b6r3Rt1VWEvC3WdqF0MLCIssHY5qEhAR43guYmYSEBDSa1Axv/OQtSsDTo9VqiYmJztKvIeLNygsJuBDZIavJyMsS8Ff1uue1F68fyclJJCcnZ3qNyEzaVKiFClnrvrhptVqePn2a6Re5vJCA5wdpS8pbW1v/5//r2NgYzM3NX5pfxMbGoFKZZJpPZLXNZ8ZgKfo3IT4+XhnKsvfee5+jRzO+yUu8PYyeL5/+soMjPWkzpbyMpaXlK59Y3wZGRkbY2Nj+5xOXEELkVa97Xnvx+mFuXuC1rhHm5gWwsbHVS7aNMpjKV/x3KpXqlW9itrYunKX84sWhRTnljSTgT58+pUCB//6TVhpHx5IEBWV845AQQgghhBD51RtJwFNSUjAzS3/MU1Y9fap/05AQQgghhBBvgzeSgJubm/P48bPxVa8iOTkZKyvDlRaFEEIIIYTI795IAg7w9Kn+VDf/xcWLZ6hXL/M7VoUQQgghhMiP3lgCXqtWTXx9LyrDWXLu3CmaNGmiDL+VjIze2H+B+A9SUp4AWZsSLTdlcdY2kUelpqZk6cYslUrF06epyrAQeYZWm/kMH2mMjVVoNNKW02NsnLUTejZOAS9eQ2pqapbafFa9seyvW7cuHD16QBl+qbNnT+Hikr3TFeVlrq41UKsPKcMih+3Y8Qdubtm/IEh2s7YupFvtVOQ/Fy74ULt25sssA9SpU4fTp2UmKJF3Xb/uS+XKL5/rvEGD+hw8+GzhE/H/Dh70yvIv/ba2NkREhCvDIofdvHktS20+q97YPOAAFy5cZPv2XQwalLV5roOCAti79y+mTv1JWfRWW7hwMUFBwZiZvXyqHJH9njxJonHj9/jkk8wX9MkLNBoNP/88g8TE5FeakknkDmNjI5KTk+jSpRN162btonv6tA/bt+/KdEELIXJaWlvu0aMHNWtWVxan68gRNZ6e+7I0Hdy74MmTJJydnRky5CtlUYamTv2Zx4+T5LyfC9LafK9ePahePWttPiM5shBPmqNHj+PltY8BA4ZluoToqVNHuXr1IlOmTFIWCSGEEEIIka/laAIOEBkZyeLFS3n6FJo0aU65cpUwNzcnIiIcX98L3Lhxhdq1a9KtW1flrkIIIYQQQuR7OZ6Ap4mLi+PYsRNcunSRW7du8f77H1C7di1q1aqprCqEEEIIIcRbI9cS8DTBwcEcOXKEnj17KouEEEIIIYR467yYgL+xWVCEEEIIIYQQhiQBF0IIIYQQIgdJAi6EEEIIIUQOkgRcCCGEEEKIHCQJuBBCCCGEEDkoW2ZBCQ4OVoYyFRYWxqlTp+jYsaOy6KVKlCihDAkhhBBCCJGnZfs0hJs3b1aGMhUdHc3Nmzdp2LChsihTderUoXLlysqwEEIIIYQQeVq2J+D/lcwDLoQQQggh3iUyD7gQQgghhBC5RBJwIYQQQgghcpAk4EIIIYQQQuQgScCFEEIIIYTIQZKACyGEEEIIkYMkARdCCCGEECIHSQIuhBBCCCFEDpIEXAghhBBCiBwkCbgQQgghhBA5SBJwIYQQQgghcpAk4EIIIYQQQuQgScCFEEIIIYTIQZKACyGEEEIIkYMkARdCCCGEECIHSQIuhBBCCCFEDpIEXAghhBBCiByUawm4VqtVhoQQQgghhHjr5UoCfvToUS5cuEBERISySAghhBBCiLdajifgFy9e5MmTJ3Tr1o29e/eSmJiorCKEEEIIIcRbK0cTcH9/f06ePEm7du1o0KABFSpUYM+ePcpqQgghhBBCvLVyLAEPCQlhz549uLu7Y2dnB0CTJk2wtrbGy8tLWV0IIYQQQoi3Uo4k4DExMezZs4fWrVvj7OysV9amTRsSExNRq9V6cSGEEEIIId5GbzwB12g07N27l5o1a+Li4qIsBsDd3Z179+5x4cIFZZEQQgghhBBvlTeegO/Zs4fixYvToEEDZZGOmZkZ7u7unD59mps3byqLhRBCCCGEeGu80QT84MGDGBsb06JFC2WRgSJFiuDu7s7evXsJCgpSFgshhBBCCPFWeGMJuI+PD+Hh4bi7uyuLMuTk5MRHH33Enj17iImJURYLIYQQQgiR772RBPzatWtcuXIFd3d3jIyMlMWZqlatGnXq1GH37t2kpqYqi4UQQgghhMjXsj0Bv3v3LgcOHKB9+/YUKlRIWZwl9evXp1SpUjJHuBBCCCGEeOtkawIeERGhm+u7ePHiyuL/5IMPPsDExARvb29lkRBCCCGEEPlWtiXgiYmJ7Nmzh2bNmlGhQgVl8Stxd3cnMjKSU6dOKYuEEEIIIYTIl7ItAd+zZw+VKlWiZs2ayqLX4u7uzvXr1/H19VUWCSGEEEIIke9kSwLu5eWFtbU1jRs3Vha9NisrK9zd3Tl06BB37txRFgshhBBCCJGvZEsCbmRkRJs2bZThbOPg4ED79u3RaDTKIiGEEEIIIfIVI2dnZ+29e/eUcSGEEEIIIUQ2KVOmjO7vbOkBF0IIIYQQQmSNJOBCCCGEEELkIEnAhRBCCCGEyEGSgAshhBBCCJGDJAEXQgghhBDiDYmPj2fBggV6MSNnZ2etnZ0dkZGRegVCCCGEEEKI7Cc94EIIIYQQQuQgScCFEEIIIYTIQf8H+2MjOZuwtc4AAAAASUVORK5CYII=;" vertex="1" parent="1">
          <mxGeometry x="108" y="693" width="468.85" height="351" as="geometry" />
        </mxCell>
        <mxCell id="4Q9v6v42GUllifusgvBl-65" value="変更前" style="text;html=1;align=center;verticalAlign=middle;whiteSpace=wrap;rounded=0;" vertex="1" parent="1">
          <mxGeometry x="648" y="410" width="60" height="30" as="geometry" />
        </mxCell>
        <mxCell id="4Q9v6v42GUllifusgvBl-66" value="変更後" style="text;html=1;align=center;verticalAlign=middle;whiteSpace=wrap;rounded=0;" vertex="1" parent="1">
          <mxGeometry x="639" y="864" width="60" height="30" as="geometry" />
        </mxCell>
      </root>
    </mxGraphModel>
  </diagram>
</mxfile>
